<svg width="5305" height="361" viewBox="0 0 5305 361" fill="none" xmlns="http://www.w3.org/2000/svg">
<path opacity="0.417969" d="M21.8648 32.0361V359.194" stroke="#BDC7DE" stroke-linecap="square"/>
<path opacity="0.417969" d="M102.206 32.0363V359.194" stroke="#BDC7DE" stroke-linecap="square"/>
<path opacity="0.417969" d="M182.547 32.0363V359.194" stroke="#BDC7DE" stroke-linecap="square"/>
<path opacity="0.417969" d="M262.888 32.0363V359.194" stroke="#BDC7DE" stroke-linecap="square"/>
<path opacity="0.417969" d="M343.229 32.0363V359.194" stroke="#BDC7DE" stroke-linecap="square"/>
<path opacity="0.417969" d="M424.587 32.0363V359.194" stroke="#BDC7DE" stroke-linecap="square"/>
<path opacity="0.417969" d="M504.928 32.0363V359.194" stroke="#BDC7DE" stroke-linecap="square"/>
<path opacity="0.417969" d="M906.633 32.0363V359.194" stroke="#BDC7DE" stroke-linecap="square"/>
<path opacity="0.417969" d="M585.269 32.0363V359.194" stroke="#BDC7DE" stroke-linecap="square"/>
<path opacity="0.417969" d="M986.974 32.0363V359.194" stroke="#BDC7DE" stroke-linecap="square"/>
<path opacity="0.417969" d="M665.609 32.0363V359.194" stroke="#BDC7DE" stroke-linecap="square"/>
<path opacity="0.417969" d="M1068.33 32.0363V359.194" stroke="#BDC7DE" stroke-linecap="square"/>
<path opacity="0.417969" d="M826.292 32.0363V359.194" stroke="#BDC7DE" stroke-linecap="square"/>
<path opacity="0.417969" d="M1229.01 32.0363V359.194" stroke="#BDC7DE" stroke-linecap="square"/>
<path opacity="0.417969" d="M1309.35 32.0363V359.194" stroke="#BDC7DE" stroke-linecap="square"/>
<path opacity="0.417969" d="M745.951 32.0363V359.194" stroke="#BDC7DE" stroke-linecap="square"/>
<path opacity="0.417969" d="M1148.67 32.0363V359.194" stroke="#BDC7DE" stroke-linecap="square"/>
<path opacity="0.541667" fill-rule="evenodd" clip-rule="evenodd" d="M20.3395 208.48C31.5727 208.48 40.679 199.373 40.679 188.14C40.679 176.907 31.5727 167.801 20.3395 167.801C9.1063 167.801 0 176.907 0 188.14C0 199.373 9.1063 208.48 20.3395 208.48Z" fill="#6A57B0"/>
<path opacity="0.57381" fill-rule="evenodd" clip-rule="evenodd" d="M271.024 167.801C284.223 167.801 294.923 157.101 294.923 143.902C294.923 130.703 284.223 120.003 271.024 120.003C257.825 120.003 247.125 130.703 247.125 143.902C247.125 157.101 257.825 167.801 271.024 167.801Z" fill="#E86202"/>
<path opacity="0.35813" fill-rule="evenodd" clip-rule="evenodd" d="M423.061 173.902C432.048 173.902 439.333 166.617 439.333 157.631C439.333 148.644 432.048 141.359 423.061 141.359C414.075 141.359 406.79 148.644 406.79 157.631C406.79 166.617 414.075 173.902 423.061 173.902Z" fill="#EA550F"/>
<path opacity="0.35813" fill-rule="evenodd" clip-rule="evenodd" d="M582.726 117.968C588.905 117.968 593.913 112.959 593.913 106.781C593.913 100.603 588.905 95.5945 582.726 95.5945C576.548 95.5945 571.54 100.603 571.54 106.781C571.54 112.959 576.548 117.968 582.726 117.968Z" fill="#5C5C5C"/>
<path opacity="0.459748" fill-rule="evenodd" clip-rule="evenodd" d="M709.848 212.547C723.328 212.547 734.255 201.619 734.255 188.14C734.255 174.66 723.328 163.732 709.848 163.732C696.368 163.732 685.441 174.66 685.441 188.14C685.441 201.619 696.368 212.547 709.848 212.547Z" fill="#FFC000"/>
<path opacity="0.459748" fill-rule="evenodd" clip-rule="evenodd" d="M900.531 99.6637C909.236 99.6637 916.294 92.6063 916.294 83.9006C916.294 75.1948 909.236 68.1375 900.531 68.1375C891.825 68.1375 884.768 75.1948 884.768 83.9006C884.768 92.6063 891.825 99.6637 900.531 99.6637Z" fill="#FFC000"/>
<path opacity="0.408855" fill-rule="evenodd" clip-rule="evenodd" d="M1023.08 40.679C1034.31 40.679 1043.42 31.5727 1043.42 20.3395C1043.42 9.1063 1034.31 0 1023.08 0C1011.84 0 1002.74 9.1063 1002.74 20.3395C1002.74 31.5727 1011.84 40.679 1023.08 40.679Z" fill="#FFC000"/>
<path opacity="0.35813" fill-rule="evenodd" clip-rule="evenodd" d="M1142.06 122.038C1150.49 122.038 1157.32 115.208 1157.32 106.783C1157.32 98.358 1150.49 91.5283 1142.06 91.5283C1133.64 91.5283 1126.81 98.358 1126.81 106.783C1126.81 115.208 1133.64 122.038 1142.06 122.038Z" fill="#5C5C5C"/>
<path opacity="0.35813" fill-rule="evenodd" clip-rule="evenodd" d="M1310.88 114.917C1319.3 114.917 1326.13 108.088 1326.13 99.6628C1326.13 91.2379 1319.3 84.4082 1310.88 84.4082C1302.45 84.4082 1295.63 91.2379 1295.63 99.6628C1295.63 108.088 1302.45 114.917 1310.88 114.917Z" fill="#6D4EDA"/>
<path fill-rule="evenodd" clip-rule="evenodd" d="M182.038 95.5951C188.217 95.5951 193.225 90.5867 193.225 84.4084C193.225 78.2301 188.217 73.2217 182.038 73.2217C175.86 73.2217 170.852 78.2301 170.852 84.4084C170.852 90.5867 175.86 95.5951 182.038 95.5951Z" fill="#FFD34F"/>
<g style="mix-blend-mode:darken" opacity="0.578656">
<path fill-rule="evenodd" clip-rule="evenodd" d="M653.915 141.359C660.655 141.359 666.118 135.895 666.118 129.155C666.118 122.415 660.655 116.952 653.915 116.952C647.175 116.952 641.711 122.415 641.711 129.155C641.711 135.895 647.175 141.359 653.915 141.359Z" fill="#E86202"/>
</g>
<g style="mix-blend-mode:darken" opacity="0.191746">
<path fill-rule="evenodd" clip-rule="evenodd" d="M813.071 183.055C817.283 183.055 820.698 179.64 820.698 175.428C820.698 171.215 817.283 167.801 813.071 167.801C808.858 167.801 805.444 171.215 805.444 175.428C805.444 179.64 808.858 183.055 813.071 183.055Z" fill="#5C5C5C"/>
</g>
<g style="mix-blend-mode:darken" opacity="0.691758">
<path fill-rule="evenodd" clip-rule="evenodd" d="M535.437 221.7C548.074 221.7 558.319 211.456 558.319 198.818C558.319 186.181 548.074 175.937 535.437 175.937C522.8 175.937 512.555 186.181 512.555 198.818C512.555 211.456 522.8 221.7 535.437 221.7Z" fill="#FFC000"/>
</g>
<path opacity="0.35813" fill-rule="evenodd" clip-rule="evenodd" d="M856.292 108.816C863.032 108.816 868.496 103.352 868.496 96.6119C868.496 89.872 863.032 84.4082 856.292 84.4082C849.552 84.4082 844.089 89.872 844.089 96.6119C844.089 103.352 849.552 108.816 856.292 108.816Z" fill="#EA550F"/>
<path opacity="0.628855" fill-rule="evenodd" clip-rule="evenodd" d="M947.82 160.682C954.56 160.682 960.024 155.219 960.024 148.479C960.024 141.739 954.56 136.275 947.82 136.275C941.08 136.275 935.616 141.739 935.616 148.479C935.616 155.219 941.08 160.682 947.82 160.682Z" fill="#E86202"/>
<path opacity="0.35813" fill-rule="evenodd" clip-rule="evenodd" d="M1067.82 157.631C1074.56 157.631 1080.03 152.167 1080.03 145.427C1080.03 138.687 1074.56 133.223 1067.82 133.223C1061.08 133.223 1055.62 138.687 1055.62 145.427C1055.62 152.167 1061.08 157.631 1067.82 157.631Z" fill="#EA550F"/>
<path opacity="0.660272" fill-rule="evenodd" clip-rule="evenodd" d="M1268.17 155.597C1274.91 155.597 1280.37 150.133 1280.37 143.393C1280.37 136.653 1274.91 131.19 1268.17 131.19C1261.43 131.19 1255.96 136.653 1255.96 143.393C1255.96 150.133 1261.43 155.597 1268.17 155.597Z" fill="#9F47D0"/>
<path opacity="0.215127" fill-rule="evenodd" clip-rule="evenodd" d="M104.748 157.631C111.488 157.631 116.952 152.167 116.952 145.427C116.952 138.687 111.488 133.223 104.748 133.223C98.0085 133.223 92.5447 138.687 92.5447 145.427C92.5447 152.167 98.0085 157.631 104.748 157.631Z" fill="#5C5C5C"/>
<path opacity="0.417969" d="M1347.86 32.0361V359.194" stroke="#BDC7DE" stroke-linecap="square"/>
<path opacity="0.417969" d="M1428.21 32.0363V359.194" stroke="#BDC7DE" stroke-linecap="square"/>
<path opacity="0.417969" d="M1508.55 32.0363V359.194" stroke="#BDC7DE" stroke-linecap="square"/>
<path opacity="0.417969" d="M1588.89 32.0363V359.194" stroke="#BDC7DE" stroke-linecap="square"/>
<path opacity="0.417969" d="M1669.23 32.0363V359.194" stroke="#BDC7DE" stroke-linecap="square"/>
<path opacity="0.417969" d="M1750.59 32.0363V359.194" stroke="#BDC7DE" stroke-linecap="square"/>
<path opacity="0.417969" d="M1830.93 32.0363V359.194" stroke="#BDC7DE" stroke-linecap="square"/>
<path opacity="0.417969" d="M2232.63 32.0363V359.194" stroke="#BDC7DE" stroke-linecap="square"/>
<path opacity="0.417969" d="M1911.27 32.0363V359.194" stroke="#BDC7DE" stroke-linecap="square"/>
<path opacity="0.417969" d="M2312.97 32.0363V359.194" stroke="#BDC7DE" stroke-linecap="square"/>
<path opacity="0.417969" d="M1991.61 32.0363V359.194" stroke="#BDC7DE" stroke-linecap="square"/>
<path opacity="0.417969" d="M2394.33 32.0363V359.194" stroke="#BDC7DE" stroke-linecap="square"/>
<path opacity="0.417969" d="M2152.29 32.0363V359.194" stroke="#BDC7DE" stroke-linecap="square"/>
<path opacity="0.417969" d="M2555.01 32.0363V359.194" stroke="#BDC7DE" stroke-linecap="square"/>
<path opacity="0.417969" d="M2635.35 32.0363V359.194" stroke="#BDC7DE" stroke-linecap="square"/>
<path opacity="0.417969" d="M2071.95 32.0363V359.194" stroke="#BDC7DE" stroke-linecap="square"/>
<path opacity="0.417969" d="M2474.67 32.0363V359.194" stroke="#BDC7DE" stroke-linecap="square"/>
<path opacity="0.541667" fill-rule="evenodd" clip-rule="evenodd" d="M1346.34 208.48C1357.57 208.48 1366.68 199.373 1366.68 188.14C1366.68 176.907 1357.57 167.801 1346.34 167.801C1335.11 167.801 1326 176.907 1326 188.14C1326 199.373 1335.11 208.48 1346.34 208.48Z" fill="#6A57B0"/>
<path opacity="0.57381" fill-rule="evenodd" clip-rule="evenodd" d="M1597.02 167.801C1610.22 167.801 1620.92 157.101 1620.92 143.902C1620.92 130.703 1610.22 120.003 1597.02 120.003C1583.82 120.003 1573.12 130.703 1573.12 143.902C1573.12 157.101 1583.82 167.801 1597.02 167.801Z" fill="#E86202"/>
<path opacity="0.35813" fill-rule="evenodd" clip-rule="evenodd" d="M1749.06 173.902C1758.05 173.902 1765.33 166.617 1765.33 157.631C1765.33 148.644 1758.05 141.359 1749.06 141.359C1740.07 141.359 1732.79 148.644 1732.79 157.631C1732.79 166.617 1740.07 173.902 1749.06 173.902Z" fill="#EA550F"/>
<path opacity="0.35813" fill-rule="evenodd" clip-rule="evenodd" d="M1908.73 117.968C1914.9 117.968 1919.91 112.959 1919.91 106.781C1919.91 100.603 1914.9 95.5945 1908.73 95.5945C1902.55 95.5945 1897.54 100.603 1897.54 106.781C1897.54 112.959 1902.55 117.968 1908.73 117.968Z" fill="#5C5C5C"/>
<path opacity="0.459748" fill-rule="evenodd" clip-rule="evenodd" d="M2035.85 212.547C2049.33 212.547 2060.26 201.619 2060.26 188.14C2060.26 174.66 2049.33 163.732 2035.85 163.732C2022.37 163.732 2011.44 174.66 2011.44 188.14C2011.44 201.619 2022.37 212.547 2035.85 212.547Z" fill="#FFC000"/>
<path opacity="0.459748" fill-rule="evenodd" clip-rule="evenodd" d="M2226.53 99.6637C2235.24 99.6637 2242.29 92.6063 2242.29 83.9006C2242.29 75.1948 2235.24 68.1375 2226.53 68.1375C2217.83 68.1375 2210.77 75.1948 2210.77 83.9006C2210.77 92.6063 2217.83 99.6637 2226.53 99.6637Z" fill="#FFC000"/>
<path opacity="0.408855" fill-rule="evenodd" clip-rule="evenodd" d="M2349.08 40.679C2360.31 40.679 2369.42 31.5727 2369.42 20.3395C2369.42 9.1063 2360.31 0 2349.08 0C2337.84 0 2328.74 9.1063 2328.74 20.3395C2328.74 31.5727 2337.84 40.679 2349.08 40.679Z" fill="#FFC000"/>
<path opacity="0.35813" fill-rule="evenodd" clip-rule="evenodd" d="M2468.06 122.038C2476.49 122.038 2483.32 115.208 2483.32 106.783C2483.32 98.358 2476.49 91.5283 2468.06 91.5283C2459.64 91.5283 2452.81 98.358 2452.81 106.783C2452.81 115.208 2459.64 122.038 2468.06 122.038Z" fill="#5C5C5C"/>
<path opacity="0.35813" fill-rule="evenodd" clip-rule="evenodd" d="M2636.88 114.917C2645.3 114.917 2652.13 108.088 2652.13 99.6628C2652.13 91.2379 2645.3 84.4082 2636.88 84.4082C2628.45 84.4082 2621.63 91.2379 2621.63 99.6628C2621.63 108.088 2628.45 114.917 2636.88 114.917Z" fill="#6D4EDA"/>
<path fill-rule="evenodd" clip-rule="evenodd" d="M1508.04 95.5951C1514.22 95.5951 1519.23 90.5867 1519.23 84.4084C1519.23 78.2301 1514.22 73.2217 1508.04 73.2217C1501.86 73.2217 1496.85 78.2301 1496.85 84.4084C1496.85 90.5867 1501.86 95.5951 1508.04 95.5951Z" fill="#FFD34F"/>
<g style="mix-blend-mode:darken" opacity="0.578656">
<path fill-rule="evenodd" clip-rule="evenodd" d="M1979.91 141.359C1986.65 141.359 1992.12 135.895 1992.12 129.155C1992.12 122.415 1986.65 116.952 1979.91 116.952C1973.17 116.952 1967.71 122.415 1967.71 129.155C1967.71 135.895 1973.17 141.359 1979.91 141.359Z" fill="#E86202"/>
</g>
<g style="mix-blend-mode:darken" opacity="0.191746">
<path fill-rule="evenodd" clip-rule="evenodd" d="M2139.07 183.055C2143.28 183.055 2146.7 179.64 2146.7 175.428C2146.7 171.215 2143.28 167.801 2139.07 167.801C2134.86 167.801 2131.44 171.215 2131.44 175.428C2131.44 179.64 2134.86 183.055 2139.07 183.055Z" fill="#5C5C5C"/>
</g>
<g style="mix-blend-mode:darken" opacity="0.691758">
<path fill-rule="evenodd" clip-rule="evenodd" d="M1861.44 221.7C1874.07 221.7 1884.32 211.456 1884.32 198.818C1884.32 186.181 1874.07 175.937 1861.44 175.937C1848.8 175.937 1838.56 186.181 1838.56 198.818C1838.56 211.456 1848.8 221.7 1861.44 221.7Z" fill="#FFC000"/>
</g>
<path opacity="0.35813" fill-rule="evenodd" clip-rule="evenodd" d="M2182.29 108.816C2189.03 108.816 2194.5 103.352 2194.5 96.6119C2194.5 89.872 2189.03 84.4082 2182.29 84.4082C2175.55 84.4082 2170.09 89.872 2170.09 96.6119C2170.09 103.352 2175.55 108.816 2182.29 108.816Z" fill="#EA550F"/>
<path opacity="0.628855" fill-rule="evenodd" clip-rule="evenodd" d="M2273.82 160.682C2280.56 160.682 2286.02 155.219 2286.02 148.479C2286.02 141.739 2280.56 136.275 2273.82 136.275C2267.08 136.275 2261.62 141.739 2261.62 148.479C2261.62 155.219 2267.08 160.682 2273.82 160.682Z" fill="#E86202"/>
<path opacity="0.35813" fill-rule="evenodd" clip-rule="evenodd" d="M2393.82 157.631C2400.56 157.631 2406.03 152.167 2406.03 145.427C2406.03 138.687 2400.56 133.223 2393.82 133.223C2387.08 133.223 2381.62 138.687 2381.62 145.427C2381.62 152.167 2387.08 157.631 2393.82 157.631Z" fill="#EA550F"/>
<path opacity="0.660272" fill-rule="evenodd" clip-rule="evenodd" d="M2594.17 155.597C2600.91 155.597 2606.37 150.133 2606.37 143.393C2606.37 136.653 2600.91 131.19 2594.17 131.19C2587.43 131.19 2581.96 136.653 2581.96 143.393C2581.96 150.133 2587.43 155.597 2594.17 155.597Z" fill="#9F47D0"/>
<path opacity="0.215127" fill-rule="evenodd" clip-rule="evenodd" d="M1430.75 157.631C1437.49 157.631 1442.95 152.167 1442.95 145.427C1442.95 138.687 1437.49 133.223 1430.75 133.223C1424.01 133.223 1418.54 138.687 1418.54 145.427C1418.54 152.167 1424.01 157.631 1430.75 157.631Z" fill="#5C5C5C"/>
<path opacity="0.417969" d="M2673.86 32.0361V359.194" stroke="#BDC7DE" stroke-linecap="square"/>
<path opacity="0.417969" d="M2754.21 32.0363V359.194" stroke="#BDC7DE" stroke-linecap="square"/>
<path opacity="0.417969" d="M2834.55 32.0363V359.194" stroke="#BDC7DE" stroke-linecap="square"/>
<path opacity="0.417969" d="M2914.89 32.0363V359.194" stroke="#BDC7DE" stroke-linecap="square"/>
<path opacity="0.417969" d="M2995.23 32.0363V359.194" stroke="#BDC7DE" stroke-linecap="square"/>
<path opacity="0.417969" d="M3076.59 32.0363V359.194" stroke="#BDC7DE" stroke-linecap="square"/>
<path opacity="0.417969" d="M3156.93 32.0363V359.194" stroke="#BDC7DE" stroke-linecap="square"/>
<path opacity="0.417969" d="M3558.63 32.0363V359.194" stroke="#BDC7DE" stroke-linecap="square"/>
<path opacity="0.417969" d="M3237.27 32.0363V359.194" stroke="#BDC7DE" stroke-linecap="square"/>
<path opacity="0.417969" d="M3638.97 32.0363V359.194" stroke="#BDC7DE" stroke-linecap="square"/>
<path opacity="0.417969" d="M3317.61 32.0363V359.194" stroke="#BDC7DE" stroke-linecap="square"/>
<path opacity="0.417969" d="M3720.33 32.0363V359.194" stroke="#BDC7DE" stroke-linecap="square"/>
<path opacity="0.417969" d="M3478.29 32.0363V359.194" stroke="#BDC7DE" stroke-linecap="square"/>
<path opacity="0.417969" d="M3881.01 32.0363V359.194" stroke="#BDC7DE" stroke-linecap="square"/>
<path opacity="0.417969" d="M3961.35 32.0363V359.194" stroke="#BDC7DE" stroke-linecap="square"/>
<path opacity="0.417969" d="M3397.95 32.0363V359.194" stroke="#BDC7DE" stroke-linecap="square"/>
<path opacity="0.417969" d="M3800.67 32.0363V359.194" stroke="#BDC7DE" stroke-linecap="square"/>
<path opacity="0.541667" fill-rule="evenodd" clip-rule="evenodd" d="M2672.34 208.48C2683.57 208.48 2692.68 199.373 2692.68 188.14C2692.68 176.907 2683.57 167.801 2672.34 167.801C2661.11 167.801 2652 176.907 2652 188.14C2652 199.373 2661.11 208.48 2672.34 208.48Z" fill="#6A57B0"/>
<path opacity="0.57381" fill-rule="evenodd" clip-rule="evenodd" d="M2923.02 167.801C2936.22 167.801 2946.92 157.101 2946.92 143.902C2946.92 130.703 2936.22 120.003 2923.02 120.003C2909.82 120.003 2899.12 130.703 2899.12 143.902C2899.12 157.101 2909.82 167.801 2923.02 167.801Z" fill="#E86202"/>
<path opacity="0.35813" fill-rule="evenodd" clip-rule="evenodd" d="M3075.06 173.902C3084.05 173.902 3091.33 166.617 3091.33 157.631C3091.33 148.644 3084.05 141.359 3075.06 141.359C3066.07 141.359 3058.79 148.644 3058.79 157.631C3058.79 166.617 3066.07 173.902 3075.06 173.902Z" fill="#EA550F"/>
<path opacity="0.35813" fill-rule="evenodd" clip-rule="evenodd" d="M3234.73 117.968C3240.9 117.968 3245.91 112.959 3245.91 106.781C3245.91 100.603 3240.9 95.5945 3234.73 95.5945C3228.55 95.5945 3223.54 100.603 3223.54 106.781C3223.54 112.959 3228.55 117.968 3234.73 117.968Z" fill="#5C5C5C"/>
<path opacity="0.459748" fill-rule="evenodd" clip-rule="evenodd" d="M3361.85 212.547C3375.33 212.547 3386.26 201.619 3386.26 188.14C3386.26 174.66 3375.33 163.732 3361.85 163.732C3348.37 163.732 3337.44 174.66 3337.44 188.14C3337.44 201.619 3348.37 212.547 3361.85 212.547Z" fill="#FFC000"/>
<path opacity="0.459748" fill-rule="evenodd" clip-rule="evenodd" d="M3552.53 99.6637C3561.24 99.6637 3568.29 92.6063 3568.29 83.9006C3568.29 75.1948 3561.24 68.1375 3552.53 68.1375C3543.83 68.1375 3536.77 75.1948 3536.77 83.9006C3536.77 92.6063 3543.83 99.6637 3552.53 99.6637Z" fill="#FFC000"/>
<path opacity="0.408855" fill-rule="evenodd" clip-rule="evenodd" d="M3675.08 40.679C3686.31 40.679 3695.42 31.5727 3695.42 20.3395C3695.42 9.1063 3686.31 0 3675.08 0C3663.84 0 3654.74 9.1063 3654.74 20.3395C3654.74 31.5727 3663.84 40.679 3675.08 40.679Z" fill="#FFC000"/>
<path opacity="0.35813" fill-rule="evenodd" clip-rule="evenodd" d="M3794.06 122.038C3802.49 122.038 3809.32 115.208 3809.32 106.783C3809.32 98.358 3802.49 91.5283 3794.06 91.5283C3785.64 91.5283 3778.81 98.358 3778.81 106.783C3778.81 115.208 3785.64 122.038 3794.06 122.038Z" fill="#5C5C5C"/>
<path opacity="0.35813" fill-rule="evenodd" clip-rule="evenodd" d="M3962.88 114.917C3971.3 114.917 3978.13 108.088 3978.13 99.6628C3978.13 91.2379 3971.3 84.4082 3962.88 84.4082C3954.45 84.4082 3947.63 91.2379 3947.63 99.6628C3947.63 108.088 3954.45 114.917 3962.88 114.917Z" fill="#6D4EDA"/>
<path fill-rule="evenodd" clip-rule="evenodd" d="M2834.04 95.5951C2840.22 95.5951 2845.23 90.5867 2845.23 84.4084C2845.23 78.2301 2840.22 73.2217 2834.04 73.2217C2827.86 73.2217 2822.85 78.2301 2822.85 84.4084C2822.85 90.5867 2827.86 95.5951 2834.04 95.5951Z" fill="#FFD34F"/>
<g style="mix-blend-mode:darken" opacity="0.578656">
<path fill-rule="evenodd" clip-rule="evenodd" d="M3305.91 141.359C3312.65 141.359 3318.12 135.895 3318.12 129.155C3318.12 122.415 3312.65 116.952 3305.91 116.952C3299.17 116.952 3293.71 122.415 3293.71 129.155C3293.71 135.895 3299.17 141.359 3305.91 141.359Z" fill="#E86202"/>
</g>
<g style="mix-blend-mode:darken" opacity="0.191746">
<path fill-rule="evenodd" clip-rule="evenodd" d="M3465.07 183.055C3469.28 183.055 3472.7 179.64 3472.7 175.428C3472.7 171.215 3469.28 167.801 3465.07 167.801C3460.86 167.801 3457.44 171.215 3457.44 175.428C3457.44 179.64 3460.86 183.055 3465.07 183.055Z" fill="#5C5C5C"/>
</g>
<g style="mix-blend-mode:darken" opacity="0.691758">
<path fill-rule="evenodd" clip-rule="evenodd" d="M3187.44 221.7C3200.07 221.7 3210.32 211.456 3210.32 198.818C3210.32 186.181 3200.07 175.937 3187.44 175.937C3174.8 175.937 3164.56 186.181 3164.56 198.818C3164.56 211.456 3174.8 221.7 3187.44 221.7Z" fill="#FFC000"/>
</g>
<path opacity="0.35813" fill-rule="evenodd" clip-rule="evenodd" d="M3508.29 108.816C3515.03 108.816 3520.5 103.352 3520.5 96.6119C3520.5 89.872 3515.03 84.4082 3508.29 84.4082C3501.55 84.4082 3496.09 89.872 3496.09 96.6119C3496.09 103.352 3501.55 108.816 3508.29 108.816Z" fill="#EA550F"/>
<path opacity="0.628855" fill-rule="evenodd" clip-rule="evenodd" d="M3599.82 160.682C3606.56 160.682 3612.02 155.219 3612.02 148.479C3612.02 141.739 3606.56 136.275 3599.82 136.275C3593.08 136.275 3587.62 141.739 3587.62 148.479C3587.62 155.219 3593.08 160.682 3599.82 160.682Z" fill="#E86202"/>
<path opacity="0.35813" fill-rule="evenodd" clip-rule="evenodd" d="M3719.82 157.631C3726.56 157.631 3732.03 152.167 3732.03 145.427C3732.03 138.687 3726.56 133.223 3719.82 133.223C3713.08 133.223 3707.62 138.687 3707.62 145.427C3707.62 152.167 3713.08 157.631 3719.82 157.631Z" fill="#EA550F"/>
<path opacity="0.660272" fill-rule="evenodd" clip-rule="evenodd" d="M3920.17 155.597C3926.91 155.597 3932.37 150.133 3932.37 143.393C3932.37 136.653 3926.91 131.19 3920.17 131.19C3913.43 131.19 3907.96 136.653 3907.96 143.393C3907.96 150.133 3913.43 155.597 3920.17 155.597Z" fill="#9F47D0"/>
<path opacity="0.215127" fill-rule="evenodd" clip-rule="evenodd" d="M2756.75 157.631C2763.49 157.631 2768.95 152.167 2768.95 145.427C2768.95 138.687 2763.49 133.223 2756.75 133.223C2750.01 133.223 2744.54 138.687 2744.54 145.427C2744.54 152.167 2750.01 157.631 2756.75 157.631Z" fill="#5C5C5C"/>
<path opacity="0.417969" d="M3999.86 32.0361V359.194" stroke="#BDC7DE" stroke-linecap="square"/>
<path opacity="0.417969" d="M4080.21 32.0363V359.194" stroke="#BDC7DE" stroke-linecap="square"/>
<path opacity="0.417969" d="M4160.55 32.0363V359.194" stroke="#BDC7DE" stroke-linecap="square"/>
<path opacity="0.417969" d="M4240.89 32.0363V359.194" stroke="#BDC7DE" stroke-linecap="square"/>
<path opacity="0.417969" d="M4321.23 32.0363V359.194" stroke="#BDC7DE" stroke-linecap="square"/>
<path opacity="0.417969" d="M4402.59 32.0363V359.194" stroke="#BDC7DE" stroke-linecap="square"/>
<path opacity="0.417969" d="M4482.93 32.0363V359.194" stroke="#BDC7DE" stroke-linecap="square"/>
<path opacity="0.417969" d="M4884.63 32.0363V359.194" stroke="#BDC7DE" stroke-linecap="square"/>
<path opacity="0.417969" d="M4563.27 32.0363V359.194" stroke="#BDC7DE" stroke-linecap="square"/>
<path opacity="0.417969" d="M4964.97 32.0363V359.194" stroke="#BDC7DE" stroke-linecap="square"/>
<path opacity="0.417969" d="M4643.61 32.0363V359.194" stroke="#BDC7DE" stroke-linecap="square"/>
<path opacity="0.417969" d="M5046.33 32.0363V359.194" stroke="#BDC7DE" stroke-linecap="square"/>
<path opacity="0.417969" d="M4804.29 32.0363V359.194" stroke="#BDC7DE" stroke-linecap="square"/>
<path opacity="0.417969" d="M5207.01 32.0363V359.194" stroke="#BDC7DE" stroke-linecap="square"/>
<path opacity="0.417969" d="M5287.35 32.0363V359.194" stroke="#BDC7DE" stroke-linecap="square"/>
<path opacity="0.417969" d="M4723.95 32.0363V359.194" stroke="#BDC7DE" stroke-linecap="square"/>
<path opacity="0.417969" d="M5126.67 32.0363V359.194" stroke="#BDC7DE" stroke-linecap="square"/>
<path opacity="0.541667" fill-rule="evenodd" clip-rule="evenodd" d="M3998.34 208.48C4009.57 208.48 4018.68 199.373 4018.68 188.14C4018.68 176.907 4009.57 167.801 3998.34 167.801C3987.11 167.801 3978 176.907 3978 188.14C3978 199.373 3987.11 208.48 3998.34 208.48Z" fill="#6A57B0"/>
<path opacity="0.57381" fill-rule="evenodd" clip-rule="evenodd" d="M4249.02 167.801C4262.22 167.801 4272.92 157.101 4272.92 143.902C4272.92 130.703 4262.22 120.003 4249.02 120.003C4235.82 120.003 4225.12 130.703 4225.12 143.902C4225.12 157.101 4235.82 167.801 4249.02 167.801Z" fill="#E86202"/>
<path opacity="0.35813" fill-rule="evenodd" clip-rule="evenodd" d="M4401.06 173.902C4410.05 173.902 4417.33 166.617 4417.33 157.631C4417.33 148.644 4410.05 141.359 4401.06 141.359C4392.07 141.359 4384.79 148.644 4384.79 157.631C4384.79 166.617 4392.07 173.902 4401.06 173.902Z" fill="#EA550F"/>
<path opacity="0.35813" fill-rule="evenodd" clip-rule="evenodd" d="M4560.73 117.968C4566.9 117.968 4571.91 112.959 4571.91 106.781C4571.91 100.603 4566.9 95.5945 4560.73 95.5945C4554.55 95.5945 4549.54 100.603 4549.54 106.781C4549.54 112.959 4554.55 117.968 4560.73 117.968Z" fill="#5C5C5C"/>
<path opacity="0.459748" fill-rule="evenodd" clip-rule="evenodd" d="M4687.85 212.547C4701.33 212.547 4712.26 201.619 4712.26 188.14C4712.26 174.66 4701.33 163.732 4687.85 163.732C4674.37 163.732 4663.44 174.66 4663.44 188.14C4663.44 201.619 4674.37 212.547 4687.85 212.547Z" fill="#FFC000"/>
<path opacity="0.459748" fill-rule="evenodd" clip-rule="evenodd" d="M4878.53 99.6637C4887.24 99.6637 4894.29 92.6063 4894.29 83.9006C4894.29 75.1948 4887.24 68.1375 4878.53 68.1375C4869.82 68.1375 4862.77 75.1948 4862.77 83.9006C4862.77 92.6063 4869.82 99.6637 4878.53 99.6637Z" fill="#FFC000"/>
<path opacity="0.408855" fill-rule="evenodd" clip-rule="evenodd" d="M5001.08 40.679C5012.31 40.679 5021.42 31.5727 5021.42 20.3395C5021.42 9.1063 5012.31 0 5001.08 0C4989.84 0 4980.74 9.1063 4980.74 20.3395C4980.74 31.5727 4989.84 40.679 5001.08 40.679Z" fill="#FFC000"/>
<path opacity="0.35813" fill-rule="evenodd" clip-rule="evenodd" d="M5120.06 122.038C5128.49 122.038 5135.32 115.208 5135.32 106.783C5135.32 98.358 5128.49 91.5283 5120.06 91.5283C5111.64 91.5283 5104.81 98.358 5104.81 106.783C5104.81 115.208 5111.64 122.038 5120.06 122.038Z" fill="#5C5C5C"/>
<path opacity="0.35813" fill-rule="evenodd" clip-rule="evenodd" d="M5288.88 114.917C5297.3 114.917 5304.13 108.088 5304.13 99.6628C5304.13 91.2379 5297.3 84.4082 5288.88 84.4082C5280.45 84.4082 5273.63 91.2379 5273.63 99.6628C5273.63 108.088 5280.45 114.917 5288.88 114.917Z" fill="#6D4EDA"/>
<path fill-rule="evenodd" clip-rule="evenodd" d="M4160.04 95.5951C4166.22 95.5951 4171.23 90.5867 4171.23 84.4084C4171.23 78.2301 4166.22 73.2217 4160.04 73.2217C4153.86 73.2217 4148.85 78.2301 4148.85 84.4084C4148.85 90.5867 4153.86 95.5951 4160.04 95.5951Z" fill="#FFD34F"/>
<g style="mix-blend-mode:darken" opacity="0.578656">
<path fill-rule="evenodd" clip-rule="evenodd" d="M4631.91 141.359C4638.65 141.359 4644.12 135.895 4644.12 129.155C4644.12 122.415 4638.65 116.952 4631.91 116.952C4625.17 116.952 4619.71 122.415 4619.71 129.155C4619.71 135.895 4625.17 141.359 4631.91 141.359Z" fill="#E86202"/>
</g>
<g style="mix-blend-mode:darken" opacity="0.191746">
<path fill-rule="evenodd" clip-rule="evenodd" d="M4791.07 183.055C4795.28 183.055 4798.7 179.64 4798.7 175.428C4798.7 171.215 4795.28 167.801 4791.07 167.801C4786.86 167.801 4783.44 171.215 4783.44 175.428C4783.44 179.64 4786.86 183.055 4791.07 183.055Z" fill="#5C5C5C"/>
</g>
<g style="mix-blend-mode:darken" opacity="0.691758">
<path fill-rule="evenodd" clip-rule="evenodd" d="M4513.44 221.7C4526.07 221.7 4536.32 211.456 4536.32 198.818C4536.32 186.181 4526.07 175.937 4513.44 175.937C4500.8 175.937 4490.56 186.181 4490.56 198.818C4490.56 211.456 4500.8 221.7 4513.44 221.7Z" fill="#FFC000"/>
</g>
<path opacity="0.35813" fill-rule="evenodd" clip-rule="evenodd" d="M4834.29 108.816C4841.03 108.816 4846.5 103.352 4846.5 96.6119C4846.5 89.872 4841.03 84.4082 4834.29 84.4082C4827.55 84.4082 4822.09 89.872 4822.09 96.6119C4822.09 103.352 4827.55 108.816 4834.29 108.816Z" fill="#EA550F"/>
<path opacity="0.628855" fill-rule="evenodd" clip-rule="evenodd" d="M4925.82 160.682C4932.56 160.682 4938.02 155.219 4938.02 148.479C4938.02 141.739 4932.56 136.275 4925.82 136.275C4919.08 136.275 4913.62 141.739 4913.62 148.479C4913.62 155.219 4919.08 160.682 4925.82 160.682Z" fill="#E86202"/>
<path opacity="0.35813" fill-rule="evenodd" clip-rule="evenodd" d="M5045.82 157.631C5052.56 157.631 5058.03 152.167 5058.03 145.427C5058.03 138.687 5052.56 133.223 5045.82 133.223C5039.08 133.223 5033.62 138.687 5033.62 145.427C5033.62 152.167 5039.08 157.631 5045.82 157.631Z" fill="#EA550F"/>
<path opacity="0.660272" fill-rule="evenodd" clip-rule="evenodd" d="M5246.17 155.597C5252.91 155.597 5258.37 150.133 5258.37 143.393C5258.37 136.653 5252.91 131.19 5246.17 131.19C5239.43 131.19 5233.96 136.653 5233.96 143.393C5233.96 150.133 5239.43 155.597 5246.17 155.597Z" fill="#9F47D0"/>
<path opacity="0.215127" fill-rule="evenodd" clip-rule="evenodd" d="M4082.75 157.631C4089.49 157.631 4094.95 152.167 4094.95 145.427C4094.95 138.687 4089.49 133.223 4082.75 133.223C4076.01 133.223 4070.54 138.687 4070.54 145.427C4070.54 152.167 4076.01 157.631 4082.75 157.631Z" fill="#5C5C5C"/>
</svg>
