<svg width="24" height="24" viewBox="0 0 24 24" fill="none" xmlns="http://www.w3.org/2000/svg">
<path fill-rule="evenodd" clip-rule="evenodd" d="M3.85002 12C3.85002 7.4989 7.4989 3.85002 12 3.85002C16.5011 3.85002 20.15 7.4989 20.15 12C20.15 12.9508 20.0239 13.7633 19.7027 14.3157C19.4285 14.7873 18.97 15.15 18 15.15C17.6234 15.15 17.3617 15.0071 17.1807 14.7928C16.9878 14.5642 16.85 14.2065 16.85 13.7503L16.85 12V8.00002C16.85 7.53058 16.4695 7.15002 16 7.15002C15.5306 7.15002 15.15 7.53058 15.15 8.00002V8.31209C14.3026 7.58755 13.2024 7.15002 12 7.15002C9.32144 7.15002 7.15002 9.32144 7.15002 12C7.15002 14.6786 9.32144 16.85 12 16.85C13.3843 16.85 14.6332 16.27 15.5169 15.3398C15.6173 15.5356 15.7388 15.7202 15.8818 15.8895C16.3883 16.4894 17.1266 16.85 18 16.85C19.53 16.85 20.5716 16.2034 21.1723 15.1702C21.7261 14.2179 21.85 13.0304 21.85 12C21.85 6.56002 17.44 2.15002 12 2.15002C6.56002 2.15002 2.15002 6.56002 2.15002 12C2.15002 17.44 6.56002 21.85 12 21.85C13.571 21.85 15.0584 21.4816 16.3783 20.8257C16.7987 20.6168 16.9701 20.1066 16.7612 19.6862C16.5523 19.2658 16.0421 19.0944 15.6217 19.3033C14.5317 19.845 13.3027 20.15 12 20.15C7.4989 20.15 3.85002 16.5011 3.85002 12ZM15.15 12C15.15 10.2603 13.7397 8.85002 12 8.85002C10.2603 8.85002 8.85002 10.2603 8.85002 12C8.85002 13.7397 10.2603 15.15 12 15.15C13.7397 15.15 15.15 13.7397 15.15 12Z" fill="#374151"/>
</svg>
