<svg width="24" height="24" viewBox="0 0 24 24" fill="none" xmlns="http://www.w3.org/2000/svg">
<path fill-rule="evenodd" clip-rule="evenodd" d="M9.72078 3.85002C9.65622 3.85002 9.5989 3.89134 9.57848 3.95259L9.17934 5.15002H14.8207L14.4216 3.95259C14.4012 3.89134 14.3438 3.85002 14.2793 3.85002H9.72078ZM16.6127 5.15002L16.0343 3.415C15.7825 2.65957 15.0756 2.15002 14.2793 2.15002H9.72078C8.92449 2.15002 8.21753 2.65957 7.96572 3.415L7.38738 5.15002H5.00002H3.00002C2.53058 5.15002 2.15002 5.53058 2.15002 6.00002C2.15002 6.46947 2.53058 6.85002 3.00002 6.85002H4.2048L4.96521 18.2561C5.10004 20.2785 6.7798 21.85 8.80668 21.85H15.1934C17.2203 21.85 18.9 20.2785 19.0348 18.2561L19.7952 6.85002H21C21.4695 6.85002 21.85 6.46947 21.85 6.00002C21.85 5.53058 21.4695 5.15002 21 5.15002H19H16.6127ZM18.0915 6.85002H16H8.00002H5.90858L6.66145 18.143C6.73674 19.2724 7.67479 20.15 8.80668 20.15H15.1934C16.3253 20.15 17.2633 19.2724 17.3386 18.143L18.0915 6.85002Z" fill="#374151"/>
</svg>
