<svg width="24" height="24" viewBox="0 0 24 24" fill="none" xmlns="http://www.w3.org/2000/svg">
<path fill-rule="evenodd" clip-rule="evenodd" d="M9.76416 2.15002L9.80002 2.15002H14.2L14.2359 2.15002C15.0455 2.15002 15.7046 2.15001 16.2396 2.19372C16.7925 2.23889 17.2872 2.33493 17.7479 2.56965C18.4723 2.93876 19.0613 3.52774 19.4304 4.25216C19.6651 4.71283 19.7612 5.20759 19.8063 5.76041C19.85 6.29544 19.85 6.95454 19.85 7.76417V7.80002V21C19.85 21.303 19.6887 21.5831 19.4267 21.7352C19.1646 21.8873 18.8414 21.8884 18.5783 21.738L13.166 18.6453C12.538 18.2864 12.3828 18.2089 12.2371 18.1782C12.0808 18.1453 11.9193 18.1453 11.7629 18.1782C11.6172 18.2089 11.462 18.2864 10.8341 18.6453L5.42174 21.738C5.15867 21.8884 4.83545 21.8873 4.57339 21.7352C4.31132 21.5831 4.15002 21.303 4.15002 21V7.80002L4.15002 7.76416C4.15002 6.95453 4.15001 6.29543 4.19372 5.76041C4.23889 5.20759 4.33493 4.71283 4.56965 4.25216C4.93876 3.52774 5.52774 2.93876 6.25216 2.56965C6.71283 2.33493 7.20759 2.23889 7.76041 2.19372C8.29543 2.15001 8.95453 2.15002 9.76416 2.15002ZM7.89885 3.88807C7.45116 3.92465 7.20502 3.9921 7.02395 4.08436C6.6194 4.29049 6.29049 4.6194 6.08436 5.02395C5.9921 5.20502 5.92465 5.45116 5.88807 5.89885C5.85069 6.35646 5.85002 6.94592 5.85002 7.80002V19.5353L9.99066 17.1692C10.0219 17.1514 10.0528 17.1337 10.0833 17.1162C10.5702 16.8374 10.9712 16.6077 11.4124 16.5148C11.7999 16.4331 12.2001 16.4331 12.5876 16.5148C13.0288 16.6077 13.4298 16.8374 13.9168 17.1162C13.9473 17.1337 13.9782 17.1514 14.0094 17.1692L18.15 19.5353V7.80002C18.15 6.94592 18.1494 6.35646 18.112 5.89885C18.0754 5.45116 18.0079 5.20502 17.9157 5.02395C17.7096 4.6194 17.3807 4.29049 16.9761 4.08436C16.795 3.9921 16.5489 3.92465 16.1012 3.88807C15.6436 3.85069 15.0541 3.85002 14.2 3.85002H9.80002C8.94592 3.85002 8.35646 3.85069 7.89885 3.88807Z" fill="#374151"/>
</svg>
