<svg width="24" height="24" viewBox="0 0 24 24" fill="none" xmlns="http://www.w3.org/2000/svg">
<path fill-rule="evenodd" clip-rule="evenodd" d="M11.651 1.15005L11.5488 1.15004C10.6684 1.14985 10.0842 1.14972 9.52467 1.28406C9.02979 1.40287 8.5567 1.59883 8.12276 1.86475C7.6321 2.16543 7.2191 2.57861 6.59671 3.20127L6.5967 3.20127L6.52447 3.27353L5.66439 4.1336C5.65386 4.14414 5.63957 4.15005 5.62468 4.15005C3.15339 4.15006 1.15002 6.15343 1.15002 8.62471L1.15003 14.6001L1.15003 14.637C1.15002 15.7258 1.15001 16.5947 1.20735 17.2965C1.26614 18.016 1.38943 18.6343 1.67864 19.2019C2.14363 20.1145 2.88559 20.8565 3.79817 21.3214C4.36579 21.6107 4.98404 21.7339 5.70362 21.7927C6.40535 21.8501 7.27432 21.8501 8.3631 21.8501H8.40003H15.6H15.637C16.7257 21.8501 17.5947 21.8501 18.2964 21.7927C19.016 21.7339 19.6343 21.6107 20.2019 21.3214C21.1145 20.8564 21.8564 20.1145 22.3214 19.2019C22.6106 18.6343 22.7339 18.016 22.7927 17.2965C22.85 16.5947 22.85 15.7258 22.85 14.637V14.6001L22.85 8.62471C22.85 6.15342 20.8467 4.15005 18.3754 4.15005C18.3605 4.15005 18.3462 4.14414 18.3357 4.1336L17.4756 3.27353L17.4033 3.20127C16.781 2.57861 16.3679 2.16542 15.8773 1.86475C15.4433 1.59883 14.9703 1.40287 14.4754 1.28406C13.9158 1.14972 13.3316 1.14985 12.4512 1.15004L12.3491 1.15005L11.651 1.15005ZM9.92153 2.93709C10.2613 2.85552 10.6322 2.85005 11.651 2.85005L12.3491 2.85005C13.3679 2.85005 13.7388 2.85552 14.0785 2.93709C14.3999 3.01425 14.7072 3.14153 14.989 3.31424C15.287 3.49681 15.5531 3.7552 16.2735 4.47561L17.1336 5.33568C17.4629 5.66503 17.9096 5.85005 18.3754 5.85005C19.9078 5.85005 21.15 7.09231 21.15 8.62471L21.15 14.6001C21.15 15.7342 21.1494 16.5337 21.0984 17.158C21.0482 17.7725 20.9535 18.1421 20.8067 18.4301C20.5047 19.0228 20.0228 19.5047 19.4301 19.8067C19.1421 19.9535 18.7724 20.0482 18.158 20.0984C17.5336 20.1494 16.7342 20.1501 15.6 20.1501H8.40003C7.2659 20.1501 6.46642 20.1494 5.84205 20.0984C5.22761 20.0482 4.85798 19.9535 4.56996 19.8067C3.97725 19.5047 3.49536 19.0228 3.19336 18.4301C3.0466 18.1421 2.9519 17.7725 2.9017 17.158C2.85069 16.5337 2.85003 15.7342 2.85003 14.6001L2.85002 8.62471C2.85002 7.09231 4.09228 5.85005 5.62468 5.85005C6.09044 5.85005 6.53713 5.66503 6.86647 5.33569L7.72655 4.47561C8.44696 3.7552 8.71307 3.49681 9.01101 3.31424C9.29284 3.14153 9.60011 3.01425 9.92153 2.93709ZM8.85002 12.0001C8.85002 10.2604 10.2603 8.85005 12 8.85005C13.7397 8.85005 15.15 10.2604 15.15 12.0001C15.15 13.7397 13.7397 15.1501 12 15.1501C10.2603 15.1501 8.85002 13.7398 8.85002 12.0001ZM12 7.15005C9.32144 7.15005 7.15002 9.32147 7.15002 12.0001C7.15002 14.6786 9.32144 16.8501 12 16.8501C14.6786 16.8501 16.85 14.6786 16.85 12.0001C16.85 9.32147 14.6786 7.15005 12 7.15005Z" fill="#374151"/>
</svg>
