<svg width="24" height="24" viewBox="0 0 24 24" fill="none" xmlns="http://www.w3.org/2000/svg">
<path fill-rule="evenodd" clip-rule="evenodd" d="M5.85002 11C5.85002 7.60347 8.60347 4.85002 12 4.85002C14.8911 4.85002 17.3181 6.84567 17.9748 9.53562C18.0408 9.80588 18.2348 10.0268 18.4944 10.127C20.0493 10.7274 21.15 12.2362 21.15 14C21.15 16.292 19.292 18.15 17 18.15H6.00002C4.26033 18.15 2.85002 16.7397 2.85002 15C2.85002 13.5331 3.85353 12.2984 5.21276 11.949C5.59389 11.851 5.85793 11.5042 5.851 11.1108C5.85035 11.074 5.85002 11.037 5.85002 11ZM12 3.15002C7.82936 3.15002 4.41835 6.40252 4.16511 10.5094C2.3966 11.2329 1.15002 12.97 1.15002 15C1.15002 17.6786 3.32144 19.85 6.00002 19.85H17C20.2309 19.85 22.85 17.2309 22.85 14C22.85 11.6672 21.4848 9.65502 19.5122 8.71564C18.5338 5.49475 15.5417 3.15002 12 3.15002ZM11.6011 15.6011L15.6011 11.6011C15.933 11.2691 15.933 10.7309 15.6011 10.399C15.2691 10.067 14.7309 10.067 14.399 10.399L11 13.7979L10.1011 12.899C9.76912 12.567 9.23093 12.567 8.89898 12.899C8.56704 13.2309 8.56704 13.7691 8.89898 14.1011L10.399 15.6011C10.5584 15.7605 10.7746 15.85 11 15.85C11.2255 15.85 11.4417 15.7605 11.6011 15.6011Z" fill="#374151"/>
</svg>
