<svg width="24" height="24" viewBox="0 0 24 24" fill="none" xmlns="http://www.w3.org/2000/svg">
<path fill-rule="evenodd" clip-rule="evenodd" d="M5.85002 9.00002C5.85002 5.60347 8.60347 2.85002 12 2.85002C14.8911 2.85002 17.3181 4.84567 17.9748 7.53562C18.0408 7.80588 18.2348 8.02675 18.4944 8.12696C20.0493 8.7274 21.15 10.2362 21.15 12C21.15 13.3572 20.4994 14.5622 19.4895 15.3208C19.1142 15.6027 19.0385 16.1355 19.3204 16.5109C19.6023 16.8862 20.1352 16.962 20.5105 16.68C21.9295 15.6142 22.85 13.9145 22.85 12C22.85 9.66717 21.4848 7.65502 19.5122 6.71564C18.5338 3.49475 15.5417 1.15002 12 1.15002C7.82936 1.15002 4.41835 4.40252 4.16511 8.50942C2.3966 9.23285 1.15002 10.97 1.15002 13C1.15002 14.7963 2.12696 16.3634 3.57441 17.2007C3.98076 17.4357 4.50073 17.2969 4.73579 16.8905C4.97085 16.4842 4.83199 15.9642 4.42564 15.7291C3.48189 15.1832 2.85002 14.1649 2.85002 13C2.85002 11.5331 3.85353 10.2984 5.21276 9.94899C5.59389 9.85101 5.85793 9.50424 5.851 9.11079C5.85035 9.07395 5.85002 9.03703 5.85002 9.00002ZM16.1011 14.899L12.6011 11.399C12.2691 11.067 11.7309 11.067 11.399 11.399L7.89898 14.899C7.56704 15.2309 7.56704 15.7691 7.89898 16.1011C8.23093 16.433 8.76912 16.433 9.10107 16.1011L11.15 14.0521V21C11.15 21.4695 11.5306 21.85 12 21.85C12.4695 21.85 12.85 21.4695 12.85 21V14.0521L14.899 16.1011C15.2309 16.433 15.7691 16.433 16.1011 16.1011C16.433 15.7691 16.433 15.2309 16.1011 14.899Z" fill="#374151"/>
</svg>
