<svg width="24" height="24" viewBox="0 0 24 24" fill="none" xmlns="http://www.w3.org/2000/svg">
<path fill-rule="evenodd" clip-rule="evenodd" d="M18.7735 3.97757C18.3348 3.57884 17.665 3.57883 17.2264 3.97755C17.2099 3.99254 17.1875 4.01454 17.101 4.10109L16.8229 4.37917C16.8223 5.36741 17.6324 6.17759 18.6206 6.1772L18.8988 5.89896C18.9854 5.81241 19.0074 5.79006 19.0224 5.77357C19.4211 5.33496 19.4211 4.66514 19.0224 4.22652C19.0074 4.21002 18.9854 4.18768 18.8989 4.10112C18.8123 4.01457 18.7899 3.99256 18.7735 3.97757ZM17.2152 7.5826C16.4157 7.22941 15.7705 6.58422 15.4174 5.78466L9.85436 11.3476C9.3689 11.8331 9.19409 12.0115 9.05396 12.2064C8.92134 12.3909 8.80907 12.5892 8.71911 12.7978C8.62406 13.0183 8.56099 13.26 8.39448 13.926L8.16802 14.8319L9.07389 14.6054C9.73991 14.4389 9.98162 14.3758 10.2021 14.2808C10.4107 14.1908 10.609 14.0785 10.7935 13.9459C10.9884 13.8058 11.1668 13.631 11.6523 13.1455L17.2152 7.5826ZM16.0829 2.71959C17.1699 1.73147 18.83 1.73149 19.917 2.71964C19.9676 2.76569 20.0212 2.81925 20.0876 2.88572L20.101 2.89907L20.1144 2.91247L20.1144 2.91255L20.1145 2.91266C20.1809 2.97899 20.2344 3.03246 20.2804 3.08305C21.2684 4.17008 21.2684 5.83006 20.2803 6.91706C20.2343 6.96769 20.1808 7.02119 20.1144 7.08757L20.1143 7.08764L20.1143 7.08769L20.1009 7.10104L12.8543 14.3476L12.8062 14.3958L12.8062 14.3958C12.3857 14.8164 12.1064 15.0957 11.7857 15.3263C11.5017 15.5305 11.1964 15.7033 10.8752 15.8418C10.5125 15.9982 10.1293 16.0939 9.5523 16.2381L9.4862 16.2546L7.20597 16.8247C6.91631 16.8971 6.60989 16.8122 6.39877 16.6011C6.18765 16.39 6.10277 16.0836 6.17519 15.7939L6.74524 13.5137L6.76176 13.4476L6.76176 13.4476C6.90593 12.8706 7.00166 12.4874 7.15805 12.1247C7.29656 11.8035 7.46942 11.4982 7.67361 11.2141C7.90416 10.8934 8.18347 10.6142 8.60411 10.1937L8.65228 10.1455L15.8989 2.89901L15.9123 2.88563C15.9787 2.81918 16.0322 2.76563 16.0829 2.71959ZM3.15002 21.0001C3.15002 20.5306 3.53058 20.1501 4.00002 20.1501H20C20.4695 20.1501 20.85 20.5306 20.85 21.0001C20.85 21.4695 20.4695 21.8501 20 21.8501H4.00002C3.53058 21.8501 3.15002 21.4695 3.15002 21.0001Z" fill="#374151"/>
</svg>
