<svg width="24" height="24" viewBox="0 0 24 24" fill="none" xmlns="http://www.w3.org/2000/svg">
<path fill-rule="evenodd" clip-rule="evenodd" d="M11.85 1C5.85771 1 1 5.85771 1 11.85C1 17.8423 5.85771 22.7 11.85 22.7C17.8423 22.7 22.7 17.8423 22.7 11.85C22.7 5.85771 17.8423 1 11.85 1ZM2.7 11.85C2.7 6.79659 6.79659 2.7 11.85 2.7C16.9034 2.7 21 6.79659 21 11.85C21 16.9034 16.9034 21 11.85 21C6.79659 21 2.7 16.9034 2.7 11.85ZM6.85 13C6.57959 13 6.32532 13.1287 6.16515 13.3465C6.00498 13.5644 5.95804 13.8455 6.0387 14.1036L6.85 13.85C6.0387 14.1036 6.03881 14.1039 6.03893 14.1043L6.03919 14.1051L6.03979 14.107L6.04136 14.1119L6.04596 14.1261C6.04968 14.1375 6.05473 14.1526 6.06113 14.1713C6.07394 14.2085 6.09224 14.2599 6.11635 14.3235C6.16451 14.4504 6.23623 14.6266 6.3343 14.8358C6.52945 15.2521 6.8343 15.8105 7.27401 16.3733C8.15537 17.5014 9.62819 18.7 11.85 18.7C14.0718 18.7 15.5446 17.5014 16.426 16.3733C16.8657 15.8105 17.1705 15.2521 17.3657 14.8358C17.4638 14.6266 17.5355 14.4504 17.5837 14.3235C17.6078 14.2599 17.6261 14.2085 17.6389 14.1713C17.6453 14.1526 17.6503 14.1375 17.654 14.1261L17.6586 14.1119L17.6602 14.107L17.6608 14.1051L17.6611 14.1043C17.6612 14.1039 17.6613 14.1036 16.85 13.85L17.6613 14.1036C17.742 13.8455 17.695 13.5644 17.5348 13.3465C17.3747 13.1287 17.1204 13 16.85 13H6.85ZM8.61363 15.3267C8.44789 15.1146 8.30558 14.9014 8.18511 14.7H15.5149C15.3944 14.9014 15.2521 15.1146 15.0864 15.3267C14.4052 16.1986 13.378 17 11.85 17C10.322 17 9.29482 16.1986 8.61363 15.3267ZM9.85 8.85C9.85 9.40228 9.40228 9.85 8.85 9.85C8.29772 9.85 7.85 9.40228 7.85 8.85C7.85 8.29772 8.29772 7.85 8.85 7.85C9.40228 7.85 9.85 8.29772 9.85 8.85ZM14.85 9.85C15.4023 9.85 15.85 9.40228 15.85 8.85C15.85 8.29772 15.4023 7.85 14.85 7.85C14.2977 7.85 13.85 8.29772 13.85 8.85C13.85 9.40228 14.2977 9.85 14.85 9.85Z" fill="#374151"/>
</svg>
