<svg width="24" height="24" viewBox="0 0 24 24" fill="none" xmlns="http://www.w3.org/2000/svg">
<path fill-rule="evenodd" clip-rule="evenodd" d="M2.85002 12C2.85002 11.6832 2.9789 11.1332 3.33203 10.4552C3.67722 9.79239 4.21089 9.0583 4.95156 8.37461C6.42272 7.01661 8.71799 5.85002 12 5.85002C15.2821 5.85002 17.5773 7.01661 19.0485 8.37461C19.7892 9.0583 20.3228 9.79239 20.668 10.4552C21.0212 11.1332 21.15 11.6832 21.15 12C21.15 12.3169 21.0212 12.8669 20.668 13.5449C20.3228 14.2077 19.7892 14.9417 19.0485 15.6254C17.5773 16.9834 15.2821 18.15 12 18.15C8.71799 18.15 6.42272 16.9834 4.95156 15.6254C4.21089 14.9417 3.67722 14.2077 3.33203 13.5449C2.9789 12.8669 2.85002 12.3169 2.85002 12ZM12 4.15002C8.28206 4.15002 5.57733 5.48343 3.79849 7.12544C2.91416 7.94175 2.26033 8.83266 1.82427 9.66988C1.39615 10.4919 1.15002 11.3169 1.15002 12C1.15002 12.6832 1.39615 13.5082 1.82427 14.3302C2.26033 15.1674 2.91416 16.0583 3.79849 16.8746C5.57733 18.5166 8.28206 19.85 12 19.85C15.718 19.85 18.4227 18.5166 20.2016 16.8746C21.0859 16.0583 21.7397 15.1674 22.1758 14.3302C22.6039 13.5082 22.85 12.6832 22.85 12C22.85 11.3169 22.6039 10.4919 22.1758 9.66988C21.7397 8.83266 21.0859 7.94175 20.2016 7.12544C18.4227 5.48343 15.718 4.15002 12 4.15002ZM9.84993 12C9.84993 10.8126 10.8125 9.85005 11.9999 9.85005C13.1873 9.85005 14.1499 10.8126 14.1499 12C14.1499 13.1875 13.1873 14.15 11.9999 14.15C10.8125 14.15 9.84993 13.1875 9.84993 12ZM11.9999 8.15005C9.87363 8.15005 8.14993 9.87375 8.14993 12C8.14993 14.1263 9.87363 15.85 11.9999 15.85C14.1262 15.85 15.8499 14.1263 15.8499 12C15.8499 9.87375 14.1262 8.15005 11.9999 8.15005Z" fill="#374151"/>
</svg>
