<svg width="24" height="24" viewBox="0 0 24 24" fill="none" xmlns="http://www.w3.org/2000/svg">
<path fill-rule="evenodd" clip-rule="evenodd" d="M7.76416 2.15002L7.80002 2.15002H8.00002C8.46947 2.15002 8.85002 2.53058 8.85002 3.00002C8.85002 3.46947 8.46947 3.85002 8.00002 3.85002H7.80002C6.94592 3.85002 6.35646 3.85069 5.89885 3.88807C5.45116 3.92465 5.20502 3.9921 5.02395 4.08436C4.6194 4.29049 4.29049 4.6194 4.08436 5.02395C3.9921 5.20502 3.92465 5.45116 3.88807 5.89885C3.85069 6.35646 3.85002 6.94592 3.85002 7.80002V8.00002C3.85002 8.46947 3.46947 8.85002 3.00002 8.85002C2.53058 8.85002 2.15002 8.46947 2.15002 8.00002V7.80002L2.15002 7.76416C2.15002 6.95453 2.15001 6.29543 2.19372 5.76041C2.23889 5.20759 2.33493 4.71283 2.56965 4.25216C2.93876 3.52774 3.52774 2.93876 4.25216 2.56965C4.71283 2.33493 5.20759 2.23889 5.76041 2.19372C6.29543 2.15001 6.95453 2.15002 7.76416 2.15002ZM18.1012 3.88807C17.6436 3.85069 17.0541 3.85002 16.2 3.85002H16C15.5306 3.85002 15.15 3.46947 15.15 3.00002C15.15 2.53058 15.5306 2.15002 16 2.15002H16.2L16.2359 2.15002C17.0455 2.15002 17.7046 2.15001 18.2396 2.19372C18.7925 2.23889 19.2872 2.33493 19.7479 2.56965C20.4723 2.93876 21.0613 3.52774 21.4304 4.25216C21.6651 4.71283 21.7612 5.20759 21.8063 5.76041C21.85 6.29545 21.85 6.95457 21.85 7.76422V7.80002V8.00002C21.85 8.46947 21.4695 8.85002 21 8.85002C20.5306 8.85002 20.15 8.46947 20.15 8.00002V7.80002C20.15 6.94592 20.1494 6.35646 20.112 5.89885C20.0754 5.45116 20.0079 5.20502 19.9157 5.02395C19.7096 4.6194 19.3807 4.29049 18.9761 4.08436C18.795 3.9921 18.5489 3.92465 18.1012 3.88807ZM3.00002 15.15C3.46947 15.15 3.85002 15.5306 3.85002 16V16.2C3.85002 17.0541 3.85069 17.6436 3.88807 18.1012C3.92465 18.5489 3.9921 18.795 4.08436 18.9761C4.29049 19.3807 4.6194 19.7096 5.02395 19.9157C5.20502 20.0079 5.45116 20.0754 5.89885 20.112C6.35646 20.1494 6.94592 20.15 7.80002 20.15H8.00002C8.46947 20.15 8.85002 20.5306 8.85002 21C8.85002 21.4695 8.46947 21.85 8.00002 21.85H7.80002H7.76422C6.95457 21.85 6.29545 21.85 5.76041 21.8063C5.20759 21.7612 4.71283 21.6651 4.25216 21.4304C3.52774 21.0613 2.93876 20.4723 2.56965 19.7479C2.33493 19.2872 2.23889 18.7925 2.19372 18.2396C2.15001 17.7046 2.15002 17.0455 2.15002 16.2359L2.15002 16.2V16C2.15002 15.5306 2.53058 15.15 3.00002 15.15ZM21 15.15C21.4695 15.15 21.85 15.5306 21.85 16V16.2V16.2358C21.85 17.0455 21.85 17.7046 21.8063 18.2396C21.7612 18.7925 21.6651 19.2872 21.4304 19.7479C21.0613 20.4723 20.4723 21.0613 19.7479 21.4304C19.2872 21.6651 18.7925 21.7612 18.2396 21.8063C17.7046 21.85 17.0455 21.85 16.2358 21.85H16.2H16C15.5306 21.85 15.15 21.4695 15.15 21C15.15 20.5306 15.5306 20.15 16 20.15H16.2C17.0541 20.15 17.6436 20.1494 18.1012 20.112C18.5489 20.0754 18.795 20.0079 18.9761 19.9157C19.3807 19.7096 19.7096 19.3807 19.9157 18.9761C20.0079 18.795 20.0754 18.5489 20.112 18.1012C20.1494 17.6436 20.15 17.0541 20.15 16.2V16C20.15 15.5306 20.5306 15.15 21 15.15ZM12 7.15002C12.4695 7.15002 12.85 7.53058 12.85 8.00002V12.0001C12.85 13.0218 12.0218 13.85 11.0001 13.85C10.5307 13.85 10.1501 13.4695 10.1501 13C10.1501 12.5306 10.5307 12.15 11.0001 12.15C11.0829 12.15 11.15 12.0829 11.15 12.0001V8.00002C11.15 7.53058 11.5306 7.15002 12 7.15002ZM8.85002 8.00002C8.85002 7.53058 8.46947 7.15002 8.00002 7.15002C7.53058 7.15002 7.15002 7.53058 7.15002 8.00002V9.50002C7.15002 9.96947 7.53058 10.35 8.00002 10.35C8.46947 10.35 8.85002 9.96947 8.85002 9.50002V8.00002ZM16 7.15002C16.4695 7.15002 16.85 7.53058 16.85 8.00002V9.50002C16.85 9.96947 16.4695 10.35 16 10.35C15.5306 10.35 15.15 9.96947 15.15 9.50002V8.00002C15.15 7.53058 15.5306 7.15002 16 7.15002ZM8.67966 14.4895C8.39772 14.1142 7.86488 14.0385 7.48953 14.3204C7.11418 14.6023 7.03846 15.1352 7.32039 15.5105C8.38623 16.9295 10.0859 17.85 12.0004 17.85C13.9148 17.85 15.6145 16.9295 16.6804 15.5105C16.9623 15.1352 16.8866 14.6023 16.5112 14.3204C16.1359 14.0385 15.6031 14.1142 15.3211 14.4895C14.5626 15.4994 13.3576 16.15 12.0004 16.15C10.6432 16.15 9.43823 15.4994 8.67966 14.4895Z" fill="#374151"/>
</svg>
