<svg width="24" height="24" viewBox="0 0 24 24" fill="none" xmlns="http://www.w3.org/2000/svg">
<path fill-rule="evenodd" clip-rule="evenodd" d="M13.25 3.75015C13.1764 3.74997 13.0972 3.74991 13.0118 3.74991H9.8C8.94755 3.74991 8.35331 3.75049 7.89068 3.78829C7.43681 3.82537 7.17604 3.89451 6.97852 3.99515C6.55516 4.21086 6.21095 4.55507 5.99524 4.97843C5.8946 5.17595 5.82547 5.43671 5.78838 5.89059C5.75058 6.35322 5.75 6.94746 5.75 7.79991V16.1999C5.75 17.0524 5.75058 17.6466 5.78838 18.1092C5.82547 18.5631 5.8946 18.8239 5.99524 19.0214C6.21095 19.4448 6.55516 19.789 6.97852 20.0047C7.17604 20.1053 7.43681 20.1744 7.89068 20.2115C8.35331 20.2493 8.94755 20.2499 9.8 20.2499H14.2C15.0525 20.2499 15.6467 20.2493 16.1093 20.2115C16.5632 20.1744 16.824 20.1053 17.0215 20.0047C17.4448 19.789 17.789 19.4448 18.0048 19.0214C18.1054 18.8239 18.1745 18.5631 18.2116 18.1092C18.2494 17.6466 18.25 17.0524 18.25 16.1999V8.98813C18.25 8.90273 18.2499 8.82357 18.2498 8.74999H17.2H17.1696C16.6354 8.75 16.1896 8.75001 15.8253 8.72025C15.4454 8.68922 15.0888 8.62211 14.7515 8.45026C14.2341 8.18661 13.8134 7.76591 13.5497 7.24847C13.3779 6.9112 13.3108 6.55455 13.2797 6.17466C13.25 5.81043 13.25 5.36458 13.25 4.83043V4.79999V3.75015ZM14.75 3.98071V4.79999C14.75 5.37242 14.7506 5.75664 14.7748 6.05252C14.7982 6.33964 14.8401 6.47692 14.8862 6.56748C15.0061 6.80268 15.1973 6.99391 15.4325 7.11375C15.5231 7.15989 15.6604 7.20178 15.9475 7.22524C16.2434 7.24941 16.6276 7.24999 17.2 7.24999H18.0192C17.9885 7.18752 17.9549 7.12643 17.9184 7.06693C17.7901 6.85747 17.6079 6.66845 17.0638 6.12435L15.8756 4.93613C15.3315 4.39203 15.1424 4.20983 14.933 4.08147C14.8735 4.04502 14.8124 4.01141 14.75 3.98071ZM13.0972 2.24989C13.7488 2.24971 14.1998 2.24957 14.6328 2.35352C15.0154 2.44539 15.3812 2.5969 15.7167 2.80251C16.0964 3.03517 16.4152 3.35417 16.8758 3.81502L16.8758 3.81503L16.9362 3.87547L18.1244 5.06369L18.1849 5.12412C18.6457 5.5847 18.9647 5.90352 19.1974 6.28318C19.403 6.6187 19.5545 6.98449 19.6464 7.36713C19.7503 7.8001 19.7502 8.25111 19.75 8.90266V8.90267L19.75 8.98813V16.1999V16.232C19.75 17.0449 19.75 17.7005 19.7066 18.2314C19.662 18.778 19.5676 19.2582 19.3413 19.7024C18.9817 20.408 18.4081 20.9817 17.7025 21.3412C17.2582 21.5675 16.7781 21.6619 16.2315 21.7065C15.7006 21.7499 15.045 21.7499 14.2321 21.7499H14.2H9.8H9.76788C8.95505 21.7499 8.29944 21.7499 7.76853 21.7065C7.2219 21.6619 6.74175 21.5675 6.29754 21.3412C5.59193 20.9817 5.01825 20.408 4.65873 19.7024C4.43239 19.2582 4.33803 18.778 4.29336 18.2314C4.24999 17.7005 4.24999 17.0449 4.25 16.232V16.232V16.1999V7.79991V7.7678V7.76779C4.24999 6.95496 4.24999 6.29935 4.29336 5.76844C4.33803 5.22181 4.43239 4.74166 4.65873 4.29745C5.01825 3.59184 5.59193 3.01816 6.29754 2.65864C6.74175 2.43229 7.2219 2.33794 7.76853 2.29327C8.29944 2.2499 8.95506 2.2499 9.7679 2.24991L9.8 2.24991H13.0118L13.0972 2.24989ZM12 10.25C12.4142 10.25 12.75 10.5858 12.75 11V15.1893L13.9697 13.9697C14.2626 13.6768 14.7374 13.6768 15.0303 13.9697C15.3232 14.2626 15.3232 14.7374 15.0303 15.0303L12.5303 17.5303C12.2374 17.8232 11.7626 17.8232 11.4697 17.5303L8.96967 15.0303C8.67678 14.7374 8.67678 14.2626 8.96967 13.9697C9.26256 13.6768 9.73744 13.6768 10.0303 13.9697L11.25 15.1893V11C11.25 10.5858 11.5858 10.25 12 10.25Z" fill="#374151"/>
</svg>
