<svg width="24" height="24" viewBox="0 0 24 24" fill="none" xmlns="http://www.w3.org/2000/svg">
<path fill-rule="evenodd" clip-rule="evenodd" d="M5.99985 2.14972L5.87466 2.14969C5.06631 2.14936 4.49522 2.14913 4.00339 2.28091C2.67479 2.63691 1.63703 3.67467 1.28103 5.00327C1.14925 5.4951 1.14948 6.06619 1.14981 6.87454L1.14985 6.99972V15.1997L1.14985 15.2356C1.14984 16.0452 1.14983 16.7043 1.19354 17.2393C1.23871 17.7922 1.33475 18.2869 1.56947 18.7476C1.93858 19.472 2.52756 20.061 3.25198 20.4301C3.71265 20.6648 4.20741 20.7609 4.76024 20.806C5.1002 20.8338 5.49027 20.8439 5.93722 20.8476C5.95796 20.8491 5.97883 20.8499 5.9998 20.8499H17.0647H17.0964C17.2183 20.8499 17.3361 20.8499 17.4502 20.8497H17.9998C18.0321 20.8497 18.0639 20.8479 18.0951 20.8444C18.344 20.8399 18.5704 20.8315 18.7765 20.8162C19.2482 20.7811 19.6727 20.7067 20.0822 20.5277C20.7323 20.2436 21.2912 19.7854 21.6973 19.2036C21.9531 18.8372 22.1094 18.4355 22.2363 17.9799C22.3583 17.5414 22.4666 17 22.5988 16.3392L22.605 16.308L23.0678 13.9942L23.0751 13.9574C23.2001 13.3327 23.3046 12.8101 23.3521 12.3808C23.4014 11.9357 23.4022 11.4977 23.2536 11.0681C23.0316 10.4265 22.5878 9.88511 22.0021 9.54158C21.643 9.33094 21.2523 9.24183 20.8464 9.19838C20.8381 8.72604 20.8103 8.34534 20.7186 8.00303C20.3626 6.67462 19.325 5.63701 17.9965 5.28097C17.5046 5.14913 16.9334 5.14936 16.1248 5.14969L15.9996 5.14972H12.9881C12.2138 5.14972 11.9653 5.14426 11.7406 5.09032C11.5212 5.03765 11.3115 4.95078 11.1191 4.8329C10.9221 4.71217 10.7425 4.54026 10.195 3.9928L9.84353 3.64132L9.79839 3.59617C9.48399 3.28162 9.25868 3.05619 9.00276 2.87243C8.52104 2.52653 7.96591 2.29659 7.38069 2.20055C7.0698 2.14952 6.75107 2.1496 6.30634 2.14971L6.24249 2.14972H5.99985ZM19.1443 9.14992C19.1365 8.78554 19.1182 8.59851 19.0766 8.44313C18.8777 7.70129 18.2983 7.12185 17.5564 6.92302C17.3102 6.85703 16.9845 6.84972 15.9996 6.84972H12.9881L12.8956 6.84975C12.251 6.84998 11.7886 6.85015 11.3437 6.74335C10.9509 6.64904 10.5753 6.49348 10.2309 6.28239C9.8408 6.04336 9.51389 5.71621 9.05833 5.26032L9.05832 5.26031L8.99292 5.19488L8.64145 4.84341C8.26395 4.46591 8.14048 4.34613 8.01122 4.25331C7.7422 4.06015 7.4322 3.93174 7.10539 3.87811C6.94836 3.85233 6.77635 3.84972 6.24249 3.84972H5.99985C5.01515 3.84972 4.68955 3.85703 4.44339 3.92298C3.70144 4.12179 3.12191 4.70132 2.92311 5.44326C2.85715 5.68942 2.84985 6.01503 2.84985 6.99972V15.1997C2.84985 16.0538 2.85051 16.6433 2.8879 17.1009C2.92447 17.5486 2.99192 17.7947 3.08418 17.9758C3.29031 18.3804 3.61922 18.7093 4.02377 18.9154C4.20484 19.0076 4.45098 19.0751 4.89867 19.1117C5.0237 19.1219 5.15856 19.1294 5.30598 19.1348L6.39458 13.6919L6.4008 13.6607C6.53296 12.9999 6.64124 12.4584 6.76334 12.02C6.89022 11.5643 7.04652 11.1626 7.30228 10.7962C7.70837 10.2145 8.26733 9.75623 8.91743 9.47211C9.32686 9.29318 9.75142 9.2187 10.2231 9.18364C10.677 9.1499 11.2292 9.14991 11.9031 9.14992L11.9349 9.14992H19.0964L19.1339 9.14992H19.134C19.1374 9.14992 19.1408 9.14992 19.1443 9.14992ZM17.4178 19.1497H14.9998H7.03667L8.06156 14.0253C8.20147 13.3257 8.29788 12.8464 8.40103 12.476C8.50131 12.1159 8.59315 11.917 8.69625 11.7693C8.92303 11.4444 9.23517 11.1885 9.59822 11.0298C9.76325 10.9577 9.97634 10.9067 10.3491 10.879C10.7326 10.8505 11.2215 10.8499 11.9349 10.8499H19.0964C19.7808 10.8499 20.2388 10.8507 20.5863 10.881C20.9263 10.9108 21.0655 10.9631 21.142 11.008C21.3783 11.1466 21.5574 11.365 21.647 11.6239C21.676 11.7078 21.7 11.8545 21.6624 12.1938C21.6241 12.5404 21.535 12.9897 21.4008 13.6608L20.938 15.9746C20.7981 16.6741 20.7017 17.1534 20.5986 17.5238C20.4983 17.8839 20.4064 18.0829 20.3033 18.2306C20.0766 18.5554 19.7644 18.8113 19.4014 18.97C19.2363 19.0421 19.0233 19.0932 18.6505 19.1209C18.3338 19.1444 17.9453 19.1489 17.4178 19.1497Z" fill="#374151"/>
</svg>
