<svg width="24" height="24" viewBox="0 0 24 24" fill="none" xmlns="http://www.w3.org/2000/svg">
<path fill-rule="evenodd" clip-rule="evenodd" d="M5.99997 2.14997L5.87479 2.14993C5.06643 2.1496 4.49534 2.14937 4.00352 2.28115C2.67491 2.63715 1.63715 3.67491 1.28115 5.00352C1.14937 5.49534 1.1496 6.06643 1.14993 6.87479L1.14997 6.99997V15.2L1.14997 15.2358C1.14996 16.0455 1.14995 16.7046 1.19366 17.2396C1.23883 17.7924 1.33487 18.2872 1.56959 18.7478C1.93871 19.4723 2.52768 20.0612 3.25211 20.4303C3.71277 20.6651 4.20754 20.7611 4.76036 20.8063C5.29539 20.85 5.95451 20.85 6.76416 20.85H6.79997H17.2H17.2358C18.0454 20.85 18.7045 20.85 19.2396 20.8063C19.7924 20.7611 20.2872 20.6651 20.7478 20.4303C21.4723 20.0612 22.0612 19.4723 22.4303 18.7478C22.6651 18.2872 22.7611 17.7924 22.8063 17.2396C22.85 16.7045 22.85 16.0454 22.85 15.2358V15.2V10.8V10.7642C22.85 9.95451 22.85 9.29539 22.8063 8.76036C22.7611 8.20754 22.6651 7.71277 22.4303 7.25211C22.0612 6.52768 21.4723 5.93871 20.7478 5.56959C20.2872 5.33487 19.7924 5.23883 19.2396 5.19366C18.7046 5.14995 18.0455 5.14996 17.2359 5.14997H17.2358L17.2 5.14997H14.9882C14.214 5.14997 13.9654 5.14451 13.7407 5.09056C13.5213 5.0379 13.3116 4.95103 13.1192 4.83315C12.9222 4.71241 12.7426 4.5405 12.1951 3.99304L12.0069 3.80482L11.9415 3.73938L11.9415 3.73937C11.4859 3.28348 11.159 2.95633 10.7689 2.7173C10.4245 2.50621 10.0489 2.35066 9.65609 2.25634C9.21125 2.14955 8.74877 2.14971 8.10426 2.14995L8.01174 2.14997H5.99997ZM4.44351 3.92323C4.68967 3.85727 5.01527 3.84997 5.99997 3.84997H8.01174C8.78597 3.84997 9.03455 3.85543 9.25924 3.90937C9.47861 3.96204 9.68833 4.04891 9.8807 4.16679C10.0777 4.28753 10.2574 4.45943 10.8048 5.0069L10.993 5.19512L11.0584 5.26056C11.514 5.71646 11.8409 6.0436 12.231 6.28263C12.5755 6.49372 12.951 6.64928 13.3438 6.74359C13.7887 6.85039 14.2512 6.85022 14.8957 6.84999H14.8957L14.9882 6.84997H17.2C18.0541 6.84997 18.6435 6.85063 19.1011 6.88802C19.5488 6.9246 19.795 6.99205 19.976 7.0843C20.3806 7.29043 20.7095 7.61934 20.9156 8.02389C21.0079 8.20496 21.0753 8.4511 21.1119 8.89879C21.1493 9.35641 21.15 9.94586 21.15 10.8V15.2C21.15 16.0541 21.1493 16.6435 21.1119 17.1011C21.0753 17.5488 21.0079 17.795 20.9156 17.976C20.7095 18.3806 20.3806 18.7095 19.976 18.9156C19.795 19.0079 19.5488 19.0753 19.1011 19.1119C18.6435 19.1493 18.0541 19.15 17.2 19.15H6.79997C5.94586 19.15 5.35641 19.1493 4.89879 19.1119C4.4511 19.0753 4.20496 19.0079 4.02389 18.9156C3.61934 18.7095 3.29043 18.3806 3.0843 17.976C2.99205 17.795 2.9246 17.5488 2.88802 17.1011C2.85063 16.6435 2.84997 16.0541 2.84997 15.2V6.99997C2.84997 6.01527 2.85727 5.68967 2.92323 5.44351C3.12203 4.70156 3.70156 4.12203 4.44351 3.92323ZM12.85 10.0001C12.85 9.53065 12.4694 9.15009 12 9.15009C11.5305 9.15009 11.15 9.53065 11.15 10.0001V13.948L10.101 12.899C9.76906 12.5671 9.23087 12.5671 8.89893 12.899C8.56698 13.231 8.56698 13.7692 8.89893 14.1011L11.3989 16.6011C11.7309 16.9331 12.2691 16.9331 12.601 16.6011L15.101 14.1011C15.433 13.7692 15.433 13.231 15.101 12.899C14.7691 12.5671 14.2309 12.5671 13.8989 12.899L12.85 13.948V10.0001Z" fill="#374151"/>
</svg>
