<svg width="24" height="24" viewBox="0 0 24 24" fill="none" xmlns="http://www.w3.org/2000/svg">
<path fill-rule="evenodd" clip-rule="evenodd" d="M10.3664 7.04504C8.84877 5.49287 6.35134 5.49287 4.83366 7.04504C3.36346 8.54865 3.36345 10.9513 4.83366 12.4549L11.9328 19.7154C11.9697 19.7531 12.0304 19.7531 12.0673 19.7154L19.1664 12.4549C20.6366 10.9513 20.6366 8.54865 19.1664 7.04504C17.6488 5.49287 15.1513 5.49287 13.6337 7.04504L12.6078 8.0942C12.4479 8.25776 12.2288 8.34995 12.0001 8.34995C11.7713 8.34995 11.5522 8.25776 11.3923 8.0942L10.3664 7.04504ZM3.61815 5.85654C5.80267 3.62237 9.39743 3.62237 11.582 5.85654L12.0001 6.28413L12.4181 5.85654C14.6027 3.62237 18.1974 3.62237 20.382 5.85654C22.4981 8.02082 22.4981 11.4791 20.382 13.6434L13.2828 20.9039C12.5791 21.6236 11.421 21.6236 10.7173 20.9039L3.61814 13.6434C1.50196 11.4791 1.50196 8.02082 3.61815 5.85654Z" fill="#374151"/>
</svg>
