<svg width="24" height="24" viewBox="0 0 24 24" fill="none" xmlns="http://www.w3.org/2000/svg">
<path fill-rule="evenodd" clip-rule="evenodd" d="M11.6447 3.73468C11.8756 3.65963 12.1244 3.65963 12.3554 3.73468C12.4345 3.76038 12.5497 3.81869 12.7645 4.00111C12.987 4.18998 13.2558 4.45781 13.6617 4.86375L18.15 9.35205V16.2C18.15 17.0541 18.1494 17.6435 18.112 18.1011C18.0754 18.5488 18.0079 18.795 17.9157 18.976C17.7096 19.3806 17.3807 19.7095 16.9761 19.9156C16.795 20.0079 16.5489 20.0753 16.1012 20.1119C15.6436 20.1493 15.0541 20.15 14.2 20.15H9.80003C8.94592 20.15 8.35646 20.1493 7.89885 20.1119C7.45116 20.0753 7.20501 20.0079 7.02394 19.9156C6.6194 19.7095 6.29049 19.3806 6.08436 18.976C5.9921 18.795 5.92465 18.5488 5.88807 18.1011C5.85069 17.6435 5.85002 17.0541 5.85002 16.2V9.35205L10.3383 4.86375C10.7443 4.45781 11.013 4.18998 11.2355 4.00111C11.4504 3.81869 11.5655 3.76038 11.6447 3.73468ZM4.39839 8.39952L1.39898 11.3989C1.06704 11.7309 1.06704 12.2691 1.39898 12.601C1.73093 12.933 2.26912 12.933 2.60107 12.601L4.15002 11.052V16.2L4.15002 16.2358V16.2358C4.15001 17.0455 4.15001 17.7046 4.19372 18.2396C4.23889 18.7924 4.33493 19.2872 4.56965 19.7478C4.93876 20.4723 5.52774 21.0612 6.25216 21.4303C6.71283 21.6651 7.20759 21.7611 7.76041 21.8063C8.29543 21.85 8.95454 21.85 9.76417 21.85H9.80003H14.2H14.2359C15.0455 21.85 15.7046 21.85 16.2396 21.8063C16.7925 21.7611 17.2872 21.6651 17.7479 21.4303C18.4723 21.0612 19.0613 20.4723 19.4304 19.7478C19.6651 19.2872 19.7612 18.7924 19.8063 18.2396C19.85 17.7046 19.85 17.0455 19.85 16.2358V16.2V11.052L21.399 12.601C21.7309 12.933 22.2691 12.933 22.6011 12.601C22.933 12.2691 22.933 11.7309 22.6011 11.3989L19.6012 8.39909C19.6011 8.39898 19.601 8.39887 19.6009 8.39876L14.8638 3.66167L14.8399 3.63778L14.8399 3.63774C14.4642 3.26208 14.1465 2.94432 13.8647 2.70513C13.5695 2.45445 13.2583 2.24056 12.8807 2.11788C12.3083 1.9319 11.6917 1.9319 11.1193 2.11788C10.7418 2.24056 10.4306 2.45445 10.1353 2.70513C9.85356 2.94432 9.53581 3.26208 9.16017 3.63774L9.16013 3.63778L9.13624 3.66166L4.39958 8.39833C4.39918 8.39873 4.39879 8.39912 4.39839 8.39952Z" fill="#374151"/>
</svg>
