<svg width="24" height="24" viewBox="0 0 24 24" fill="none" xmlns="http://www.w3.org/2000/svg">
<path fill-rule="evenodd" clip-rule="evenodd" d="M12.85 4.00015C12.85 3.5307 12.4695 3.15015 12 3.15015C11.5306 3.15015 11.15 3.5307 11.15 4.00015V11.9481L8.60105 9.39911C8.2691 9.06716 7.73092 9.06716 7.39897 9.39911C7.06702 9.73105 7.06702 10.2692 7.39897 10.6012L11.399 14.6012C11.5584 14.7606 11.7746 14.8501 12 14.8501C12.2254 14.8501 12.4416 14.7606 12.601 14.6012L16.6011 10.6012C16.933 10.2692 16.933 9.73105 16.6011 9.39911C16.2691 9.06716 15.7309 9.06716 15.399 9.39911L12.85 11.9481V4.00015ZM3.85002 15.0002C3.85003 14.5307 3.46947 14.1502 3.00002 14.1502C2.53058 14.1502 2.15002 14.5307 2.15002 15.0002V16.2002L2.15002 16.236C2.15002 17.0457 2.15001 17.7048 2.19372 18.2398C2.23889 18.7926 2.33493 19.2874 2.56965 19.748C2.93876 20.4725 3.52774 21.0614 4.25216 21.4305C4.71283 21.6653 5.20759 21.7613 5.76041 21.8065C6.29542 21.8502 6.9545 21.8502 7.76409 21.8502H7.76417H7.80002H16.2H16.2359C17.0455 21.8502 17.7046 21.8502 18.2396 21.8065C18.7925 21.7613 19.2872 21.6653 19.7479 21.4305C20.4723 21.0614 21.0613 20.4725 21.4304 19.748C21.6651 19.2874 21.7612 18.7926 21.8063 18.2398C21.85 17.7047 21.85 17.0456 21.85 16.236V16.2002V15.0002C21.85 14.5307 21.4695 14.1502 21 14.1502C20.5306 14.1502 20.15 14.5307 20.15 15.0002V16.2002C20.15 17.0543 20.1494 17.6437 20.112 18.1013C20.0754 18.549 20.0079 18.7952 19.9157 18.9762C19.7096 19.3808 19.3807 19.7097 18.9761 19.9158C18.795 20.0081 18.5489 20.0755 18.1012 20.1121C17.6436 20.1495 17.0541 20.1502 16.2 20.1502H7.80002C6.94592 20.1502 6.35646 20.1495 5.89885 20.1121C5.45116 20.0755 5.20502 20.0081 5.02395 19.9158C4.6194 19.7097 4.29049 19.3808 4.08436 18.9762C3.9921 18.7952 3.92465 18.549 3.88807 18.1013C3.85069 17.6437 3.85002 17.0543 3.85002 16.2002V15.0002Z" fill="#374151"/>
</svg>
