<svg width="318" height="318" viewBox="0 0 318 318" fill="none" xmlns="http://www.w3.org/2000/svg">
<path d="M315.268 111.619L279.747 87.5444V61.4405C279.747 58.0034 276.961 55.2171 273.523 55.2171H232.04L162.491 8.08481C160.383 6.6563 157.617 6.6563 155.509 8.08481L85.96 55.2178H44.4765C41.0394 55.2178 38.2532 58.004 38.2532 61.4411V87.5451L2.73157 111.619C1.02356 112.776 0 114.707 0 116.77V304.763C0 308.2 2.78623 310.987 6.22336 310.987H311.777C315.214 310.987 318 308.2 318 304.763V116.77C318 114.707 316.976 112.776 315.268 111.619ZM12.4461 131.531L106.472 210.767L12.4461 290.003V131.531ZM118.402 216.99H199.598L296.37 298.541H21.629L118.402 216.99ZM211.528 210.767L305.554 131.531V290.003L211.528 210.767ZM302.386 117.924L279.746 137.003V102.58L302.386 117.924ZM159 20.7539L209.854 55.2171H108.146L159 20.7539ZM267.3 67.6638V147.491L199.598 204.544H118.402L50.6999 147.491V67.6638H267.3ZM38.2538 137.003L15.6137 117.924L38.2538 102.58V137.003Z" fill="#B28E2A"/>
<path d="M154.593 182.119C156.992 184.518 161.01 184.516 163.407 182.119C163.407 182.119 202.659 142.775 203.418 141.836C203.425 141.827 203.433 141.817 203.441 141.808C210.722 132.697 212.299 120.408 207.559 109.74C206.011 106.252 203.846 103.1 201.119 100.366C195.236 94.4827 187.416 91.243 179.098 91.243C171.657 91.243 164.613 93.8361 158.999 98.5943C146.776 88.2562 128.401 88.8456 116.876 100.371C114.155 103.1 111.99 106.252 110.442 109.74C108.666 113.74 107.766 117.995 107.766 122.383C107.766 129.421 110.178 136.318 114.584 141.836C115.342 142.775 154.593 182.119 154.593 182.119V182.119ZM121.817 114.789C122.744 112.7 124.047 110.806 125.683 109.167C129.327 105.521 134.115 103.699 138.903 103.699C143.69 103.699 148.478 105.521 152.123 109.167C154.1 111.144 155.936 113.466 159 113.466C162.064 113.466 163.9 111.143 165.877 109.167C169.409 105.634 174.104 103.69 179.097 103.69C184.091 103.69 188.786 105.635 192.312 109.161C199.522 116.392 199.541 128.378 192.317 135.602L159 168.924L125.683 135.6C120.275 130.196 118.716 121.777 121.817 114.789Z" fill="#B28E2A"/>
<path d="M198.759 286.082C202.19 286.082 204.97 283.301 204.97 279.871C204.97 276.441 202.19 273.66 198.759 273.66C195.329 273.66 192.548 276.441 192.548 279.871C192.548 283.301 195.329 286.082 198.759 286.082Z" fill="#B28E2A"/>
<path d="M171.033 273.648H113.017C109.58 273.648 106.794 276.435 106.794 279.872C106.794 283.309 109.58 286.095 113.017 286.095H171.033C174.47 286.095 177.256 283.309 177.256 279.872C177.256 276.435 174.47 273.648 171.033 273.648Z" fill="#B28E2A"/>
</svg>
