<svg id="Capa_1" enable-background="new 0 0 512 512" height="512" viewBox="0 0 512 512" width="512" xmlns="http://www.w3.org/2000/svg"><g><path d="m507.602 179.713-57.192-38.761v-42.029c0-5.534-4.486-10.02-10.02-10.02h-66.791l-111.978-75.886c-3.394-2.3-7.847-2.3-11.242 0l-111.978 75.887h-66.791c-5.534 0-10.02 4.486-10.02 10.02v42.029l-57.192 38.76c-2.75 1.864-4.398 4.972-4.398 8.294v302.681c0 5.534 4.486 10.02 10.02 10.02h491.96c5.534 0 10.02-4.486 10.02-10.02v-302.681c0-3.322-1.648-6.43-4.398-8.294zm-487.563 32.06 151.387 127.575-151.387 127.575zm170.595 137.595h130.732l155.809 131.301h-442.351zm149.94-10.02 151.387-127.575v255.15zm146.287-149.483-36.452 30.718v-55.423zm-230.861-156.45 81.878 55.488h-163.756zm174.37 75.528v128.527l-109.004 91.858h-130.732l-109.004-91.858v-128.527zm-368.779 111.64-36.452-30.718 36.452-24.705z"/><path d="m248.905 293.223c3.862 3.862 10.332 3.86 14.191 0 0 0 63.197-63.347 64.419-64.858.012-.015.025-.031.037-.046 11.723-14.669 14.263-34.454 6.631-51.631-2.493-5.615-5.978-10.69-10.369-15.093-9.472-9.472-22.063-14.688-35.455-14.688-11.98 0-23.321 4.175-32.36 11.836-19.68-16.645-49.266-15.696-67.821 2.861-4.382 4.394-7.867 9.469-10.36 15.084-2.859 6.441-4.308 13.291-4.308 20.357 0 11.331 3.884 22.436 10.977 31.32 1.221 1.511 64.418 64.858 64.418 64.858zm-52.772-108.405c1.493-3.364 3.591-6.413 6.224-9.053 5.868-5.869 13.577-8.803 21.285-8.803s15.417 2.934 21.285 8.803c3.183 3.183 6.139 6.922 11.073 6.922 4.933 0 7.89-3.74 11.073-6.922 5.686-5.687 13.246-8.818 21.285-8.818 8.04 0 15.599 3.132 21.276 8.809 11.609 11.642 11.639 30.941.009 42.571l-53.643 53.651-53.643-53.653c-8.707-8.701-11.217-22.256-6.224-33.507z"/><circle cx="320.015" cy="450.61" r="10"/><path d="m275.374 440.591h-93.409c-5.534 0-10.02 4.486-10.02 10.02s4.486 10.02 10.02 10.02h93.409c5.534 0 10.02-4.486 10.02-10.02s-4.486-10.02-10.02-10.02z"/></g></svg>