<svg width="24" height="24" viewBox="0 0 24 24" fill="none" xmlns="http://www.w3.org/2000/svg">
<path fill-rule="evenodd" clip-rule="evenodd" d="M13.1847 3.07972C13.3125 2.93375 13.497 2.85002 13.6909 2.85002C14.1738 2.85002 14.4994 3.34375 14.3092 3.78758L12.2188 8.66519C12.1062 8.92781 12.1331 9.22941 12.2904 9.46794C12.4477 9.70647 12.7143 9.85003 13 9.85003H16.8104C17.5383 9.85003 18.028 9.85082 18.3978 9.8837C18.7619 9.91607 18.907 9.97317 18.9837 10.0203C19.2264 10.1695 19.4051 10.4034 19.4852 10.6768C19.5105 10.7632 19.5274 10.9183 19.4628 11.278C19.3972 11.6435 19.2691 12.1161 19.0776 12.8184L17.8231 17.4184C17.5725 18.3372 17.4968 18.555 17.3826 18.7029C17.2596 18.8622 17.0971 18.9863 16.9111 19.0631C16.7383 19.1344 16.5083 19.15 15.5559 19.15H9.20002C8.62595 19.15 8.24651 19.1494 7.95565 19.1256C7.67471 19.1026 7.55205 19.0624 7.47794 19.0247C7.26155 18.9144 7.08562 18.7385 6.97537 18.5221C6.9376 18.448 6.8974 18.3253 6.87445 18.0444C6.85069 17.7535 6.85002 17.3741 6.85002 16.8V11.2024C6.85002 10.7209 6.85458 10.6062 6.87666 10.5054C6.90029 10.3976 6.93932 10.2937 6.99256 10.1969C7.04231 10.1066 7.11442 10.0172 7.43147 9.65489L13.1847 3.07972ZM13.6909 1.15002C13.0068 1.15002 12.3559 1.44537 11.9054 1.96026L6.15209 8.53543L6.10592 8.58815C5.85785 8.87129 5.65311 9.10496 5.50327 9.37718C5.37133 9.61689 5.27459 9.87436 5.21604 10.1416C5.14955 10.4452 5.14975 10.7559 5.14999 11.1323L5.15002 11.2024V16.8L5.15002 16.8338C5.15001 17.3651 5.15 17.8145 5.1801 18.1828C5.21164 18.5689 5.28043 18.9402 5.46066 19.2939C5.7339 19.8302 6.16989 20.2662 6.70615 20.5394C7.05986 20.7196 7.43114 20.7884 7.81721 20.82C8.18559 20.85 8.635 20.85 9.1663 20.85H9.20002H15.5559L15.6987 20.8501C16.4317 20.851 17.0332 20.8517 17.5596 20.6345C18.0204 20.4444 18.4233 20.1366 18.7281 19.742C19.0761 19.2914 19.2337 18.7108 19.4257 18.0035L19.4632 17.8657L20.7177 13.2656L20.7279 13.2283C20.9066 12.573 21.0555 12.0271 21.1361 11.5783C21.2192 11.1153 21.2503 10.6555 21.1167 10.1991C20.9183 9.52152 20.4754 8.9417 19.8739 8.57199C19.4688 8.32299 19.017 8.23204 18.5484 8.19038C18.0942 8.15 17.5284 8.15001 16.8491 8.15002H16.8491L16.8104 8.15002H14.2891L15.8717 4.45724C16.5427 2.89164 15.3943 1.15002 13.6909 1.15002ZM3.85002 10C3.85002 9.53058 3.46947 9.15002 3.00002 9.15002C2.53058 9.15002 2.15002 9.53058 2.15002 10L2.15002 20C2.15002 20.4695 2.53058 20.85 3.00002 20.85C3.46947 20.85 3.85002 20.4695 3.85002 20L3.85002 10Z" fill="#374151"/>
</svg>
