<svg width="24" height="24" viewBox="0 0 24 24" fill="none" xmlns="http://www.w3.org/2000/svg">
<path fill-rule="evenodd" clip-rule="evenodd" d="M19.6723 4.32793C17.3877 2.04336 13.6837 2.04336 11.3991 4.32793L10.692 5.03503C10.3601 5.36698 10.3601 5.90517 10.692 6.23712C11.024 6.56906 11.5622 6.56906 11.8941 6.23712L12.6012 5.53001C14.2219 3.90933 16.8495 3.90933 18.4702 5.53001C20.0909 7.15068 20.0909 9.77832 18.4702 11.399L16.784 13.0852C15.3135 14.5556 12.9294 14.5556 11.459 13.0852L11.187 12.8132C10.855 12.4813 10.3169 12.4813 9.98491 12.8132C9.65296 13.1452 9.65296 13.6833 9.98491 14.0153L10.2569 14.2873C12.3912 16.4216 15.8517 16.4216 17.9861 14.2873L19.6723 12.6011C21.9568 10.3165 21.9568 6.61249 19.6723 4.32793ZM7.21643 10.9149C8.6869 9.44443 11.071 9.44443 12.5415 10.9149L12.8135 11.1869C13.1454 11.5188 13.6836 11.5188 14.0155 11.1869C14.3475 10.8549 14.3475 10.3167 14.0155 9.98479L13.7436 9.71282C11.6092 7.57846 8.14872 7.57846 6.01435 9.71282L4.32817 11.399C2.0436 13.6836 2.0436 17.3876 4.32817 19.6721C6.61274 21.9567 10.3168 21.9567 12.6013 19.6721L13.3084 18.965C13.6404 18.6331 13.6404 18.0949 13.3084 17.763C12.9765 17.431 12.4383 17.431 12.1063 17.763L11.3992 18.4701C9.77856 20.0907 7.15093 20.0907 5.53025 18.4701C3.90958 16.8494 3.90958 14.2218 5.53025 12.6011L7.21643 10.9149Z" fill="#374151"/>
</svg>
