<svg width="24" height="24" viewBox="0 0 24 24" fill="none" xmlns="http://www.w3.org/2000/svg">
<path d="M5.51541 1.89978C5.63518 1.89297 5.75527 1.89378 5.87495 1.90222L5.51541 1.89978ZM5.51541 1.89978C5.12962 1.8744 4.74269 1.92805 4.37832 2.05748C4.01196 2.18762 3.67623 2.3916 3.39191 2.65677C3.10759 2.92195 2.88075 3.24268 2.72543 3.59909C2.57015 3.9554 2.48967 4.3398 2.48896 4.72847M5.51541 1.89978L5.87499 1.90222C6.24626 1.92823 6.60877 2.0271 6.94182 2.1932C7.27489 2.3593 7.57198 2.58938 7.81613 2.8703C8.06028 3.15122 8.24671 3.47748 8.36477 3.83044C8.48283 4.18341 8.53022 4.55618 8.50422 4.92746C8.47822 5.29874 8.37934 5.66126 8.21324 5.99433C8.04714 6.3274 7.81706 6.62449 7.53614 6.86864C7.25522 7.11279 6.92896 7.29922 6.57599 7.41728C6.22414 7.53497 5.85261 7.58243 5.48249 7.55697H5.46088C5.07764 7.57911 4.69391 7.52248 4.33338 7.39058C3.97193 7.25833 3.64149 7.05324 3.36257 6.78803C3.08364 6.52281 2.86218 6.20312 2.7119 5.84878C2.56167 5.49455 2.48579 5.11323 2.48896 4.72847M2.48896 4.72847C2.48896 4.72836 2.48896 4.72825 2.48897 4.72814L2.58896 4.72897L2.48896 4.7288C2.48896 4.72869 2.48896 4.72858 2.48896 4.72847ZM18.0001 8.89997H18C16.9597 8.89997 15.9465 9.22249 15.1 9.82102V9.49997C15.1 9.34084 15.0367 9.18823 14.9242 9.07571C14.8117 8.96319 14.6591 8.89997 14.5 8.89997H10.5C10.3408 8.89997 10.1882 8.96319 10.0757 9.07571C9.96318 9.18823 9.89996 9.34084 9.89996 9.49997V21.5C9.89996 21.6591 9.96318 21.8117 10.0757 21.9242C10.1882 22.0368 10.3408 22.1 10.5 22.1H14.5C14.6591 22.1 14.8117 22.0368 14.9242 21.9242C15.0367 21.8117 15.1 21.6591 15.1 21.5V16C15.1 15.6287 15.2475 15.2726 15.51 15.01C15.7726 14.7475 16.1287 14.6 16.5 14.6C16.8713 14.6 17.2274 14.7475 17.4899 15.01C17.7525 15.2726 17.9 15.6287 17.9 16V21.5C17.9 21.6591 17.9632 21.8117 18.0757 21.9242C18.1882 22.0368 18.3408 22.1 18.5 22.1H22.5C22.6591 22.1 22.8117 22.0368 22.9242 21.9242C23.0367 21.8117 23.1 21.6591 23.1 21.5V14V13.9999C23.0983 12.6478 22.5605 11.3515 21.6045 10.3955C20.6484 9.43942 19.3522 8.90159 18.0001 8.89997ZM14.968 11.5786L14.9685 11.5779C15.4691 10.9433 16.1553 10.4808 16.9313 10.2548C17.7074 10.0288 18.5346 10.0506 19.2977 10.3172C20.0607 10.5838 20.7216 11.0819 21.1881 11.742C21.6546 12.4021 21.9034 13.1913 21.9 13.9995V14V20.9H19.1V16C19.1 15.3104 18.826 14.6491 18.3384 14.1615C17.8508 13.6739 17.1895 13.4 16.5 13.4C15.8104 13.4 15.1491 13.6739 14.6615 14.1615C14.1739 14.6491 13.9 15.3104 13.9 16V20.9H11.1V10.1H13.9V11.203C13.9 11.203 13.9 11.203 13.9 11.203C13.8999 11.3272 13.9385 11.4484 14.0103 11.5498C14.0821 11.6513 14.1837 11.7279 14.3009 11.7691C14.4181 11.8103 14.5453 11.8141 14.6648 11.78C14.7843 11.7459 14.8902 11.6755 14.968 11.5786ZM5.4971 6.35759L5.49717 6.35697H5.48596H5.45796V6.35669L5.45047 6.35725C5.22366 6.3743 4.99579 6.34387 4.7814 6.26791C4.56701 6.19194 4.37082 6.0721 4.20536 5.91605C4.03989 5.75999 3.90878 5.57115 3.82039 5.36158C3.73201 5.152 3.6883 4.9263 3.69205 4.69889C3.6958 4.47147 3.74693 4.24733 3.84217 4.04079C3.93742 3.83424 4.07468 3.64982 4.2452 3.49931C4.41573 3.3488 4.61576 3.23549 4.83254 3.16663C5.04931 3.09777 5.27806 3.07487 5.50418 3.09939L5.51414 3.10047L5.52411 3.09955C5.95653 3.05981 6.38702 3.19347 6.72088 3.47113C7.05475 3.7488 7.26464 4.14771 7.30438 4.58013C7.34412 5.01254 7.21046 5.44303 6.9328 5.7769C6.6552 6.11069 6.25639 6.32057 5.82408 6.36037C5.71492 6.36985 5.60568 6.36976 5.4971 6.35759ZM7.49996 8.89997H3.49996C3.34083 8.89997 3.18822 8.96319 3.0757 9.07571C2.96318 9.18823 2.89996 9.34084 2.89996 9.49997V21.5C2.89996 21.6591 2.96318 21.8117 3.0757 21.9242C3.18822 22.0368 3.34083 22.1 3.49996 22.1H7.49996C7.65909 22.1 7.8117 22.0368 7.92423 21.9242C8.03675 21.8117 8.09996 21.6591 8.09996 21.5V9.49997C8.09996 9.34084 8.03675 9.18823 7.92423 9.07571C7.8117 8.96319 7.65909 8.89997 7.49996 8.89997ZM6.89996 20.9H4.09996V10.1H6.89996V20.9Z" fill="#b28e2a" stroke="#b28e2a" stroke-width="0.2"/>
</svg>
