<svg width="24" height="24" viewBox="0 0 24 24" fill="none" xmlns="http://www.w3.org/2000/svg">
<path fill-rule="evenodd" clip-rule="evenodd" d="M4.00002 2.15002C2.9783 2.15002 2.15002 2.9783 2.15002 4.00003L2.15002 6.00003C2.15002 7.02175 2.9783 7.85003 4.00002 7.85003L6.00002 7.85002C7.02175 7.85003 7.85002 7.02175 7.85002 6.00003L7.85002 4.00003C7.85002 2.9783 7.02175 2.15003 6.00002 2.15003L4.00002 2.15002ZM3.85002 4.00003C3.85002 3.91718 3.91718 3.85003 4.00002 3.85003L6.00002 3.85003C6.08287 3.85003 6.15002 3.91718 6.15002 4.00003L6.15002 6.00003C6.15002 6.08287 6.08287 6.15003 6.00002 6.15003L4.00002 6.15003C3.91718 6.15003 3.85002 6.08287 3.85002 6.00003L3.85002 4.00003ZM10.15 5.00003C10.15 4.53059 10.5306 4.15003 11 4.15003L21 4.15003C21.4695 4.15003 21.85 4.53058 21.85 5.00003C21.85 5.46947 21.4695 5.85003 21 5.85003L11 5.85003C10.5306 5.85003 10.15 5.46947 10.15 5.00003ZM11 11.15C10.5306 11.15 10.15 11.5306 10.15 12C10.15 12.4695 10.5306 12.85 11 12.85L21 12.85C21.4695 12.85 21.85 12.4695 21.85 12C21.85 11.5306 21.4695 11.15 21 11.15L11 11.15ZM11 18.15C10.5306 18.15 10.15 18.5306 10.15 19C10.15 19.4695 10.5306 19.85 11 19.85L21 19.85C21.4695 19.85 21.85 19.4695 21.85 19C21.85 18.5306 21.4695 18.15 21 18.15L11 18.15ZM2.15002 11C2.15002 9.9783 2.9783 9.15002 4.00002 9.15002L6.00002 9.15002C7.02175 9.15002 7.85002 9.9783 7.85002 11L7.85002 13C7.85002 14.0217 7.02175 14.85 6.00002 14.85L4.00002 14.85C2.9783 14.85 2.15002 14.0217 2.15002 13L2.15002 11ZM4.00002 10.85C3.91718 10.85 3.85002 10.9172 3.85002 11L3.85002 13C3.85002 13.0829 3.91718 13.15 4.00002 13.15L6.00002 13.15C6.08287 13.15 6.15002 13.0829 6.15002 13L6.15002 11C6.15002 10.9172 6.08287 10.85 6.00002 10.85L4.00002 10.85ZM4.00002 16.15C2.9783 16.15 2.15002 16.9783 2.15002 18L2.15002 20C2.15002 21.0218 2.9783 21.85 4.00002 21.85L6.00002 21.85C7.02175 21.85 7.85002 21.0218 7.85002 20L7.85002 18C7.85002 16.9783 7.02175 16.15 6.00002 16.15L4.00002 16.15ZM3.85002 18C3.85002 17.9172 3.91718 17.85 4.00002 17.85L6.00002 17.85C6.08287 17.85 6.15002 17.9172 6.15002 18L6.15002 20C6.15002 20.0829 6.08287 20.15 6.00002 20.15L4.00002 20.15C3.91718 20.15 3.85002 20.0829 3.85002 20L3.85002 18Z" fill="#374151"/>
</svg>
