<svg width="24" height="24" viewBox="0 0 24 24" fill="none" xmlns="http://www.w3.org/2000/svg">
<path fill-rule="evenodd" clip-rule="evenodd" d="M10 2.85002C9.3649 2.85002 8.85002 3.3649 8.85002 4.00002V7.15782C9.30096 7.15002 9.80291 7.15002 10.363 7.15002L10.4 7.15002H13.6L13.637 7.15002C14.1971 7.15002 14.6991 7.15002 15.15 7.15782V4.00002C15.15 3.3649 14.6352 2.85002 14 2.85002H10ZM7.15002 4.00002V7.26985C6.65876 7.34345 6.21483 7.46635 5.79817 7.67864C4.88558 8.14363 4.14363 8.88558 3.67864 9.79817C3.38943 10.3658 3.26614 10.984 3.20734 11.7036C3.15001 12.4053 3.15002 13.2743 3.15002 14.363L3.15002 14.4V15.6L3.15002 15.637C3.15002 16.7258 3.15001 17.5947 3.20734 18.2964C3.26614 19.016 3.38943 19.6343 3.67864 20.2019C4.14363 21.1145 4.88558 21.8564 5.79817 22.3214C6.36579 22.6106 6.98404 22.7339 7.70362 22.7927C8.40534 22.85 9.27429 22.85 10.363 22.85H10.4H13.6H13.637C14.7258 22.85 15.5947 22.85 16.2964 22.7927C17.016 22.7339 17.6343 22.6106 18.2019 22.3214C19.1145 21.8564 19.8564 21.1145 20.3214 20.2019C20.6106 19.6343 20.7339 19.016 20.7927 18.2964C20.85 17.5947 20.85 16.7257 20.85 15.637V15.6V14.4V14.3631C20.85 13.2743 20.85 12.4053 20.7927 11.7036C20.7339 10.984 20.6106 10.3658 20.3214 9.79817C19.8564 8.88558 19.1145 8.14363 18.2019 7.67864C17.7852 7.46635 17.3413 7.34345 16.85 7.26985V4.00002C16.85 2.42601 15.574 1.15002 14 1.15002H10C8.42601 1.15002 7.15002 2.42601 7.15002 4.00002ZM7.84205 8.9017C7.22761 8.9519 6.85798 9.0466 6.56995 9.19335C5.97724 9.49536 5.49536 9.97724 5.19335 10.57C5.0466 10.858 4.9519 11.2276 4.9017 11.842C4.85069 12.4664 4.85002 13.2659 4.85002 14.4V15.6C4.85002 16.7342 4.85069 17.5336 4.9017 18.158C4.9519 18.7724 5.0466 19.1421 5.19335 19.4301C5.49536 20.0228 5.97724 20.5047 6.56995 20.8067C6.85798 20.9535 7.22761 21.0481 7.84205 21.0984C8.46642 21.1494 9.26589 21.15 10.4 21.15H13.6C14.7342 21.15 15.5336 21.1494 16.158 21.0984C16.7724 21.0481 17.1421 20.9535 17.4301 20.8067C18.0228 20.5047 18.5047 20.0228 18.8067 19.4301C18.9535 19.1421 19.0481 18.7724 19.0984 18.158C19.1494 17.5336 19.15 16.7342 19.15 15.6V14.4C19.15 13.2659 19.1494 12.4664 19.0984 11.842C19.0481 11.2276 18.9535 10.858 18.8067 10.57C18.5047 9.97724 18.0228 9.49536 17.4301 9.19335C17.1421 9.0466 16.7724 8.9519 16.158 8.9017C15.5336 8.85069 14.7342 8.85002 13.6 8.85002H10.4C9.26589 8.85002 8.46642 8.85069 7.84205 8.9017ZM12.85 14C12.85 13.5306 12.4695 13.15 12 13.15C11.5306 13.15 11.15 13.5306 11.15 14V16C11.15 16.4695 11.5306 16.85 12 16.85C12.4695 16.85 12.85 16.4695 12.85 16V14Z" fill="#374151"/>
</svg>
