<svg width="24" height="24" viewBox="0 0 24 24" fill="none" xmlns="http://www.w3.org/2000/svg">
<path fill-rule="evenodd" clip-rule="evenodd" d="M8.40002 3.15002L8.36303 3.15002C7.27429 3.15002 6.40534 3.15001 5.70362 3.20734C4.98404 3.26614 4.36579 3.38943 3.79817 3.67864C2.88558 4.14363 2.14363 4.88558 1.67864 5.79817C1.38943 6.36579 1.26614 6.98404 1.20734 7.70362C1.15001 8.40534 1.15002 9.27429 1.15002 10.363L1.15002 10.4V13.6L1.15002 13.637C1.15002 14.7258 1.15001 15.5947 1.20734 16.2964C1.26614 17.016 1.38943 17.6343 1.67864 18.2019C2.14363 19.1145 2.88558 19.8564 3.79817 20.3214C4.36579 20.6106 4.98404 20.7339 5.70362 20.7927C6.40535 20.85 7.27432 20.85 8.3631 20.85H8.40002H15.6H15.637C16.7257 20.85 17.5947 20.85 18.2964 20.7927C19.016 20.7339 19.6343 20.6106 20.2019 20.3214C21.1145 19.8564 21.8564 19.1145 22.3214 18.2019C22.6106 17.6343 22.7339 17.016 22.7927 16.2964C22.85 15.5947 22.85 14.7257 22.85 13.637V13.6V10.4V10.3631C22.85 9.27432 22.85 8.40535 22.7927 7.70362C22.7339 6.98404 22.6106 6.36579 22.3214 5.79817C21.8564 4.88558 21.1145 4.14363 20.2019 3.67864C19.6343 3.38943 19.016 3.26614 18.2964 3.20734C17.5947 3.15001 16.7258 3.15002 15.637 3.15002L15.6 3.15002H8.40002ZM4.56995 5.19335C4.85798 5.0466 5.22761 4.9519 5.84205 4.9017C6.46642 4.85069 7.26589 4.85002 8.40002 4.85002H15.6C16.7342 4.85002 17.5336 4.85069 18.158 4.9017C18.7724 4.9519 19.1421 5.0466 19.4301 5.19335C20.0228 5.49536 20.5047 5.97724 20.8067 6.56995C20.9535 6.85798 21.0481 7.22761 21.0984 7.84205C21.1494 8.46642 21.15 9.26589 21.15 10.4V13.6C21.15 14.7342 21.1494 15.5336 21.0984 16.158C21.0481 16.7724 20.9535 17.1421 20.8067 17.4301C20.5047 18.0228 20.0228 18.5047 19.4301 18.8067C19.1421 18.9535 18.7724 19.0481 18.158 19.0984C17.5336 19.1494 16.7342 19.15 15.6 19.15H8.40002C7.26589 19.15 6.46642 19.1494 5.84205 19.0984C5.22761 19.0481 4.85798 18.9535 4.56995 18.8067C3.97724 18.5047 3.49536 18.0228 3.19335 17.4301C3.0466 17.1421 2.9519 16.7724 2.9017 16.158C2.85069 15.5336 2.85002 14.7342 2.85002 13.6V10.4C2.85002 9.26589 2.85069 8.46642 2.9017 7.84205C2.9519 7.22761 3.0466 6.85798 3.19335 6.56995C3.49536 5.97724 3.97724 5.49536 4.56995 5.19335ZM6.47152 7.29278C6.08092 7.03238 5.55318 7.13793 5.29278 7.52853C5.03238 7.91913 5.13793 8.44687 5.52853 8.70727L11.5285 12.7073C11.814 12.8976 12.186 12.8976 12.4715 12.7073L18.4715 8.70727C18.8621 8.44687 18.9677 7.91913 18.7073 7.52853C18.4469 7.13793 17.9191 7.03238 17.5285 7.29278L12 10.9785L6.47152 7.29278Z" fill="#B28E2A"/>
</svg>
