<svg width="24" height="24" viewBox="0 0 24 24" fill="none" xmlns="http://www.w3.org/2000/svg">
<path fill-rule="evenodd" clip-rule="evenodd" d="M9.36303 2.15002H9.40002H12C12.4695 2.15002 12.85 2.53058 12.85 3.00002C12.85 3.46947 12.4695 3.85002 12 3.85002H9.40002C8.26589 3.85002 7.46642 3.85069 6.84205 3.9017C6.22761 3.9519 5.85798 4.0466 5.56995 4.19335C4.97724 4.49536 4.49536 4.97724 4.19335 5.56995C4.0466 5.85798 3.9519 6.22761 3.9017 6.84205C3.85069 7.46642 3.85002 8.26589 3.85002 9.40002V14.6C3.85002 15.5912 3.85053 16.3268 3.88471 16.9133L4.39898 16.399L7.48477 13.3132C8.59777 12.2002 10.4023 12.2002 11.5153 13.3132L14 15.7979L14.9848 14.8132C16.0978 13.7002 17.9023 13.7002 19.0153 14.8132L20.1451 15.943C20.1499 15.5535 20.15 15.1107 20.15 14.6V12C20.15 11.5306 20.5306 11.15 21 11.15C21.4695 11.15 21.85 11.5306 21.85 12V14.6V14.637C21.85 15.7257 21.85 16.5947 21.7927 17.2964C21.7339 18.016 21.6106 18.6343 21.3214 19.2019C20.8564 20.1145 20.1145 20.8564 19.2019 21.3214C18.6343 21.6106 18.016 21.7339 17.2964 21.7927C16.5947 21.85 15.7257 21.85 14.637 21.85H14.6H9.40002H9.3631C8.27432 21.85 7.40535 21.85 6.70362 21.7927C5.98404 21.7339 5.36579 21.6106 4.79817 21.3214C3.88558 20.8564 3.14363 20.1145 2.67864 19.2019C2.38943 18.6343 2.26614 18.016 2.20734 17.2964C2.15001 16.5947 2.15002 15.7258 2.15002 14.637V14.637V14.6V9.40002V9.36303V9.36303C2.15002 8.27428 2.15001 7.40534 2.20734 6.70362C2.26614 5.98404 2.38943 5.36579 2.67864 4.79817C3.14363 3.88558 3.88558 3.14363 4.79817 2.67864C5.36579 2.38943 5.98404 2.26614 6.70362 2.20734C7.40534 2.15001 8.27428 2.15002 9.36303 2.15002H9.36303ZM5.56995 19.8067C5.10325 19.5689 4.70526 19.2196 4.4097 18.7924L5.60107 17.6011L8.68685 14.5153C9.13596 14.0662 9.86409 14.0662 10.3132 14.5153L13.399 17.6011L15.943 20.1451C15.5535 20.1499 15.1107 20.15 14.6 20.15H9.40002C8.26589 20.15 7.46642 20.1494 6.84205 20.0984C6.22761 20.0481 5.85798 19.9535 5.56995 19.8067ZM18.4301 19.8067C18.3398 19.8527 18.2415 19.8936 18.1302 19.9296C18.1208 19.9192 18.1111 19.909 18.1011 19.899L15.2021 17L16.1869 16.0153C16.636 15.5662 17.3641 15.5662 17.8132 16.0153L19.899 18.1011C19.909 18.1111 19.9192 18.1208 19.9296 18.1302C19.8936 18.2415 19.8527 18.3398 19.8067 18.4301C19.5047 19.0228 19.0228 19.5047 18.4301 19.8067ZM18.85 3.00002C18.85 2.53058 18.4695 2.15002 18 2.15002C17.5306 2.15002 17.15 2.53058 17.15 3.00002V5.15002H15C14.5306 5.15002 14.15 5.53058 14.15 6.00002C14.15 6.46947 14.5306 6.85002 15 6.85002H17.15V9.00002C17.15 9.46947 17.5306 9.85002 18 9.85002C18.4695 9.85002 18.85 9.46947 18.85 9.00002V6.85002H21C21.4695 6.85002 21.85 6.46947 21.85 6.00002C21.85 5.53058 21.4695 5.15002 21 5.15002H18.85V3.00002Z" fill="#374151"/>
</svg>
