<svg width="24" height="24" viewBox="0 0 24 24" fill="none" xmlns="http://www.w3.org/2000/svg">
<path fill-rule="evenodd" clip-rule="evenodd" d="M4.70587 4.84704C6.31186 3.50871 8.74778 2.15002 12 2.15002C17.4713 2.15002 21.85 6.56183 21.85 12C21.85 17.44 17.44 21.85 12 21.85C6.56002 21.85 2.15002 17.44 2.15002 12C2.15002 11.5306 2.53058 11.15 3.00002 11.15C3.46947 11.15 3.85002 11.5306 3.85002 12C3.85002 16.5011 7.4989 20.15 12 20.15C16.5011 20.15 20.15 16.5011 20.15 12C20.15 7.49709 16.5288 3.85002 12 3.85002C9.25227 3.85002 7.18819 4.99134 5.79418 6.15301C5.38342 6.49531 5.03309 6.83772 4.74356 7.15002H7.00002C7.46947 7.15002 7.85002 7.53058 7.85002 8.00002C7.85002 8.46947 7.46947 8.85002 7.00002 8.85002H3.00002C2.53058 8.85002 2.15002 8.46947 2.15002 8.00002V3.50002C2.15002 3.03058 2.53058 2.65002 3.00002 2.65002C3.46947 2.65002 3.85002 3.03058 3.85002 3.50002V5.62796C4.10416 5.37443 4.3894 5.11076 4.70587 4.84704ZM3.72792 8.43896C3.72778 8.4392 3.72781 8.43914 3.72802 8.43879L3.72792 8.43896Z" fill="#374151"/>
</svg>
