<svg width="24" height="24" viewBox="0 0 24 24" fill="none" xmlns="http://www.w3.org/2000/svg">
<path fill-rule="evenodd" clip-rule="evenodd" d="M10.8501 4.00002C10.8501 3.3649 11.3649 2.85002 12.0001 2.85002C12.6352 2.85002 13.1501 3.3649 13.1501 4.00002V5.28991C13.1501 5.66596 13.3972 5.99732 13.7576 6.10459C14.6918 6.38262 15.534 6.87728 16.2255 7.53141C16.4986 7.78978 16.909 7.83802 17.2346 7.65004L18.3534 7.0041C18.9034 6.68654 19.6068 6.87499 19.9243 7.42503L20.6604 7.00003L19.9243 7.42503C20.2419 7.97507 20.0534 8.6784 19.5034 8.99596L18.386 9.6411C18.0607 9.82893 17.8972 10.208 17.984 10.5735C18.0924 11.0305 18.15 11.508 18.15 12C18.15 12.4921 18.0924 12.9695 17.984 13.4265C17.8972 13.792 18.0607 14.1711 18.386 14.3589L19.5033 15.004C20.0534 15.3216 20.2418 16.0249 19.9242 16.575C19.6067 17.125 18.9034 17.3135 18.3533 16.9959L17.2346 16.35C16.909 16.162 16.4986 16.2103 16.2255 16.4686C15.534 17.1228 14.6918 17.6174 13.7576 17.8955C13.3972 18.0027 13.1501 18.3341 13.1501 18.7101V20C13.1501 20.6352 12.6352 21.15 12.0001 21.15C11.3649 21.15 10.8501 20.6352 10.8501 20V18.7101C10.8501 18.3341 10.603 18.0027 10.2425 17.8955C9.30838 17.6175 8.46622 17.1228 7.77472 16.4687C7.5016 16.2104 7.0912 16.1621 6.76561 16.3501L5.64699 16.996C5.09695 17.3135 4.39362 17.1251 4.07606 16.575C3.7585 16.025 3.94695 15.3217 4.49699 15.0041L5.61415 14.3591C5.93949 14.1713 6.10294 13.7922 6.01617 13.4267C5.90767 12.9696 5.85005 12.4921 5.85005 12C5.85005 11.5079 5.90767 11.0304 6.01617 10.5734C6.10294 10.2079 5.93949 9.82877 5.61415 9.64094L4.49691 8.9959C3.94687 8.67834 3.75842 7.97501 4.07598 7.42497C4.39355 6.87493 5.09687 6.68648 5.64691 7.00404L6.76562 7.64993C7.0912 7.8379 7.5016 7.78966 7.77472 7.53131C8.46622 6.87722 9.30838 6.3826 10.2425 6.10459C10.603 5.99732 10.8501 5.66596 10.8501 5.2899V4.00002ZM12.0001 1.15002C10.426 1.15002 9.15006 2.42601 9.15006 4.00002V4.68363C8.40035 4.97585 7.70704 5.37972 7.09045 5.87448L6.49691 5.5318C5.13378 4.74479 3.39074 5.21184 2.60374 6.57497C1.81673 7.93811 2.28378 9.68114 3.64691 10.4681L4.23972 10.8104C4.18063 11.1987 4.15005 11.596 4.15005 12C4.15005 12.404 4.18063 12.8013 4.23972 13.1896L3.64699 13.5319C2.28386 14.3189 1.81681 16.0619 2.60382 17.425C3.39082 18.7882 5.13386 19.2552 6.49699 18.4682L7.09045 18.1256C7.70704 18.6203 8.40035 19.0242 9.15006 19.3164V20C9.15006 21.574 10.426 22.85 12.0001 22.85C13.5741 22.85 14.8501 21.574 14.8501 20V19.3164C15.5998 19.0242 16.2932 18.6203 16.9098 18.1255L17.5033 18.4681C18.8665 19.2552 20.6095 18.7881 21.3965 17.425C22.1835 16.0618 21.7165 14.3188 20.3533 13.5318L19.7604 13.1895C19.8195 12.8012 19.85 12.404 19.85 12C19.85 11.5961 19.8195 11.1988 19.7604 10.8106L20.3534 10.4682C21.7165 9.6812 22.1836 7.93816 21.3966 6.57503C20.6096 5.2119 18.8665 4.74485 17.5034 5.53186L16.9098 5.87459C16.2932 5.37978 15.5998 4.97588 14.8501 4.68364V4.00002C14.8501 2.42601 13.5741 1.15002 12.0001 1.15002ZM9.85004 12C9.85004 10.8126 10.8126 9.85003 12 9.85003C13.1875 9.85003 14.15 10.8126 14.15 12C14.15 13.1874 13.1875 14.15 12 14.15C10.8126 14.15 9.85004 13.1874 9.85004 12ZM12 8.15002C9.87375 8.15002 8.15004 9.87373 8.15004 12C8.15004 14.1263 9.87375 15.85 12 15.85C14.1263 15.85 15.85 14.1263 15.85 12C15.85 9.87373 14.1263 8.15002 12 8.15002Z" fill="#374151"/>
</svg>
