<svg width="24" height="24" viewBox="0 0 24 24" fill="none" xmlns="http://www.w3.org/2000/svg">
<path fill-rule="evenodd" clip-rule="evenodd" d="M12.0001 1.15002C12.3244 1.15002 12.6204 1.33456 12.7632 1.62573L15.5663 7.34094L21.1238 8.15909C21.442 8.20592 21.7065 8.42831 21.8072 8.7337C21.908 9.0391 21.8278 9.37521 21.6 9.60218L17.4331 13.7536L18.829 19.902C18.9021 20.2242 18.7819 20.5597 18.5207 20.7621C18.2595 20.9645 17.9046 20.9972 17.6109 20.8459L12.0001 17.9561L6.38924 20.8459C6.09546 20.9972 5.74063 20.9645 5.47942 20.7621C5.21821 20.5597 5.09798 20.2242 5.17114 19.902L6.56704 13.7536L2.40013 9.60218C2.17231 9.37521 2.09209 9.0391 2.19285 8.7337C2.29361 8.42831 2.55809 8.20592 2.87625 8.15909L8.43382 7.34094L11.2369 1.62573C11.3797 1.33456 11.6757 1.15002 12.0001 1.15002ZM12.0001 3.93032L9.7632 8.49104C9.63993 8.74238 9.4008 8.91691 9.12385 8.95768L4.80067 9.59411L8.09997 12.8811C8.30723 13.0876 8.39373 13.3862 8.32895 13.6715L7.23291 18.4991L11.6109 16.2444C11.8551 16.1186 12.145 16.1186 12.3892 16.2444L16.7672 18.4991L15.6711 13.6715C15.6064 13.3862 15.6929 13.0876 15.9001 12.8811L19.1994 9.59411L14.8762 8.95768C14.5993 8.91691 14.3602 8.74238 14.2369 8.49104L12.0001 3.93032Z" fill="#374151"/>
</svg>
