<svg width="24" height="24" viewBox="0 0 24 24" fill="none" xmlns="http://www.w3.org/2000/svg">
<path fill-rule="evenodd" clip-rule="evenodd" d="M8.36303 1.15002L8.40002 1.15002H15.6L15.637 1.15002C16.7258 1.15002 17.5947 1.15001 18.2964 1.20734C19.016 1.26614 19.6343 1.38943 20.2019 1.67864C21.1145 2.14363 21.8564 2.88558 22.3214 3.79817C22.6106 4.36579 22.7339 4.98404 22.7927 5.70362C22.85 6.40535 22.85 7.27432 22.85 8.3631V8.40002V15.6V15.637C22.85 16.7257 22.85 17.5947 22.7927 18.2964C22.7339 19.016 22.6106 19.6343 22.3214 20.2019C21.8564 21.1145 21.1145 21.8564 20.2019 22.3214C19.6343 22.6106 19.016 22.7339 18.2964 22.7927C17.5947 22.85 16.7257 22.85 15.637 22.85H15.6H8.40002H8.3631C7.27432 22.85 6.40535 22.85 5.70362 22.7927C4.98404 22.7339 4.36579 22.6106 3.79817 22.3214C2.88558 21.8564 2.14363 21.1145 1.67864 20.2019C1.38943 19.6343 1.26614 19.016 1.20734 18.2964C1.15001 17.5947 1.15002 16.7258 1.15002 15.637L1.15002 15.6V8.40002L1.15002 8.36303C1.15002 7.27429 1.15001 6.40534 1.20734 5.70362C1.26614 4.98404 1.38943 4.36579 1.67864 3.79817C2.14363 2.88558 2.88558 2.14363 3.79817 1.67864C4.36579 1.38943 4.98404 1.26614 5.70362 1.20734C6.40534 1.15001 7.27429 1.15002 8.36303 1.15002ZM5.84205 2.9017C5.22761 2.9519 4.85798 3.0466 4.56995 3.19335C3.97724 3.49536 3.49536 3.97724 3.19335 4.56995C3.0466 4.85798 2.9519 5.22761 2.9017 5.84205C2.85069 6.46642 2.85002 7.26589 2.85002 8.40002V15.6C2.85002 16.7342 2.85069 17.5336 2.9017 18.158C2.9519 18.7724 3.0466 19.1421 3.19335 19.4301C3.49536 20.0228 3.97724 20.5047 4.56995 20.8067C4.85798 20.9535 5.22761 21.0481 5.84205 21.0984C6.46642 21.1494 7.26589 21.15 8.40002 21.15H15.6C16.7342 21.15 17.5336 21.1494 18.158 21.0984C18.7724 21.0481 19.1421 20.9535 19.4301 20.8067C20.0228 20.5047 20.5047 20.0228 20.8067 19.4301C20.9535 19.1421 21.0481 18.7724 21.0984 18.158C21.1494 17.5336 21.15 16.7342 21.15 15.6V8.40002C21.15 7.26589 21.1494 6.46642 21.0984 5.84205C21.0481 5.22761 20.9535 4.85798 20.8067 4.56995C20.5047 3.97724 20.0228 3.49536 19.4301 3.19335C19.1421 3.0466 18.7724 2.9519 18.158 2.9017C17.5336 2.85069 16.7342 2.85002 15.6 2.85002H8.40002C7.26589 2.85002 6.46642 2.85069 5.84205 2.9017ZM10 14.85C9.3649 14.85 8.85002 15.3649 8.85002 16C8.85002 16.0829 8.91718 16.15 9.00002 16.15H15C15.0829 16.15 15.15 16.0829 15.15 16C15.15 15.3649 14.6352 14.85 14 14.85H10ZM7.15002 16C7.15002 14.426 8.42601 13.15 10 13.15H14C15.574 13.15 16.85 14.426 16.85 16C16.85 17.0218 16.0218 17.85 15 17.85H9.00002C7.9783 17.85 7.15002 17.0218 7.15002 16ZM10.85 9.00002C10.85 8.3649 11.3649 7.85002 12 7.85002C12.6352 7.85002 13.15 8.3649 13.15 9.00002C13.15 9.63515 12.6352 10.15 12 10.15C11.3649 10.15 10.85 9.63515 10.85 9.00002ZM12 6.15002C10.426 6.15002 9.15002 7.42601 9.15002 9.00002C9.15002 10.574 10.426 11.85 12 11.85C13.574 11.85 14.85 10.574 14.85 9.00002C14.85 7.42601 13.574 6.15002 12 6.15002Z" fill="#374151"/>
</svg>
