<svg width="24" height="24" viewBox="0 0 24 24" fill="none" xmlns="http://www.w3.org/2000/svg">
<path fill-rule="evenodd" clip-rule="evenodd" d="M8.40002 3.15003L8.36303 3.15003C7.27429 3.15002 6.40534 3.15001 5.70361 3.20735C4.98404 3.26614 4.36579 3.38943 3.79817 3.67864C2.88558 4.14363 2.14363 4.88559 1.67864 5.79817C1.38942 6.36579 1.26614 6.98404 1.20734 7.70362C1.15001 8.40534 1.15002 9.27429 1.15002 10.363L1.15002 10.4L1.15003 13.6L1.15003 13.637C1.15002 14.7258 1.15001 15.5947 1.20735 16.2964C1.26614 17.016 1.38943 17.6343 1.67864 18.2019C2.14363 19.1145 2.88559 19.8564 3.79817 20.3214C4.36579 20.6106 4.98404 20.7339 5.70362 20.7927C6.40535 20.85 7.27432 20.85 8.3631 20.85H8.40003L11.6 20.85H11.637C12.7257 20.85 13.5947 20.85 14.2964 20.7927C15.016 20.7339 15.6343 20.6106 16.2019 20.3214C17.1145 19.8564 17.8564 19.1145 18.3214 18.2019C18.5647 17.7245 18.6905 17.2112 18.7594 16.632L19.89 17.48C21.1096 18.3947 22.85 17.5245 22.85 16L22.85 7.99997C22.85 6.47548 21.1096 5.60527 19.89 6.51999L18.7594 7.36799C18.6905 6.78879 18.5647 6.27557 18.3214 5.79817C17.8564 4.88558 17.1145 4.14363 16.2019 3.67864C15.6343 3.38942 15.016 3.26614 14.2964 3.20734C13.5947 3.15001 12.7258 3.15002 11.637 3.15002L11.6 3.15002L8.40002 3.15003ZM18.85 10.3631C18.85 10.3237 18.85 10.2845 18.85 10.2457V10.2349V10.2237V10.2124V10.2011V10.1899V10.1786V10.1674V10.1561V10.1449V10.1336V10.1224V10.1112V10.0999V10.0887V10.0775V10.0662V10.055V10.0438V10.0326V10.0214V10.0102V9.99897V9.98777V9.97658V9.96539V9.9542V9.94302V9.93184V9.92067V9.9095V9.89834V9.88718V9.87602V9.86487V9.85373V9.84259V9.83145V9.82032V9.80919V9.79807V9.78696V9.77584V9.76474V9.75364V9.74254V9.73145V9.72037V9.70929V9.69822V9.68715V9.67609V9.66503V9.65398V9.64294V9.6319V9.62087V9.60985V9.59883V9.58781V9.57681V9.56581V9.55481V9.54383V9.53285V9.52187V9.51091V9.49995C18.85 9.4528 18.8722 9.40839 18.91 9.38002L20.91 7.87998C21.0089 7.80581 21.15 7.87637 21.15 7.99997L21.15 16C21.15 16.1236 21.0089 16.1942 20.91 16.12L18.91 14.62C18.871 14.5908 18.85 14.5474 18.85 14.5017V14.4961V14.4904V14.4848V14.479V14.4733V14.4675V14.4617V14.4559V14.45V14.4442V14.4383V14.4323V14.4264V14.4204V14.4144V14.4083V14.4022V14.3962V14.39V14.3839V14.3777V14.3715V14.3653V14.359V14.3528V14.3464V14.3401V14.3338V14.3274V14.321V14.3145V14.3081V14.3016V14.2951V14.2885V14.282V14.2754V14.2688V14.2621V14.2555V14.2488V14.2421V14.2353V14.2286V14.2218V14.215V14.2081V14.2013V14.1944V14.1875V14.1805V14.1736V14.1666V14.1596V14.1525V14.1455V14.1384V14.1313V14.1242V14.117V14.1098V14.1026V14.0954V14.0882V14.0809V14.0736V14.0663V14.059V14.0516V14.0442V14.0368V14.0294V14.0219V14.0144V14.0069V13.9994V13.9919V13.9843V13.9767V13.9691V13.9614V13.9538V13.9461V13.9384V13.9307V13.9229V13.9152V13.9074V13.8996V13.8917V13.8839V13.876V13.8681V13.8602V13.8522V13.8443V13.8363V13.8283V13.8203V13.8122V13.8041V13.796V13.7879V13.7798V13.7717V13.7635V13.7553V13.7471V13.7388V13.7306V13.7223V13.714V13.7057V13.7018M18.85 10.3631L18.85 10.3703V10.3816V10.3929L18.85 10.4L18.85 10.4041V10.4154V10.4267V10.438V10.4493V10.4606V10.4719V10.4833V10.4946V10.5059V10.5172V10.5285V10.5398V10.5511V10.5624V10.5737V10.585V10.5963V10.6076V10.6189V10.6303V10.6416V10.6529V10.6642V10.6755V10.6868V10.6981V10.7094V10.7207V10.7321V10.7434V10.7547V10.766V10.7773V10.7886V10.7999V10.8112V10.8225V10.8338V10.8451V10.8564V10.8677V10.879V10.8903V10.9016V10.9129V10.9242V10.9355V10.9468V10.958V10.9693V10.9806V10.9919V11.0032V11.0144V11.0257V11.037V11.0483V11.0595V11.0708V11.082V11.0933V11.1046V11.1158V11.1271V11.1383V11.1496V11.1608V11.172V11.1833V11.1945V11.2057V11.217V11.2282V11.2394V11.2506V11.2618V11.273V11.2842V11.2954V11.3066V11.3178V11.329V11.3402V11.3514V11.3626V11.3737V11.3849V11.3961V11.4072V11.4184V11.4295V11.4407V11.4518V11.4629V11.4741V11.4852V11.4963V11.5074V11.5185V11.5296V11.5407V11.5518V11.5629V11.574V11.5851V11.5961V11.6072V11.6183V11.6293V11.6404V11.6514V11.6624V11.6735V11.6845V11.6955V11.7065V11.7175V11.7285V11.7395V11.7505V11.7615V11.7724V11.7834V11.7944V11.8053V11.8162V11.8272V11.8381V11.849V11.8599V11.8709V11.8818V11.8926V11.9035V11.9144V11.9253V11.9361V11.947V11.9578V11.9687V11.9795V11.9903V12.0011V12.0119V12.0227V12.0335V12.0443V12.0551V12.0658V12.0766V12.0873V12.0981V12.1088V12.1195V12.1302V12.1409V12.1516V12.1623V12.173V12.1836V12.1943V12.2049V12.2156V12.2262V12.2368V12.2474V12.258V12.2686V12.2792V12.2897V12.3003V12.3108V12.3214V12.3319V12.3424V12.3529V12.3634V12.3739V12.3844V12.3948V12.4053V12.4157V12.4262V12.4366V12.447V12.4574V12.4678V12.4781V12.4885V12.4989V12.5092V12.5195V12.5298V12.5401V12.5504V12.5607V12.571V12.5812V12.5915V12.6017V12.612V12.6222V12.6324V12.6425V12.6527V12.6629V12.673V12.6832V12.6933V12.7034V12.7135V12.7236V12.7336V12.7437V12.7537V12.7638V12.7738V12.7838V12.7938V12.8038V12.8137V12.8237V12.8336V12.8436V12.8535V12.8634V12.8732V12.8831V12.893V12.9028V12.9126V12.9225V12.9323V12.942V12.9518V12.9616V12.9713V12.981V12.9907V13.0004V13.0101V13.0198V13.0294V13.0391V13.0487V13.0583V13.0679V13.0775V13.087V13.0966V13.1061V13.1156V13.1251V13.1346V13.1441V13.1535V13.1629V13.1724V13.1818V13.1912V13.2005V13.2099V13.2192V13.2285V13.2378V13.2471V13.2564V13.2657V13.2749V13.2841V13.2933V13.3025V13.3117V13.3208V13.33V13.3391V13.3482V13.3573V13.3664V13.3754V13.3844V13.3935V13.4025V13.4114V13.4204V13.4293V13.4383V13.4472V13.4561V13.4649V13.4738V13.4826V13.4914L18.85 13.5002V13.509V13.5178V13.5265V13.5352V13.5439V13.5526V13.5613V13.57V13.5786V13.5872V13.5958V13.6V13.6044V13.6129V13.6214V13.63V13.637M17.15 10.4C17.15 9.26589 17.1494 8.46642 17.0984 7.84205C17.0481 7.22761 16.9535 6.85798 16.8067 6.56995C16.5047 5.97724 16.0228 5.49535 15.4301 5.19335C15.1421 5.0466 14.7724 4.9519 14.158 4.9017C13.5336 4.85069 12.7342 4.85002 11.6 4.85002L8.40002 4.85003C7.26589 4.85003 6.46642 4.85069 5.84205 4.9017C5.2276 4.9519 4.85798 5.0466 4.56995 5.19336C3.97724 5.49536 3.49535 5.97725 3.19335 6.56996C3.0466 6.85798 2.9519 7.22761 2.9017 7.84205C2.85069 8.46642 2.85002 9.2659 2.85002 10.4L2.85003 13.6C2.85003 14.7342 2.85069 15.5336 2.9017 16.158C2.9519 16.7724 3.0466 17.1421 3.19336 17.4301C3.49536 18.0228 3.97725 18.5047 4.56996 18.8067C4.85798 18.9535 5.22761 19.0482 5.84205 19.0984C6.46642 19.1494 7.2659 19.15 8.40003 19.15H11.6C12.7342 19.15 13.5336 19.1494 14.158 19.0983C14.7724 19.0481 15.1421 18.9535 15.4301 18.8067C16.0228 18.5047 16.5047 18.0228 16.8067 17.4301C16.9535 17.1421 17.0482 16.7724 17.0984 16.158C17.1494 15.5336 17.15 14.7342 17.15 13.6V13.5958V13.5872V13.5786V13.57V13.5613V13.5526V13.544V13.5352V13.5265V13.5178V13.509V13.5002V13.4914V13.4826V13.4738V13.4649V13.4561V13.4472V13.4383V13.4293V13.4204V13.4114V13.4025V13.3935V13.3844V13.3754V13.3664V13.3573V13.3482V13.3391V13.33V13.3208V13.3117V13.3025V13.2933V13.2841V13.2749V13.2657V13.2564V13.2471V13.2378V13.2285V13.2192V13.2099V13.2005V13.1912V13.1818V13.1724V13.1629V13.1535V13.1441V13.1346V13.1251V13.1156V13.1061V13.0966V13.087V13.0775V13.0679V13.0583V13.0487V13.0391V13.0294V13.0198V13.0101V13.0004V12.9907V12.981V12.9713V12.9616V12.9518V12.942V12.9323V12.9225V12.9126V12.9028V12.893V12.8831V12.8732V12.8634V12.8535V12.8436V12.8336V12.8237V12.8137V12.8038V12.7938V12.7838V12.7738V12.7638V12.7537V12.7437V12.7336V12.7236V12.7135V12.7034V12.6933V12.6832V12.673V12.6629V12.6527V12.6425V12.6324V12.6222V12.612V12.6017V12.5915V12.5812V12.571V12.5607V12.5504V12.5401V12.5298V12.5195V12.5092V12.4989V12.4885V12.4781V12.4678V12.4574V12.447V12.4366V12.4262V12.4157V12.4053V12.3948V12.3844V12.3739V12.3634V12.3529V12.3424V12.3319V12.3214V12.3108V12.3003V12.2897V12.2792V12.2686V12.258V12.2474V12.2368V12.2262V12.2156V12.2049V12.1943V12.1836V12.173V12.1623V12.1516V12.1409V12.1302V12.1195V12.1088V12.0981V12.0873V12.0766V12.0658V12.0551V12.0443V12.0335V12.0227V12.0119V12.0011V11.9903V11.9795V11.9687V11.9578V11.947V11.9361V11.9253V11.9144V11.9035V11.8926V11.8818V11.8709V11.8599V11.849V11.8381V11.8272V11.8162V11.8053V11.7944V11.7834V11.7724V11.7615V11.7505V11.7395V11.7285V11.7175V11.7065V11.6955V11.6845V11.6735V11.6624V11.6514V11.6404V11.6293V11.6183V11.6072V11.5961V11.5851V11.574V11.5629V11.5518V11.5407V11.5296V11.5185V11.5074V11.4963V11.4852V11.4741V11.4629V11.4518V11.4407V11.4295V11.4184V11.4072V11.3961V11.3849V11.3737V11.3626V11.3514V11.3402V11.329V11.3178V11.3066V11.2954V11.2842V11.273V11.2618V11.2506V11.2394V11.2282V11.217V11.2057V11.1945V11.1833V11.172V11.1608V11.1496V11.1383V11.1271V11.1158V11.1046V11.0933V11.082V11.0708V11.0595V11.0483V11.037V11.0257V11.0144V11.0032V10.9919V10.9806V10.9693V10.958V10.9468V10.9355V10.9242V10.9129V10.9016V10.8903V10.879V10.8677V10.8564V10.8451V10.8338V10.8225V10.8112V10.7999V10.7886V10.7773V10.766V10.7547V10.7434V10.7321V10.7207V10.7094V10.6981V10.6868V10.6755V10.6642V10.6529V10.6416V10.6303V10.6189V10.6076V10.5963V10.585V10.5737V10.5624V10.5511V10.5398V10.5285V10.5172V10.5059V10.4946V10.4833V10.4719V10.4606V10.4493V10.438V10.4267V10.4154V10.4041V10.4Z" fill="#374151"/>
</svg>
