<svg width="858" height="349" viewBox="0 0 858 349" fill="none" xmlns="http://www.w3.org/2000/svg">
<rect width="858" height="349" fill="#feedb8"/>
<path d="M51.3441 159.113C51.5005 161.806 52.6107 164.454 54.674 166.507C59.1233 170.933 66.3179 170.914 70.7441 166.465C72.957 164.24 74.059 161.33 74.0514 158.421C74.0439 155.513 72.9267 152.607 70.7022 150.395C68.639 148.343 65.9849 147.246 63.2908 147.104L51.3441 159.113ZM66.4929 161.629L66.4988 163.879L62.5164 161.504L64.3375 160.404L66.4929 161.629ZM66.4901 160.538L59.8664 156.776L66.4704 152.979L66.4901 160.538ZM62.2146 149.528C62.0907 150.256 61.8888 150.969 61.6106 151.66C61.0901 152.953 60.3234 154.114 59.3316 155.111C58.2675 156.181 57.0183 156.99 55.6187 157.516C55.0122 157.744 54.3924 157.913 53.7624 158.024L62.2146 149.528ZM66.8548 148.9C68.0396 149.417 69.1094 150.146 70.0345 151.066C71.0316 152.058 71.8046 153.215 72.3316 154.505C72.841 155.753 73.1009 157.07 73.1044 158.423C73.1079 159.777 72.8549 161.096 72.352 162.346C71.8317 163.639 71.0648 164.8 70.0729 165.797C69.0807 166.794 67.9236 167.568 66.6335 168.094C65.3866 168.604 64.0685 168.864 62.7154 168.867C61.3619 168.871 60.0424 168.618 58.793 168.115C57.5002 167.595 56.3391 166.827 55.3417 165.835C54.4165 164.915 53.6826 163.849 53.1601 162.668C52.7108 161.651 52.4297 160.579 52.3219 159.472L52.6882 159.104C54.7236 158.972 56.7303 158.294 58.4701 157.072L63.3937 159.869L60.6757 161.509L67.4502 165.549L67.4414 162.167L67.4291 157.433L67.4132 151.345L60.3656 155.397C62.1651 153.414 63.139 150.952 63.2887 148.448L63.6558 148.079C64.7628 148.181 65.837 148.457 66.8548 148.9Z" fill="url(#paint0_linear_2751:1538)" style="mix-blend-mode:multiply"/>
<path d="M46.5482 61.583L53.0564 67.1125L53.6495 67.6164L60.1577 73.1458L70.2745 61.2383L63.7663 55.7089L63.1732 55.205L56.665 49.6755L46.5482 61.583ZM69.224 61.3242L60.0723 72.0957L54.1319 67.0486L63.2835 56.2771L69.224 61.3242ZM53.5388 66.5447L47.5983 61.4976L56.75 50.7261L62.6904 55.7732L53.5388 66.5447L53.5388 66.5447Z" fill="white"/>
<path d="M53.0545 60.1742L51.5789 59.9317L52.771 63.4539L53.8035 62.2387L55.2492 60.5371L57.1064 58.3512L52.0517 57.4035L53.0545 60.1742ZM53.0547 61.9694L52.6798 60.867L53.3471 60.9771L53.5106 61.4328L53.0547 61.9694ZM54.0657 60.7794L53.1951 58.375L55.7087 58.8457L54.0657 60.7794Z" fill="white"/>
<path d="M57.4329 59.1143L53.5782 63.6513C53.4462 63.8067 53.4654 64.0432 53.6224 64.1766C53.7774 64.3083 54.014 64.289 54.1459 64.1337L58.0007 59.5966C58.1341 59.4397 58.1127 59.2055 57.9578 59.0739C57.8008 58.9405 57.5663 58.9573 57.4329 59.1143Z" fill="white"/>
<path d="M60.0994 69.1923C59.9674 69.3477 59.9848 69.5827 60.1418 69.7161C60.2988 69.8494 60.5333 69.8285 60.6653 69.6731C60.7987 69.5161 60.7815 69.2813 60.6245 69.1479C60.4675 69.0145 60.2328 69.0354 60.0994 69.1923Z" fill="white"/>
<path d="M61.0629 68.058C60.9313 68.2129 60.9487 68.4479 61.1057 68.5813C61.2627 68.7147 61.4972 68.6937 61.6288 68.5388C61.7622 68.3818 61.7451 68.1469 61.5881 68.0135C61.431 67.8801 61.1963 67.901 61.0629 68.058Z" fill="white"/>
<path d="M62.0276 66.9221C61.8942 67.0791 61.9116 67.3141 62.0686 67.4475C62.2255 67.5809 62.4601 67.5599 62.5935 67.4029C62.7251 67.248 62.708 67.0131 62.5509 66.8797C62.3939 66.7463 62.1592 66.7672 62.0276 66.9221Z" fill="white"/>
<path d="M62.9915 65.7893C62.8581 65.9463 62.8754 66.1813 63.0324 66.3147C63.1894 66.4481 63.4239 66.4271 63.5573 66.2701C63.6886 66.1156 63.6715 65.8807 63.5144 65.7473C63.3574 65.6139 63.1227 65.6348 62.9915 65.7893Z" fill="white"/>
<path d="M63.9549 64.6552C63.8215 64.8122 63.8403 65.0456 63.9973 65.1789C64.1543 65.3123 64.3874 65.293 64.5208 65.136C64.6541 64.979 64.6349 64.7467 64.4779 64.6133C64.3209 64.4799 64.0883 64.4982 63.9549 64.6552Z" fill="white"/>
<path d="M61.7696 66.0765L63.6267 63.8906L58.5739 62.9445L59.577 65.7154L58.0993 65.4712L59.2914 68.9934L60.3239 67.7781L61.7696 66.0765L61.7696 66.0765ZM62.2309 64.3866L60.5879 66.3204L59.7176 63.9161L62.2309 64.3866ZM59.577 67.5103L59.2022 66.4082L59.8675 66.5165L60.0329 66.9738L59.577 67.5104L59.577 67.5103Z" fill="white"/>
<path d="M58.4804 53.3134C58.276 53.33 58.1229 53.5102 58.1395 53.7146L58.2922 55.5693L57.5501 55.6296C57.3458 55.6462 57.1926 55.8265 57.2093 56.0308C57.2259 56.2351 57.404 56.3865 57.6105 56.3717L58.7215 56.2815C58.9273 56.2633 59.079 56.0847 59.0624 55.8803L58.8816 53.6543C58.865 53.4499 58.6847 53.2967 58.4804 53.3134Z" fill="white"/>
<path d="M65.1947 61.7819C65.4005 61.7636 65.5541 61.5866 65.5356 61.3807L65.537 61.379L65.4752 60.6386L66.2173 60.5783C66.4217 60.5617 66.5748 60.3814 66.5582 60.1771C66.5416 59.9727 66.3632 59.8212 66.157 59.8362L65.4168 59.8981L65.3565 59.156C65.3398 58.9517 65.1596 58.7985 64.9555 58.8153C64.7511 58.8319 64.598 59.0122 64.6146 59.2165L64.6747 59.9585L63.9342 60.0173L63.9328 60.0189C63.7285 60.0356 63.5768 60.2142 63.592 60.4202C63.6084 60.6243 63.7886 60.7775 63.993 60.7609L64.7351 60.7005L64.7935 61.441C64.812 61.6469 64.9904 61.7985 65.1947 61.7819Z" fill="white"/>
<path d="M128.917 74.764L127.787 74.3163L127.41 74.1671L127.034 74.018C126.626 75.0473 125.449 75.5495 124.41 75.1381C123.372 74.7267 122.858 73.555 123.266 72.5257L122.889 72.3764L122.512 72.2272L121.382 71.7796L114.925 72.6766L114.806 77.3794L117.362 77.5281L113.962 86.1134L124.511 90.2916L127.911 81.7064L129.876 83.3483L133.009 79.8392L128.917 74.764ZM129.789 82.2289L128.43 81.0925L127.567 80.372L127.157 81.4078L124.052 89.2462L115.011 85.6649L118.115 77.8265L118.526 76.7907L117.404 76.7254L115.635 76.6226L115.717 73.379L121.286 72.6054L122.326 73.0172C122.223 74.225 122.92 75.4116 124.115 75.8847C125.309 76.3579 126.63 75.9705 127.381 75.0194L128.421 75.4313L131.951 79.8088L129.789 82.2289Z" fill="url(#paint1_linear_2751:1538)" style="mix-blend-mode:multiply"/>
<path d="M121.383 81.0325L121.144 79.6137L118.295 81.7749L119.73 82.3433L121.74 83.1392L124.323 84.1625L123.603 79.2718L121.383 81.0325ZM119.922 81.5557L120.569 81.0644L120.66 81.606L120.457 81.7676L119.922 81.5556L119.922 81.5557ZM121.324 82.1113L123.007 80.7762L123.32 82.9018L121.324 82.1113Z" fill="url(#paint2_linear_2751:1538)" style="mix-blend-mode:multiply"/>
<g clip-path="url(#clip0_2751:1538)">
<path d="M36.9632 105.648L31.1058 111.325L26.6446 107.046C25.7556 106.193 24.3177 106.197 23.4331 107.054C22.9907 107.483 22.7704 108.044 22.7719 108.604C22.7733 109.165 22.9965 109.725 23.4412 110.151L27.9024 114.431L22.045 120.108L25.2646 123.197L31.1219 117.519L36.2498 122.438L39.4616 122.43L39.4535 119.333L34.3253 114.414L40.1827 108.736L36.9632 105.648ZM30.5719 111.843L29.7733 112.617L26.3854 109.367L27.1839 108.593L30.5719 111.843ZM23.9749 109.634C23.6883 109.358 23.5299 108.993 23.5289 108.602C23.5279 108.213 23.6844 107.845 23.9695 107.569C24.5585 106.998 25.519 106.996 26.1106 107.563L26.6473 108.078L24.5115 110.149L23.9749 109.634ZM25.0481 110.663L25.8514 109.885L29.2393 113.134L28.4363 113.913L25.0481 110.663ZM23.1156 120.105L24.1675 119.086L24.7041 119.601C24.8522 119.743 25.092 119.742 25.2394 119.599C25.3868 119.456 25.3862 119.225 25.2381 119.083C25.2381 119.083 25.2378 119.083 25.2375 119.082L24.7014 118.568L25.7693 117.533L26.306 118.048C26.4541 118.19 26.6939 118.189 26.8413 118.046C26.9886 117.904 26.988 117.672 26.8399 117.53C26.8396 117.53 26.8396 117.53 26.8396 117.53L26.3033 117.015L27.3712 115.98L27.9072 116.495C27.9072 116.495 27.9075 116.495 27.9078 116.495C28.0559 116.637 28.2954 116.636 28.4428 116.494C28.5905 116.351 28.5899 116.12 28.4415 115.977L28.4418 115.977L27.9051 115.463L28.9727 114.428L29.5093 114.942C29.6577 115.085 29.8972 115.084 30.0446 114.941C30.192 114.798 30.1914 114.567 30.0433 114.425L29.5066 113.911L30.5745 112.875L31.1112 113.39C31.2593 113.532 31.4991 113.532 31.6465 113.389C31.7939 113.246 31.7932 113.014 31.6451 112.873C31.6448 112.872 31.6448 112.872 31.6448 112.872L31.1085 112.358L32.1764 111.322L32.7127 111.837L32.713 111.837C32.8611 111.979 33.1007 111.979 33.2483 111.836C33.3957 111.693 33.3951 111.462 33.247 111.32L32.7103 110.805L33.7782 109.77L34.3146 110.284C34.463 110.427 34.7025 110.426 34.8499 110.283C34.9973 110.141 34.9969 109.91 34.8485 109.767C34.8485 109.767 34.8485 109.767 34.8482 109.767L34.3119 109.253L35.3798 108.218L35.9161 108.732L35.9164 108.732C36.0646 108.874 36.3043 108.874 36.4517 108.731C36.5991 108.588 36.5985 108.357 36.4504 108.215L35.9137 107.7L36.9659 106.68L39.1122 108.739L25.2619 122.164L23.1156 120.105ZM38.7026 121.702L38.0756 121.704L38.701 121.097L38.7026 121.702ZM38.6972 119.638L38.6984 120.065L37.005 121.707L36.5617 121.708L31.6559 117.001L32.4591 116.223L36.2456 119.855C36.3937 119.997 36.6335 119.997 36.7809 119.854C36.9283 119.711 36.9277 119.48 36.7796 119.338L32.9931 115.705L33.7914 114.931L38.6972 119.638Z" fill="url(#paint3_linear_2751:1538)" style="mix-blend-mode:multiply"/>
</g>
<path d="M157.354 108.69L160.516 111.937C160.661 112.087 160.9 112.09 161.049 111.945C161.199 111.799 161.203 111.56 161.057 111.41L157.896 108.163C157.75 108.014 157.511 108.011 157.361 108.157C157.212 108.302 157.209 108.541 157.354 108.69Z" fill="url(#paint4_linear_2751:1538)" style="mix-blend-mode:multiply"/>
<path d="M159.974 112.465L158.92 111.382C158.775 111.233 158.536 111.229 158.386 111.375C158.237 111.52 158.234 111.759 158.38 111.909L159.433 112.991C159.579 113.141 159.818 113.144 159.967 112.999C160.117 112.853 160.12 112.614 159.974 112.465Z" fill="url(#paint5_linear_2751:1538)" style="mix-blend-mode:multiply"/>
<path d="M152.076 104.65L151.731 105.956L154.998 105.186L153.994 104.155L152.589 102.712L150.782 100.856L149.502 105.316L152.076 104.65ZM153.526 104.757L152.783 104.932L152.915 104.434L153.151 104.373L153.526 104.757ZM152.545 103.75L150.593 104.254L151.149 102.316L152.545 103.75Z" fill="url(#paint6_linear_2751:1538)" style="mix-blend-mode:multiply"/>
<path d="M142.956 106.895L155.075 119.343C155.22 119.492 155.459 119.495 155.609 119.35L163.186 111.973C163.335 111.828 163.338 111.589 163.193 111.439L151.074 98.9913C150.929 98.8423 150.69 98.839 150.541 98.9841L142.963 106.361C142.814 106.507 142.811 106.746 142.956 106.895ZM144.278 107.17L152.629 109.417C152.695 109.435 152.797 109.539 152.813 109.606L154.838 118.016L144.278 107.17ZM162.388 111.696L155.668 118.238L153.547 109.429C153.507 109.262 153.409 109.1 153.28 108.967C153.151 108.834 152.991 108.732 152.825 108.688L144.075 106.333L150.796 99.7892L162.388 111.696Z" fill="url(#paint7_linear_2751:1538)" style="mix-blend-mode:multiply"/>
<path d="M22.5554 134.883C17.9946 134.895 14.3072 138.583 14.319 143.123C14.3229 144.619 14.7287 146.022 15.4347 147.229C14.7351 148.44 14.3365 149.844 14.3404 151.341C14.3522 155.88 18.0588 159.55 22.6196 159.538C25.7008 159.53 28.383 157.844 29.7956 155.351C33.8864 154.852 37.0496 151.377 37.0387 147.173C37.0277 142.968 33.8464 139.51 29.7531 139.032C28.3275 136.547 25.6366 134.875 22.5554 134.883ZM30.326 154.221C30.6707 153.312 30.8586 152.327 30.8559 151.298C30.852 149.801 30.4462 148.399 29.7403 147.192C30.4399 145.981 30.8384 144.576 30.8345 143.08C30.8319 142.051 30.6387 141.067 30.2894 140.16C30.7285 140.252 31.1583 140.386 31.5757 140.56C32.437 140.92 33.2114 141.437 33.8769 142.096C34.5425 142.755 35.0657 143.523 35.432 144.378C35.8108 145.263 36.0042 146.204 36.0067 147.175C36.0093 148.147 35.8208 149.089 35.4466 149.976C35.0848 150.833 34.5655 151.603 33.9034 152.266C33.2413 152.928 32.4697 153.449 31.6102 153.814C31.1937 153.99 30.7646 154.126 30.326 154.221ZM29.1028 140.01C29.1461 140.101 29.1879 140.193 29.2278 140.285C29.6066 141.17 29.8 142.111 29.8026 143.083C29.8051 144.054 29.6167 144.996 29.2424 145.882C29.1925 146.001 29.1394 146.117 29.0838 146.232C27.6168 144.382 25.3686 143.176 22.8361 143.105C23.079 142.756 23.3534 142.427 23.6584 142.123C24.3205 141.46 25.0921 140.939 25.9512 140.575C26.8404 140.198 27.7861 140.006 28.7622 140.003C28.8763 140.003 28.9897 140.005 29.1028 140.01ZM22.2389 144.138C22.3519 144.132 22.4653 144.129 22.5794 144.128C23.5555 144.126 24.5022 144.313 25.393 144.685C26.2543 145.046 27.0287 145.562 27.6942 146.221C27.9997 146.524 28.2746 146.849 28.5182 147.195C28.2764 147.542 28.0032 147.869 27.6993 148.173C27.0372 148.835 26.2655 149.356 25.4061 149.721C24.5172 150.098 23.5715 150.29 22.5955 150.292C22.4814 150.293 22.3679 150.29 22.2549 150.285C22.2115 150.195 22.1697 150.103 22.1298 150.011C21.751 149.125 21.5576 148.184 21.5551 147.213C21.5526 146.242 21.741 145.3 22.1152 144.413C22.1547 144.32 22.196 144.228 22.2389 144.138ZM20.5231 147.216C20.5258 148.244 20.7189 149.229 21.0683 150.135C20.6292 150.042 20.1994 149.91 19.782 149.735C18.9207 149.375 18.1463 148.858 17.4807 148.2C17.1753 147.897 16.9003 147.572 16.6567 147.226C16.8985 146.878 17.1718 146.552 17.4757 146.248C18.1377 145.585 18.9094 145.065 19.7689 144.7C20.1853 144.524 20.6144 144.388 21.053 144.293C20.7084 145.202 20.5205 146.187 20.5231 147.216ZM22.8575 151.314C25.3896 151.23 27.6315 150.012 29.0888 148.155C29.145 148.27 29.1987 148.386 29.2493 148.504C29.6281 149.388 29.8214 150.329 29.824 151.3C29.8265 152.272 29.6381 153.214 29.2638 154.101C29.2244 154.194 29.183 154.286 29.1402 154.377C29.0272 154.382 28.9138 154.385 28.7996 154.385C27.8236 154.388 26.8769 154.2 25.9861 153.828C25.1248 153.468 24.3504 152.951 23.6849 152.292C23.3783 151.989 23.1022 151.662 22.8575 151.314ZM16.0911 148.189C17.4148 149.858 19.3744 151.003 21.6046 151.262C22.9899 153.678 25.5708 155.325 28.543 155.409C28.3001 155.758 28.0257 156.086 27.7207 156.391C27.0586 157.054 26.287 157.574 25.4275 157.939C24.5386 158.316 23.593 158.508 22.6169 158.511C21.6409 158.514 20.6942 158.326 19.8034 157.953C18.9421 157.594 18.1677 157.077 17.5021 156.418C16.8366 155.759 16.3133 154.991 15.9471 154.136C15.5683 153.251 15.3749 152.31 15.3723 151.338C15.3698 150.367 15.5582 149.425 15.9325 148.538C15.9825 148.42 16.0355 148.304 16.0911 148.189ZM19.7475 136.482C20.6364 136.105 21.582 135.912 22.558 135.91C23.5341 135.907 24.4808 136.095 25.3716 136.467C26.2329 136.827 27.0073 137.343 27.6728 138.003C27.9794 138.306 28.2555 138.633 28.5002 138.981C25.5285 139.08 22.9562 140.741 21.5835 143.163C19.3547 143.435 17.401 144.59 16.0861 146.266C16.0299 146.151 15.9763 146.035 15.9257 145.917C15.5469 145.032 15.3535 144.092 15.351 143.12C15.3485 142.149 15.5369 141.206 15.9111 140.32C16.2729 139.462 16.7922 138.692 17.4543 138.03C18.1163 137.367 18.888 136.846 19.7475 136.482Z" fill="url(#paint8_linear_2751:1538)" style="mix-blend-mode:multiply"/>
<path d="M41.0251 206.174L44.2912 201.4L45.6911 199.353L48.9576 194.578L33.054 182.698L24.1885 195.657L41.0251 206.174ZM40.7903 205.053L39.3876 204.177L42.245 200L43.6091 200.933L40.7903 205.053ZM44.0759 200.25L41.3478 198.384L41.8143 197.702L44.5424 199.569L44.0759 200.25ZM45.0089 198.887L43.6448 197.953L46.5026 193.776L47.8277 194.766L45.0089 198.887ZM33.2501 183.875L45.8399 193.281L42.9627 197.487L41.5986 196.554C41.4103 196.425 41.1534 196.473 41.0246 196.661C40.8958 196.849 40.9438 197.107 41.1321 197.236C40.9438 197.107 40.6866 197.155 40.5577 197.343C40.4289 197.532 40.4773 197.789 40.6656 197.917C40.4773 197.789 40.2201 197.837 40.0913 198.025C39.9624 198.214 40.0104 198.471 40.1988 198.6L41.5629 199.533L38.686 203.738L25.3572 195.413L33.2501 183.875Z" fill="white"/>
<path d="M37.1048 196.291L35.3588 192.692L37.3864 192.813L35.2803 188.224L34.0582 190.011L32.3473 192.512L30.1475 195.728L37.1048 196.291ZM35.1384 189.896L36.0606 191.906L34.9451 191.839L34.4741 190.867L35.1384 189.896L35.1384 189.896ZM33.9364 191.653L35.73 195.351L31.634 195.019L33.9364 191.653Z" fill="white"/>
<g clip-path="url(#clip1_2751:1538)">
<path d="M112.428 36.4897C110.968 36.4935 109.788 37.6796 109.792 39.1392C109.793 39.3348 109.814 39.5247 109.855 39.7079L108.108 41.4638L103.343 36.7234C102.517 35.9023 101.182 35.9058 100.361 36.7312C99.9506 37.1436 99.7461 37.6836 99.7475 38.2231C99.7489 38.7627 99.9563 39.3017 100.369 39.7125L105.134 44.4534L99.7349 49.8809C99.4613 50.156 99.325 50.5162 99.3259 50.8755C99.3269 51.2354 99.465 51.5949 99.7401 51.8686C100.29 52.4159 101.18 52.4136 101.728 51.8634L107.127 46.4355L112.261 51.543L115.242 51.5353L115.235 48.5534L110.101 43.4464L111.832 41.7059C112.028 41.7517 112.232 41.7759 112.442 41.7753C115.434 41.7675 115.66 37.3534 115.656 35.8938C115.652 34.4343 113.887 36.4859 112.428 36.4897ZM100.45 38.2213C100.449 37.846 100.595 37.493 100.859 37.2267C101.406 36.6774 102.298 36.6751 102.847 37.2215L103.345 37.717L101.363 39.7099L100.864 39.2144C100.598 38.9494 100.451 38.5971 100.45 38.2213ZM101.229 51.3679C100.956 51.6425 100.51 51.6436 100.236 51.3705C100.103 51.238 100.029 51.0616 100.029 50.8737C100.028 50.6863 100.101 50.5095 100.233 50.3763L105.633 44.9489L106.629 45.9399L101.229 51.3679ZM114.538 50.8338L113.956 50.8354L114.536 50.2521L114.538 50.8338ZM114.533 48.8466L114.534 49.258L112.962 50.838L112.55 50.839L101.861 40.2054L102.607 39.4559L112.257 49.0559C112.394 49.193 112.617 49.1924 112.754 49.0546C112.891 48.9173 112.89 48.6944 112.752 48.5578L103.102 38.9578L103.843 38.2125L114.533 48.8466ZM109.603 42.9509L108.606 41.9599L110.131 40.4274C110.365 40.8427 110.707 41.1883 111.12 41.4256L109.603 42.9509ZM114.506 39.1562C114.302 39.7679 114.035 40.2396 113.713 40.5586C113.365 40.9029 112.949 41.0708 112.44 41.0721C111.922 41.0734 111.434 40.8734 111.067 40.5078C110.699 40.1422 110.496 39.6558 110.495 39.1373C110.492 38.0675 111.36 37.1952 112.43 37.1924C113.23 37.1903 114.009 36.762 114.635 36.4175C114.728 36.3663 114.841 36.3042 114.95 36.2473C114.932 37.0041 114.842 38.1504 114.506 39.1562Z" fill="url(#paint9_linear_2751:1538)" style="mix-blend-mode:multiply"/>
</g>
<g clip-path="url(#clip2_2751:1538)">
<path d="M87.801 94.6889L96.5248 63.5912L89.8472 61.7173L81.1228 92.8158L87.801 94.6889ZM95.1003 64.3916L94.4844 66.5847L93.3715 66.2719C93.0641 66.1863 92.7453 66.3654 92.6585 66.6725C92.5729 66.9799 92.7521 67.2988 93.0591 67.3855C93.0599 67.3851 93.0599 67.3851 93.0599 67.3851L94.1723 67.6972L93.5479 69.9233L92.4354 69.6112C92.1276 69.5249 91.8087 69.704 91.7223 70.0119C91.6363 70.3185 91.8152 70.6385 92.1225 70.7241L93.236 71.0362L92.6115 73.2623L91.4983 72.9507L91.4981 72.9503C91.1912 72.8639 90.8716 73.0435 90.7858 73.3505C90.6994 73.6583 90.8786 73.9772 91.1862 74.0631C91.1864 74.0635 91.1864 74.0635 91.1864 74.0635L92.2989 74.3756L91.6744 76.6017L90.5617 76.2892C90.2541 76.2032 89.9352 76.3824 89.8486 76.6898C89.7628 76.9969 89.9422 77.3161 90.249 77.4025L91.3625 77.7145L90.738 79.9407L89.6253 79.6282C89.3175 79.5419 88.9988 79.7214 88.9123 80.0288C88.8257 80.3363 89.0049 80.6551 89.3127 80.7415L90.4261 81.0535L89.8014 83.2793L88.688 82.9673C88.3811 82.8809 88.0615 83.0604 87.9757 83.3675C87.8893 83.6753 88.0685 83.9941 88.3761 84.0801C88.3763 84.0805 88.3763 84.0805 88.3763 84.0805L89.4888 84.3926L88.8643 86.6187L87.7516 86.3062C87.444 86.2203 87.1251 86.3994 87.0386 86.7069C86.9528 87.0139 87.1321 87.3331 87.439 87.4195C87.439 87.4195 87.439 87.4195 87.4397 87.4191L88.5524 87.7316L87.9279 89.9577L86.8157 89.646C86.8155 89.6456 86.8152 89.6452 86.8152 89.6452C86.5076 89.5593 86.1888 89.7384 86.1022 90.0459C86.0156 90.3533 86.195 90.6725 86.5026 90.7585L87.6153 91.071L87.0002 93.2637L82.5481 92.0151L90.648 63.1426L95.1003 64.3916Z" fill="url(#paint10_linear_2751:1538)" style="mix-blend-mode:multiply"/>
</g>
<path d="M32.8032 69.8149L21.5339 78.9587C21.399 79.0681 21.3781 79.2668 21.4879 79.4021L27.8485 87.2414C27.9583 87.3767 28.1571 87.3972 28.292 87.2877L32.3578 83.9888L33.2572 85.6966L33.1592 85.7761C33.0243 85.8855 33.0036 86.0844 33.1133 86.2197C33.2231 86.355 33.4219 86.3755 33.5568 86.266L37.4769 83.0853C37.6118 82.9759 37.6327 82.7772 37.5229 82.6419C37.4131 82.5066 37.2142 82.4859 37.0793 82.5953L36.981 82.6751L35.4948 81.4434L39.5613 78.144C39.6962 78.0345 39.7171 77.8358 39.6073 77.7005L33.2467 69.8612C33.1369 69.726 32.9381 69.7054 32.8032 69.8149ZM33.7571 85.2909L32.8589 83.5855L34.9965 81.8502L36.4815 83.0804L33.7571 85.291L33.7571 85.2909ZM32.9553 70.5041L38.1232 76.8733L27.3448 85.6187L22.177 79.2495L32.9553 70.5041ZM33.5292 82.226L28.14 86.5987L27.7424 86.1087L33.1316 81.736L38.5208 77.3633L38.9184 77.8533L33.5292 82.226Z" fill="url(#paint11_linear_2751:1538)" style="mix-blend-mode:multiply"/>
<path d="M33.5755 81.7823C33.4657 81.647 33.2673 81.6262 33.1321 81.736C32.9968 81.8458 32.9763 82.0442 33.086 82.1795C33.1958 82.3148 33.3944 82.3358 33.5296 82.226C33.6649 82.1163 33.6853 81.9176 33.5755 81.7823Z" fill="url(#paint12_linear_2751:1538)" style="mix-blend-mode:multiply"/>
<path d="M23.7071 79.6326L31.0557 73.6702C31.0557 73.6702 31.056 73.6699 31.0564 73.6696C31.1913 73.5601 31.2122 73.3614 31.1024 73.2261C30.9926 73.0908 30.7937 73.0701 30.6588 73.1796L23.3096 79.1426C23.1739 79.2527 23.1532 79.4516 23.263 79.5869C23.3727 79.7222 23.5715 79.7427 23.7071 79.6326Z" fill="url(#paint13_linear_2751:1538)" style="mix-blend-mode:multiply"/>
<path d="M24.5025 80.6119L28.4215 77.4321C28.4219 77.4318 28.4219 77.4318 28.4219 77.4318C28.5572 77.3221 28.5777 77.1236 28.4679 76.9883C28.3581 76.8531 28.1597 76.8322 28.0244 76.942L24.1051 80.1221C23.9694 80.2322 23.9486 80.4309 24.0583 80.5662C24.1681 80.7015 24.3669 80.722 24.5025 80.6119Z" fill="url(#paint14_linear_2751:1538)" style="mix-blend-mode:multiply"/>
<path d="M25.2982 81.5936L30.687 77.2211C30.6874 77.2208 30.6874 77.2208 30.6874 77.2208C30.8227 77.1111 30.8432 76.9127 30.7334 76.7774C30.6236 76.6421 30.4251 76.6211 30.2898 76.7309L24.9006 81.1036C24.765 81.2136 24.7441 81.4124 24.8539 81.5476C24.9638 81.6831 25.1626 81.7036 25.2982 81.5936Z" fill="url(#paint15_linear_2751:1538)" style="mix-blend-mode:multiply"/>
<path d="M26.0928 82.5721L29.5219 79.7897C29.6575 79.6797 29.6784 79.4809 29.5687 79.3457C29.4589 79.2104 29.2601 79.1898 29.1245 79.2999L25.6952 82.0821C25.5595 82.1921 25.5388 82.3911 25.6486 82.5263C25.7584 82.6616 25.9571 82.6821 26.0928 82.5721Z" fill="url(#paint16_linear_2751:1538)" style="mix-blend-mode:multiply"/>
<path d="M26.8881 83.5524L33.257 78.3848L33.2571 78.385C33.3928 78.2749 33.4135 78.076 33.3037 77.9407C33.1939 77.8054 32.9952 77.7849 32.8595 77.895L26.4907 83.0626C26.3551 83.1726 26.3342 83.3713 26.444 83.5066C26.5537 83.6419 26.7525 83.6624 26.8881 83.5524Z" fill="url(#paint17_linear_2751:1538)" style="mix-blend-mode:multiply"/>
<path d="M27.6828 84.5321L29.6422 82.9423C29.7778 82.8322 29.7987 82.6335 29.6889 82.4982C29.5791 82.3629 29.3802 82.3422 29.2446 82.4523L27.2853 84.042C27.1496 84.1521 27.1287 84.3508 27.2385 84.4861C27.3484 84.6216 27.5472 84.6421 27.6828 84.5321Z" fill="url(#paint18_linear_2751:1538)" style="mix-blend-mode:multiply"/>
<path d="M49.5635 114.548L62.5818 129.267C62.7381 129.444 63.0082 129.46 63.1849 129.304L73.4238 120.248C73.6005 120.091 73.6168 119.821 73.4605 119.645L68.7636 114.334L71.0221 113.019L71.1352 113.147C71.2915 113.324 71.5618 113.341 71.7385 113.184C71.9152 113.028 71.9315 112.758 71.7752 112.581L67.247 107.462C67.0907 107.285 66.8211 107.269 66.6444 107.425C66.4677 107.581 66.4507 107.851 66.607 108.028L66.7202 108.156L65.1399 110.238L60.4422 104.926C60.2859 104.75 60.0163 104.733 59.8396 104.89L49.6007 113.946C49.4239 114.102 49.4072 114.372 49.5635 114.548ZM70.445 112.367L68.1895 113.68L65.7185 110.888L67.2973 108.808L70.445 112.367L70.445 112.367ZM53.6862 111.472L55.3842 113.392L52.1847 116.222L50.4866 114.302L53.6862 111.472ZM56.0242 112.826L54.3262 110.906L58.8055 106.944L60.5035 108.864L56.0242 112.826ZM52.7505 116.862L61.0694 109.504L71.2576 121.023L62.9387 128.381L52.7505 116.862ZM66.3118 112.852L72.5376 119.89L71.8976 120.457L65.6718 113.418L59.4455 106.378L60.0855 105.812L66.3118 112.852Z" fill="url(#paint19_linear_2751:1538)" style="mix-blend-mode:multiply"/>
<path d="M65.7086 112.816C65.5319 112.972 65.5152 113.241 65.6719 113.419C65.8282 113.595 66.0978 113.612 66.2745 113.455C66.4512 113.299 66.4681 113.029 66.3119 112.853C66.1552 112.675 65.8853 112.659 65.7086 112.816Z" fill="url(#paint20_linear_2751:1538)" style="mix-blend-mode:multiply"/>
<path d="M63.2741 117.167L61.3335 114.973L59.6455 119.942L62.5906 119.329L62.13 120.786L65.8618 120.093L64.7835 118.873L63.2741 117.167ZM60.9353 118.801L61.669 116.642L63.168 118.337L60.9353 118.801ZM64.2218 119.528L63.3739 119.686L63.5496 119.13L63.8201 119.074L64.2218 119.528Z" fill="url(#paint21_linear_2751:1538)" style="mix-blend-mode:multiply"/>
<path d="M61.9542 124.689L62.52 125.329L63.16 124.763L62.5942 124.123L61.9542 124.689Z" fill="url(#paint22_linear_2751:1538)" style="mix-blend-mode:multiply"/>
<path d="M58.8414 121.171L59.4072 121.811L60.0472 121.244L59.4814 120.605L58.8414 121.171Z" fill="url(#paint23_linear_2751:1538)" style="mix-blend-mode:multiply"/>
<path d="M55.7283 117.651L56.2946 118.291L56.9346 117.725L56.3683 117.085L55.7283 117.651Z" fill="url(#paint24_linear_2751:1538)" style="mix-blend-mode:multiply"/>
<path d="M58.2888 115.387L58.8551 116.027L59.4949 115.461L58.9286 114.821L58.2888 115.387Z" fill="url(#paint25_linear_2751:1538)" style="mix-blend-mode:multiply"/>
<path d="M60.8484 113.122L61.4147 113.763L62.0547 113.197L61.4884 112.556L60.8484 113.122Z" fill="url(#paint26_linear_2751:1538)" style="mix-blend-mode:multiply"/>
<path d="M67.0741 120.161L67.64 120.801L68.28 120.235L67.7142 119.595L67.0741 120.161Z" fill="url(#paint27_linear_2751:1538)" style="mix-blend-mode:multiply"/>
<path d="M64.5146 122.425L65.0804 123.064L65.7202 122.499L65.1543 121.859L64.5146 122.425Z" fill="url(#paint28_linear_2751:1538)" style="mix-blend-mode:multiply"/>
<path d="M63.9615 116.641L64.5273 117.281L65.1674 116.715L64.6015 116.075L63.9615 116.641Z" fill="url(#paint29_linear_2751:1538)" style="mix-blend-mode:multiply"/>
<circle cx="75.344" cy="31.9053" r="5.05686" transform="rotate(-90.1492 75.344 31.9053)" stroke="url(#paint30_linear_2751:1538)" stroke-width="10" style="mix-blend-mode:multiply"/>
<path d="M198.171 81.2577L195.632 81.2643L195.642 85.1229L191.169 85.1345L191.176 87.7987L195.649 87.7871L195.659 91.6456L198.198 91.639L198.188 87.7805L202.855 87.7683L202.848 85.1041L198.181 85.1162L198.171 81.2577Z" fill="white"/>
<path d="M203.557 58.1915C202.579 58.1942 194.253 60.8798 197.158 50.4818C200.063 40.0839 195.168 36.8996 185.744 34.7928C176.32 32.686 175.416 26.4719 175.581 21.5871" stroke="url(#paint31_linear_2751:1538)" stroke-width="8" stroke-linecap="round" stroke-linejoin="round" style="mix-blend-mode:multiply"/>
<path d="M43.0795 30.2392C43.2556 30.5821 45.6875 33.0284 41.5286 33.8632C37.3697 34.698 37.1328 36.9864 38.0845 40.6737C39.0363 44.361 37.0241 45.7879 35.2853 46.6016" stroke="url(#paint32_linear_2751:1538)" stroke-width="8" stroke-linecap="round" stroke-linejoin="round" style="mix-blend-mode:multiply"/>
<g clip-path="url(#clip3_2751:1538)">
<path d="M240.955 20.0091L235.098 25.6865L230.636 21.4073C229.747 20.5542 228.309 20.558 227.425 21.4157C226.982 21.8445 226.762 22.4054 226.764 22.9656C226.765 23.5259 226.988 24.0862 227.433 24.5127L231.894 28.7919L226.037 34.4694L229.256 37.558L235.114 31.8806L240.242 36.7997L243.453 36.7913L243.445 33.6943L238.317 28.7752L244.174 23.0978L240.955 20.0091ZM234.564 26.2044L233.765 26.9784L230.377 23.7282L231.176 22.9541L234.564 26.2044ZM227.967 23.9949C227.68 23.7198 227.522 23.3539 227.521 22.9637C227.52 22.5739 227.676 22.2068 227.961 21.9302C228.55 21.3598 229.511 21.3573 230.102 21.9246L230.639 22.4396L228.503 24.5099L227.967 23.9949ZM229.04 25.0244L229.843 24.246L233.231 27.4957L232.428 28.2746L229.04 25.0244ZM227.107 34.4666L228.159 33.447L228.696 33.962C228.844 34.1038 229.084 34.1032 229.231 33.9606C229.378 33.8175 229.378 33.5865 229.23 33.4442C229.23 33.4442 229.229 33.4442 229.229 33.4436L228.693 32.9297L229.761 31.8945L230.298 32.409C230.446 32.5514 230.686 32.5508 230.833 32.4076C230.98 32.2651 230.98 32.0336 230.832 31.8917C230.831 31.8917 230.831 31.8917 230.831 31.8917L230.295 31.3767L231.363 30.3416L231.899 30.8561C231.899 30.8561 231.899 30.8566 231.9 30.8566C232.048 30.9984 232.287 30.9978 232.435 30.8552C232.582 30.7121 232.582 30.4811 232.433 30.3388L232.433 30.3388L231.897 29.8243L232.964 28.7892L233.501 29.3037C233.649 29.446 233.889 29.4454 234.036 29.3023C234.184 29.1597 234.183 28.9287 234.035 28.7864L233.498 28.2719L234.566 27.2367L235.103 27.7512C235.251 27.8936 235.491 27.893 235.638 27.7498C235.786 27.6073 235.785 27.3757 235.637 27.2339C235.637 27.2334 235.637 27.2334 235.637 27.2334L235.1 26.7189L236.168 25.6837L236.704 26.1988L236.705 26.1988C236.853 26.3406 237.092 26.34 237.24 26.1974C237.387 26.0543 237.387 25.8233 237.239 25.681L236.702 25.1664L237.77 24.1313L238.306 24.6458C238.455 24.7882 238.694 24.7876 238.842 24.6444C238.989 24.5018 238.989 24.2709 238.84 24.1285C238.84 24.1285 238.84 24.1285 238.84 24.1285L238.304 23.614L239.371 22.5789L239.908 23.0928L239.908 23.0934C240.056 23.2357 240.296 23.2351 240.443 23.092C240.591 22.9489 240.59 22.7179 240.442 22.5761L239.905 22.061L240.958 21.0414L243.104 23.1006L229.254 36.5257L227.107 34.4666ZM242.694 36.0635L242.067 36.0652L242.693 35.4583L242.694 36.0635ZM242.689 33.9988L242.69 34.4265L240.997 36.068L240.553 36.0691L235.648 31.3628L236.451 30.5844L240.237 34.2164C240.385 34.3588 240.625 34.3581 240.773 34.215C240.92 34.0724 240.919 33.8415 240.771 33.6991L236.985 30.0666L237.783 29.2925L242.689 33.9988Z" fill="white"/>
</g>
<path d="M80.3382 192.506L77.749 194.978L86.1972 197.763L85.3573 194.042L84.1813 188.834L82.6696 182.138L73.5975 190.443L80.3382 192.506ZM84.5163 195.911L80.0853 194.451L81.6889 192.919L84.0006 193.627L84.5163 195.911ZM83.688 192.242L76.0197 189.896L81.9355 184.48L83.688 192.242Z" fill="white"/>
<path d="M64.0781 186.336L62.8506 186.613C62.5116 186.69 62.2976 187.02 62.3725 187.352C62.4477 187.685 62.7829 187.891 63.1219 187.815L64.3494 187.537L64.8922 189.942L63.6646 190.219C63.3257 190.295 63.1117 190.626 63.1866 190.958C63.2617 191.29 63.597 191.497 63.9359 191.42L65.1635 191.143L65.7062 193.547L64.4786 193.824C64.1397 193.9 63.9257 194.231 64.0007 194.563C64.0757 194.895 64.4111 195.102 64.75 195.026L65.9776 194.749L66.5202 197.152L65.2927 197.43C64.9537 197.506 64.7398 197.837 64.8147 198.169C64.8898 198.501 65.2251 198.708 65.5641 198.632L66.7916 198.354L67.3343 200.758L66.1067 201.035C65.7678 201.112 65.5539 201.443 65.6288 201.775C65.7038 202.107 66.0392 202.314 66.3781 202.237L67.6057 201.96L68.4198 205.566L95.4244 199.469L90.2687 176.633L63.2641 182.73L64.0781 186.336ZM89.3375 178.106L93.9505 198.538L69.3504 204.092L68.8077 201.689L69.9838 201.423C70.3227 201.347 70.5371 201.016 70.462 200.683C70.3871 200.351 70.0513 200.145 69.7124 200.221L68.5363 200.487L67.9937 198.083L69.1697 197.818C69.5087 197.741 69.723 197.41 69.648 197.078C69.573 196.746 69.2372 196.539 68.8983 196.615L67.7223 196.881L67.1796 194.477L68.3557 194.212C68.6946 194.135 68.9089 193.804 68.8339 193.472C68.759 193.14 68.4232 192.933 68.0843 193.01L66.9082 193.275L66.3655 190.872L67.5416 190.606C67.8805 190.53 68.095 190.199 68.0198 189.866C67.9449 189.534 67.6092 189.328 67.2703 189.405L66.0942 189.67L65.5515 187.266L66.7275 187.001C67.0665 186.924 67.2809 186.593 67.2058 186.261C67.1308 185.929 66.7951 185.722 66.4562 185.799L65.2802 186.064L64.7374 183.66L89.3375 178.106Z" fill="white"/>
<path d="M692.714 57.9834C690.021 58.1327 687.37 59.236 685.311 61.294C680.874 65.7318 680.874 72.9264 685.311 77.3642C687.531 79.5829 690.438 80.6924 693.347 80.6924C696.255 80.6924 699.163 79.5829 701.382 77.3642C703.439 75.3062 704.543 72.6551 704.692 69.9613L692.714 57.9834ZM690.159 73.1256H687.909L690.294 69.1494L691.389 70.9734L690.159 73.1256ZM691.249 73.1256L695.029 66.5117L698.809 73.1256H691.249ZM702.271 68.8788C701.543 68.753 700.831 68.5493 700.14 68.2693C698.849 67.7453 697.689 66.9757 696.695 65.9813C695.628 64.9144 694.822 63.6631 694.3 62.2621C694.074 61.6551 693.906 61.0348 693.797 60.4045L702.271 68.8788ZM702.886 73.5207C702.367 74.704 701.635 75.7719 700.712 76.6947C699.718 77.6892 698.559 78.4591 697.267 78.9828C696.019 79.489 694.7 79.7454 693.347 79.7454C691.994 79.7454 690.675 79.489 689.427 78.9828C688.135 78.4591 686.976 77.6892 685.982 76.6947C684.987 75.6999 684.216 74.5408 683.693 73.2493C683.187 72.0011 682.93 70.6824 682.93 69.3292C682.93 67.9757 683.187 66.6569 683.693 65.4088C684.216 64.1173 684.987 62.9582 685.982 61.9634C686.904 61.0407 687.972 60.3095 689.155 59.7901C690.172 59.3434 691.245 59.0652 692.353 58.9602L692.72 59.3275C692.847 61.3633 693.519 63.3716 694.736 65.1146L691.927 70.0309L690.294 67.3087L686.236 74.0727H689.618H694.353H700.44L696.407 67.0146C698.385 68.8192 700.845 69.7995 703.348 69.9557L703.716 70.3238C703.611 71.4305 703.333 72.504 702.886 73.5207Z" fill="#FBBF24"/>
<path d="M790.257 53.4414L784.71 59.9352L784.205 60.527L778.659 67.0207L790.54 77.1685L796.086 70.6747L796.591 70.0829L802.138 63.5891L790.257 53.4414ZM790.457 76.1178L779.709 66.9381L784.771 61.0108L795.519 70.1905L790.457 76.1178ZM785.277 60.419L790.339 54.4917L801.087 63.6714L796.025 69.5987L785.277 60.419L785.277 60.419Z" fill="white"/>
<path d="M791.649 59.9514L791.896 58.4764L788.37 59.6594L789.583 60.695L791.281 62.1452L793.462 64.008L794.423 58.9558L791.649 59.9514ZM789.854 59.9469L790.957 59.5748L790.846 60.2419L790.389 60.4042L789.854 59.9469ZM791.041 60.961L793.448 60.0967L792.971 62.609L791.041 60.961Z" fill="white"/>
<path d="M792.698 64.3326L788.171 60.466C788.016 60.3336 787.779 60.3522 787.645 60.5089C787.513 60.6635 787.532 60.9001 787.687 61.0325L792.214 64.8991C792.371 65.0329 792.605 65.0121 792.737 64.8575C792.871 64.7009 792.855 64.4663 792.698 64.3326Z" fill="white"/>
<path d="M782.613 66.9728C782.458 66.8405 782.223 66.8572 782.089 67.0139C781.955 67.1705 781.976 67.4051 782.131 67.5375C782.287 67.6713 782.522 67.6547 782.656 67.4981C782.79 67.3414 782.77 67.1066 782.613 66.9728Z" fill="white"/>
<path d="M783.744 67.9393C783.589 67.8073 783.354 67.824 783.221 67.9807C783.087 68.1373 783.107 68.3719 783.262 68.5039C783.418 68.6377 783.653 68.6212 783.787 68.4645C783.921 68.3078 783.901 68.0731 783.744 67.9393Z" fill="white"/>
<path d="M784.878 68.9069C784.721 68.7731 784.486 68.7898 784.352 68.9465C784.218 69.1031 784.239 69.3377 784.395 69.4715C784.55 69.6035 784.785 69.587 784.919 69.4303C785.052 69.2737 785.032 69.0389 784.878 68.9069Z" fill="white"/>
<path d="M786.008 69.8737C785.852 69.7399 785.616 69.7566 785.483 69.9133C785.349 70.0699 785.369 70.3045 785.526 70.4383C785.68 70.57 785.915 70.5534 786.049 70.3968C786.183 70.2401 786.162 70.0054 786.008 69.8737Z" fill="white"/>
<path d="M787.14 70.84C786.983 70.7062 786.75 70.7244 786.616 70.881C786.482 71.0377 786.501 71.2709 786.658 71.4047C786.814 71.5384 787.047 71.5198 787.181 71.3631C787.314 71.2064 787.297 70.9738 787.14 70.84Z" fill="white"/>
<path d="M785.724 68.6511L787.905 70.5139L788.865 65.4636L786.091 66.4594L786.339 64.9824L782.814 66.1653L784.026 67.201L785.724 68.6511L785.724 68.6511ZM787.413 69.1168L785.483 67.4688L787.89 66.6047L787.413 69.1168ZM784.296 66.4548L785.399 66.0829L785.289 66.7479L784.831 66.9121L784.296 66.4548L784.296 66.4548Z" fill="white"/>
<path d="M798.496 65.3951C798.479 65.1907 798.3 65.0371 798.095 65.0532L796.24 65.2011L796.182 64.4588C796.166 64.2544 795.986 64.1008 795.781 64.1169C795.577 64.133 795.425 64.3108 795.44 64.5172L795.527 65.6285C795.545 65.8343 795.723 65.9865 795.927 65.9704L798.154 65.7954C798.358 65.7793 798.512 65.5995 798.496 65.3951Z" fill="white"/>
<path d="M790.01 72.0874C790.028 72.2932 790.205 72.4473 790.411 72.4294L790.412 72.4308L791.153 72.3709L791.211 73.1132C791.227 73.3176 791.407 73.4712 791.611 73.4551C791.816 73.439 791.968 73.261 791.953 73.0548L791.893 72.3144L792.636 72.256C792.84 72.2399 792.994 72.0601 792.977 71.8559C792.961 71.6515 792.781 71.4979 792.577 71.514L791.835 71.5722L791.778 70.8316L791.776 70.8302C791.76 70.6258 791.582 70.4736 791.376 70.4882C791.172 70.5041 791.018 70.684 791.034 70.8884L791.093 71.6306L790.352 71.6871C790.146 71.7051 789.994 71.8831 790.01 72.0874Z" fill="white"/>
<path d="M776.861 135.776L777.311 134.647L777.462 134.27L777.612 133.894C776.584 133.484 776.084 132.305 776.499 131.268C776.913 130.23 778.086 129.72 779.114 130.13L779.264 129.754L779.414 129.378L779.865 128.249L778.985 121.789L774.282 121.658L774.127 124.213L765.55 120.791L761.345 131.329L769.921 134.751L768.274 136.712L771.775 139.854L776.861 135.776ZM769.394 136.628L770.534 135.272L771.256 134.411L770.222 133.998L762.391 130.873L765.996 121.841L773.826 124.966L774.861 125.379L774.929 124.258L775.037 122.489L778.28 122.579L779.039 128.151L778.625 129.189C777.417 129.083 776.229 129.777 775.753 130.97C775.276 132.164 775.66 133.485 776.609 134.239L776.195 135.278L771.808 138.796L769.394 136.628Z" fill="#FBBF24"/>
<path d="M770.612 128.226L772.031 127.99L769.878 125.136L769.305 126.569L768.504 128.576L767.474 131.157L772.367 130.45L770.612 128.226ZM770.093 126.763L770.582 127.411L770.04 127.501L769.879 127.297L770.093 126.763L770.093 126.763ZM769.533 128.164L770.864 129.85L768.738 130.158L769.533 128.164Z" fill="#FBBF24"/>
<g clip-path="url(#clip4_2751:1538)">
<path d="M746.217 43.7419L740.555 37.8697L744.846 33.4197C745.702 32.5329 745.702 31.095 744.846 30.2082C744.419 29.7647 743.858 29.5429 743.298 29.5429C742.738 29.5429 742.177 29.7647 741.749 30.2082L737.458 34.6583L731.796 28.7861L728.699 31.9976L734.361 37.8697L729.429 42.9848V46.1966H732.526L737.458 41.0812L743.12 46.9534L746.217 43.7419ZM740.039 37.3344L739.267 36.5339L742.526 33.1544L743.298 33.955L740.039 37.3344ZM742.266 30.7432C742.541 30.4574 742.908 30.3 743.298 30.3C743.688 30.3 744.054 30.4574 744.33 30.7432C744.899 31.3337 744.899 32.2942 744.33 32.8844L743.814 33.4197L741.749 31.2785L742.266 30.7432ZM741.233 31.8138L742.01 32.6191L738.751 35.9986L737.974 35.1935L741.233 31.8138ZM731.796 29.8567L732.813 30.9112L732.297 31.4465C732.154 31.5943 732.154 31.8341 732.297 31.9818C732.439 32.1296 732.67 32.1296 732.813 31.9818C732.813 31.9818 732.813 31.9815 732.814 31.9813L733.329 31.4465L734.361 32.5171L733.845 33.0524C733.703 33.2002 733.703 33.44 733.845 33.5877C733.988 33.7355 734.219 33.7355 734.361 33.5877C734.361 33.5874 734.361 33.5874 734.361 33.5874L734.878 33.0524L735.91 34.123L735.394 34.6577C735.394 34.6577 735.394 34.658 735.394 34.6583C735.251 34.806 735.251 35.0456 735.394 35.1933C735.536 35.3413 735.767 35.3413 735.91 35.1933V35.1936L736.426 34.6583L737.458 35.7286L736.942 36.2639C736.8 36.4119 736.8 36.6514 736.942 36.7992C737.085 36.9469 737.316 36.9469 737.458 36.7992L737.974 36.2639L739.007 37.3344L738.491 37.8697C738.348 38.0175 738.348 38.2573 738.491 38.405C738.633 38.5528 738.864 38.5528 739.007 38.405C739.007 38.4048 739.007 38.4048 739.007 38.4048L739.523 37.8697L740.555 38.9403L740.039 39.4753V39.4756C739.897 39.6234 739.897 39.8629 740.039 40.0109C740.182 40.1587 740.413 40.1587 740.555 40.0109L741.071 39.4756L742.104 40.5462L741.588 41.0812C741.445 41.2293 741.445 41.4688 741.588 41.6165C741.73 41.7643 741.961 41.7646 742.104 41.6165C742.104 41.6165 742.104 41.6165 742.104 41.6162L742.62 41.0812L743.652 42.1518L743.137 42.6868L743.136 42.6871C742.993 42.8349 742.993 43.0747 743.136 43.2224C743.279 43.3702 743.51 43.3702 743.652 43.2224L744.168 42.6871L745.185 43.7419L743.12 45.8828L729.731 31.9976L731.796 29.8567ZM730.159 45.4395V44.8125L730.764 45.4395H730.159ZM732.223 45.4395H731.796L730.159 43.7419V43.2986L734.878 38.405L735.654 39.2103L732.012 42.9873C731.869 43.1351 731.869 43.3749 732.012 43.5226C732.154 43.6704 732.385 43.6704 732.528 43.5226L736.17 39.7457L736.942 40.546L732.223 45.4395Z" fill="#FBBF24"/>
</g>
<path d="M742.861 164.124L739.606 167.277C739.456 167.422 739.452 167.662 739.597 167.811C739.743 167.961 739.982 167.965 740.132 167.82L743.387 164.667C743.537 164.522 743.541 164.283 743.395 164.133C743.25 163.983 743.011 163.979 742.861 164.124Z" fill="#FBBF24"/>
<path d="M739.08 166.734L740.165 165.684C740.315 165.538 740.319 165.299 740.174 165.15C740.029 165 739.79 164.996 739.64 165.141L738.555 166.192C738.405 166.338 738.401 166.576 738.547 166.726C738.692 166.876 738.93 166.88 739.08 166.734Z" fill="#FBBF24"/>
<path d="M746.915 158.857L745.61 158.508L746.372 161.777L747.405 160.776L748.852 159.375L750.712 157.573L746.256 156.281L746.915 158.857ZM746.804 160.306L746.631 159.563L747.129 159.696L747.19 159.933L746.804 160.306ZM747.814 159.328L747.315 157.374L749.252 157.936L747.814 159.328Z" fill="#FBBF24"/>
<path d="M744.694 149.731L732.215 161.817C732.065 161.962 732.061 162.201 732.206 162.351L739.563 169.948C739.708 170.097 739.947 170.101 740.097 169.956L752.576 157.869C752.726 157.725 752.73 157.485 752.585 157.336L745.228 149.74C745.083 149.59 744.844 149.586 744.694 149.731ZM744.416 151.052L742.146 159.397C742.128 159.463 742.024 159.564 741.957 159.58L733.542 161.584L744.416 151.052ZM739.843 169.15L733.318 162.413L742.132 160.315C742.299 160.275 742.462 160.178 742.595 160.05C742.728 159.921 742.83 159.761 742.875 159.595L745.253 150.851L751.779 157.589L739.843 169.15Z" fill="#FBBF24"/>
<path d="M717.02 29.2578C717.02 24.697 713.341 21 708.802 21C707.305 21 705.902 21.4022 704.693 22.1049C703.483 21.4022 702.08 21 700.584 21C696.044 21 692.365 24.697 692.365 29.2578C692.365 32.339 694.044 35.0256 696.533 36.4447C697.022 40.5367 700.488 43.709 704.693 43.709C708.897 43.709 712.364 40.5367 712.852 36.4447C715.341 35.0256 717.02 32.339 717.02 29.2578ZM697.662 36.9781C698.57 37.3251 699.554 37.5156 700.584 37.5156C702.08 37.5156 703.483 37.1134 704.693 36.4106C705.902 37.1134 707.305 37.5156 708.802 37.5156C709.831 37.5156 710.815 37.325 711.723 36.9781C711.629 37.4169 711.494 37.8464 711.319 38.2633C710.957 39.1237 710.438 39.8967 709.777 40.5605C709.117 41.2243 708.348 41.7456 707.491 42.1097C706.605 42.4862 705.664 42.6771 704.692 42.6771C703.721 42.6771 702.78 42.4862 701.893 42.1097C701.037 41.7457 700.268 41.2243 699.608 40.5605C698.947 39.8967 698.428 39.1237 698.066 38.2633C697.891 37.8464 697.756 37.4169 697.662 36.9781ZM711.876 35.7918C711.785 35.8349 711.693 35.8765 711.601 35.9162C710.715 36.2927 709.773 36.4836 708.802 36.4836C707.83 36.4836 706.889 36.2927 706.003 35.9162C705.885 35.8659 705.769 35.8126 705.654 35.7567C707.507 34.2945 708.719 32.0494 708.797 29.5171C709.145 29.7609 709.473 30.0361 709.777 30.3419C710.438 31.0057 710.957 31.7788 711.319 32.6388C711.694 33.529 711.883 34.4752 711.883 35.4512C711.883 35.5654 711.881 35.6788 711.876 35.7918ZM707.766 28.9172C707.771 29.0302 707.774 29.1437 707.774 29.2578C707.774 30.2338 707.585 31.18 707.21 32.0699C706.847 32.9302 706.329 33.7033 705.668 34.3671C705.365 34.6718 705.039 34.9458 704.692 35.1885C704.346 34.9458 704.02 34.6718 703.717 34.3671C703.056 33.7033 702.538 32.9303 702.175 32.0699C701.8 31.18 701.611 30.2338 701.611 29.2578C701.611 29.1437 701.614 29.0302 701.619 28.9172C701.709 28.8741 701.801 28.8325 701.893 28.7929C702.78 28.4164 703.721 28.2254 704.693 28.2254C705.664 28.2254 706.605 28.4163 707.492 28.7929C707.584 28.8325 707.676 28.8741 707.766 28.9172ZM704.693 27.1934C703.664 27.1934 702.679 27.384 701.772 27.731C701.866 27.2921 702 26.8627 702.175 26.4457C702.538 25.5854 703.056 24.8123 703.717 24.1485C704.02 23.8438 704.346 23.5697 704.693 23.327C705.039 23.5697 705.365 23.8438 705.668 24.1485C706.329 24.8123 706.848 25.5853 707.21 26.4457C707.386 26.8627 707.52 27.2921 707.614 27.731C706.706 27.3839 705.721 27.1934 704.693 27.1934ZM700.588 29.5171C700.666 32.0494 701.878 34.2945 703.731 35.7567C703.616 35.8126 703.5 35.8659 703.382 35.9162C702.496 36.2927 701.555 36.4836 700.584 36.4836C699.612 36.4836 698.67 36.2927 697.785 35.9162C697.692 35.8765 697.6 35.8349 697.509 35.7918C697.504 35.6788 697.502 35.5654 697.502 35.4512C697.502 34.4752 697.691 33.529 698.066 32.6392C698.428 31.7788 698.947 31.0057 699.608 30.3419C699.912 30.0361 700.24 29.7609 700.588 29.5171ZM703.731 22.7589C702.058 24.0782 700.909 26.0348 700.643 28.2644C698.224 29.6434 696.57 32.22 696.478 35.1919C696.13 34.9481 695.803 34.6729 695.499 34.3671C694.837 33.7033 694.319 32.9303 693.957 32.0699C693.582 31.18 693.392 30.2338 693.392 29.2578C693.392 28.2817 693.582 27.3356 693.957 26.4457C694.319 25.5854 694.837 24.8123 695.499 24.1485C696.159 23.4847 696.928 22.9634 697.784 22.5994C698.67 22.2229 699.612 22.0319 700.584 22.0319C701.555 22.0319 702.496 22.2228 703.382 22.5994C703.5 22.6497 703.616 22.703 703.731 22.7589ZM715.428 26.4457C715.803 27.3356 715.993 28.2817 715.993 29.2578C715.993 30.2338 715.803 31.18 715.428 32.0699C715.066 32.9302 714.548 33.7033 713.886 34.3671C713.582 34.6729 713.255 34.9481 712.907 35.1919C712.815 32.22 711.161 29.6434 708.742 28.2644C708.476 26.0348 707.327 24.0782 705.654 22.7589C705.769 22.703 705.885 22.6497 706.003 22.5994C706.889 22.2229 707.83 22.032 708.802 22.032C709.773 22.032 710.715 22.2229 711.601 22.5994C712.457 22.9634 713.226 23.4847 713.886 24.1485C714.548 24.8123 715.066 25.5854 715.428 26.4457Z" fill="#FBBF24"/>
<path d="M645.681 47.5417L650.447 50.8203L652.489 52.2255L657.255 55.5044L669.178 39.6318L656.241 30.7326L645.681 47.5417ZM646.802 47.3098L647.682 45.9094L651.852 48.7777L650.915 50.1394L646.802 47.3098ZM651.596 50.608L653.47 47.8847L654.15 48.353L652.277 51.0762L651.596 50.608ZM652.958 51.5445L653.894 50.1829L658.064 53.0515L657.071 54.374L652.958 51.5445ZM667.999 39.8248L658.561 52.3901L654.363 49.5019L655.299 48.1403C655.429 47.9523 655.381 47.6953 655.193 47.566C655.005 47.4367 654.748 47.484 654.619 47.672C654.748 47.484 654.7 47.2267 654.512 47.0974C654.324 46.968 654.067 47.0158 653.938 47.2038C654.067 47.0158 654.02 46.7585 653.832 46.6291C653.644 46.4998 653.386 46.5471 653.257 46.7351L652.32 48.0968L648.122 45.2089L656.482 31.9019L667.999 39.8248Z" fill="white"/>
<path d="M655.573 43.6472L659.177 41.9105L659.051 43.9378L663.645 41.8437L661.861 40.6169L659.365 38.8996L656.155 36.6913L655.573 43.6472ZM661.973 41.6974L659.961 42.6143L660.03 41.499L661.004 41.0305L661.973 41.6974L661.973 41.6974ZM660.219 40.4909L656.517 42.2748L656.86 38.1797L660.219 40.4909Z" fill="white"/>
<g clip-path="url(#clip5_2751:1538)">
<path d="M815.178 119.386C815.178 117.927 813.995 116.744 812.536 116.744C812.34 116.744 812.15 116.765 811.967 116.805L810.215 115.054L814.968 110.301C815.791 109.477 815.791 108.142 814.968 107.319C814.557 106.908 814.017 106.702 813.478 106.702C812.938 106.702 812.399 106.908 811.987 107.319L807.234 112.072L801.82 106.659C801.546 106.384 801.186 106.247 800.827 106.247C800.467 106.247 800.107 106.384 799.832 106.659C799.284 107.207 799.284 108.097 799.832 108.646L805.246 114.06L800.125 119.18V122.162H803.107L808.228 117.041L809.964 118.777C809.917 118.973 809.893 119.177 809.893 119.386C809.893 122.379 814.306 122.616 815.766 122.616C817.225 122.616 815.178 120.846 815.178 119.386ZM813.478 107.404C813.853 107.404 814.206 107.551 814.471 107.816C815.019 108.364 815.019 109.256 814.471 109.804L813.975 110.301L811.987 108.313L812.484 107.816C812.749 107.551 813.102 107.404 813.478 107.404ZM800.329 108.149C800.055 107.875 800.055 107.43 800.329 107.155C800.462 107.023 800.639 106.95 800.827 106.95C801.014 106.95 801.191 107.023 801.323 107.155L806.737 112.569L805.743 113.563L800.329 108.149ZM800.829 121.459V120.877L801.41 121.459H800.829ZM802.816 121.459H802.405L800.829 119.883V119.472L811.49 108.81L812.238 109.557L802.613 119.182C802.475 119.32 802.475 119.542 802.613 119.68C802.749 119.817 802.972 119.817 803.109 119.68L812.734 110.054L813.478 110.797L802.816 121.459ZM808.724 116.545L809.718 115.551L811.247 117.079C810.831 117.312 810.484 117.653 810.246 118.066L808.724 116.545ZM812.506 121.458C811.895 121.252 811.424 120.984 811.106 120.661C810.763 120.312 810.596 119.895 810.596 119.386C810.596 118.868 810.797 118.381 811.164 118.015C811.53 117.648 812.017 117.447 812.536 117.447C813.606 117.447 814.476 118.317 814.476 119.386C814.476 120.186 814.902 120.967 815.245 121.593C815.296 121.687 815.358 121.8 815.414 121.909C814.657 121.889 813.511 121.796 812.506 121.458Z" fill="#FBBF24"/>
</g>
<g clip-path="url(#clip6_2751:1538)">
<path d="M757.044 94.608L788.119 103.413L790.01 96.74L758.934 87.9347L757.044 94.608ZM787.322 101.986L785.131 101.365L785.446 100.253C785.533 99.9453 785.354 99.626 785.048 99.5384C784.74 99.452 784.421 99.6304 784.333 99.9372C784.334 99.938 784.334 99.938 784.334 99.938L784.019 101.05L781.794 100.419L782.109 99.3077C782.197 99.0001 782.018 98.6807 781.711 98.5936C781.404 98.5068 781.084 98.6848 780.997 98.9919L780.682 100.105L778.458 99.4743L778.772 98.3619L778.773 98.3616C778.86 98.055 778.681 97.7349 778.374 97.6483C778.067 97.5612 777.748 97.7395 777.661 98.0469C777.66 98.0471 777.66 98.0471 777.66 98.0471L777.345 99.1588L775.121 98.5284L775.436 97.4166C775.523 97.1092 775.345 96.7899 775.038 96.7025C774.731 96.6159 774.411 96.7944 774.324 97.101L774.009 98.2137L771.784 97.5834L772.1 96.4715C772.187 96.1639 772.008 95.8448 771.701 95.7574C771.394 95.6701 771.074 95.8484 770.987 96.156L770.672 97.2686L768.448 96.6381L768.763 95.5255C768.85 95.2189 768.672 94.8988 768.365 94.8122C768.057 94.725 767.738 94.9033 767.651 95.2107C767.651 95.2109 767.651 95.2109 767.651 95.2109L767.336 96.3226L765.111 95.6923L765.427 94.5804C765.513 94.2731 765.335 93.9537 765.028 93.8664C764.721 93.7797 764.401 93.9583 764.314 94.2649C764.314 94.2649 764.314 94.2649 764.315 94.2657L763.999 95.3775L761.775 94.7472L762.089 93.6358C762.09 93.6356 762.09 93.6354 762.09 93.6354C762.177 93.328 761.999 93.0087 761.691 92.9213C761.384 92.8339 761.064 93.0125 760.978 93.3199L760.662 94.4317L758.471 93.8109L759.731 89.3621L788.583 97.5371L787.322 101.986Z" fill="#FBBF24"/>
</g>
<path d="M782.061 39.675L772.946 28.382C772.837 28.2468 772.639 28.2254 772.503 28.3348L764.647 34.675C764.512 34.7844 764.491 34.9831 764.6 35.1183L767.888 39.1927L766.178 40.0876L766.099 39.9895C765.99 39.8542 765.791 39.833 765.655 39.9424C765.52 40.0519 765.499 40.2506 765.608 40.3858L768.778 44.3141C768.887 44.4493 769.086 44.4707 769.222 44.3613C769.357 44.2519 769.378 44.053 769.269 43.9178L769.19 43.8193L770.425 42.3364L773.714 46.4114C773.823 46.5466 774.022 46.568 774.157 46.4586L782.013 40.1184C782.149 40.0089 782.17 39.8103 782.061 39.675ZM766.582 40.5886L768.29 39.6949L770.02 41.837L768.786 43.3187L766.582 40.5886L766.582 40.5886ZM781.371 39.8254L774.989 44.9767L766.271 34.1755L772.654 29.0243L781.371 39.8254ZM769.648 40.3687L765.289 34.9682L765.78 34.5718L770.139 39.9724L774.497 45.373L774.006 45.7693L769.648 40.3687Z" fill="#FBBF24"/>
<path d="M770.091 40.4161C770.227 40.3067 770.248 40.1083 770.139 39.9728C770.03 39.8372 769.831 39.8162 769.696 39.9256C769.56 40.035 769.539 40.2335 769.648 40.3691C769.757 40.5047 769.956 40.5255 770.091 40.4161Z" fill="#FBBF24"/>
<path d="M772.267 30.5534L778.21 37.9174C778.21 37.9174 778.211 37.9178 778.211 37.9182C778.32 38.0534 778.519 38.0747 778.654 37.9653C778.79 37.8559 778.811 37.6571 778.702 37.5218L772.758 30.1571C772.648 30.0212 772.45 29.9999 772.314 30.1094C772.178 30.2188 772.157 30.4175 772.267 30.5534Z" fill="#FBBF24"/>
<path d="M771.285 31.3462L774.455 35.2735C774.455 35.2739 774.455 35.2739 774.455 35.2739C774.564 35.4095 774.763 35.4305 774.898 35.321C775.034 35.2116 775.055 35.0133 774.946 34.8777L771.776 30.9501C771.666 30.8142 771.467 30.7928 771.332 30.9022C771.196 31.0116 771.175 31.2103 771.285 31.3462Z" fill="#FBBF24"/>
<path d="M770.302 32.1394L774.66 37.5396C774.661 37.5399 774.661 37.5399 774.661 37.5399C774.77 37.6755 774.968 37.6965 775.104 37.5871C775.24 37.4777 775.261 37.2792 775.152 37.1436L770.793 31.7431C770.683 31.6071 770.485 31.5857 770.349 31.6952C770.213 31.8047 770.192 32.0034 770.302 32.1394Z" fill="#FBBF24"/>
<path d="M769.321 32.9314L772.094 36.3677C772.204 36.5037 772.403 36.5251 772.538 36.4156C772.674 36.3062 772.695 36.1075 772.585 35.9716L769.812 32.535C769.702 32.3991 769.503 32.3779 769.368 32.4873C769.232 32.5967 769.211 32.7954 769.321 32.9314Z" fill="#FBBF24"/>
<path d="M768.339 33.7242L773.49 40.1065L773.49 40.1066C773.599 40.2425 773.798 40.2638 773.934 40.1544C774.069 40.0449 774.09 39.8462 773.981 39.7103L768.83 33.328C768.72 33.1921 768.521 33.1707 768.386 33.2801C768.25 33.3895 768.229 33.5882 768.339 33.7242Z" fill="#FBBF24"/>
<path d="M767.357 34.5163L768.941 36.4798C769.051 36.6157 769.25 36.6371 769.385 36.5277C769.521 36.4182 769.542 36.2194 769.432 36.0834L767.848 34.12C767.738 33.9841 767.539 33.9627 767.404 34.0721C767.268 34.1817 767.247 34.3804 767.357 34.5163Z" fill="#FBBF24"/>
<path d="M737.284 56.3188L722.532 69.2987C722.354 69.4546 722.337 69.7246 722.493 69.9017L731.522 80.1641C731.678 80.3412 731.948 80.3583 732.125 80.2024L737.448 75.5193L738.757 77.7812L738.629 77.8941C738.452 78.0499 738.434 78.3202 738.59 78.4973C738.746 78.6744 739.016 78.6914 739.193 78.5355L744.325 74.0207C744.502 73.8648 744.519 73.5953 744.363 73.4182C744.207 73.2411 743.937 73.2234 743.76 73.3792L743.632 73.4921L741.554 71.9064L746.878 67.2225C747.055 67.0666 747.072 66.7971 746.916 66.62L737.886 56.3575C737.731 56.1804 737.461 56.1629 737.284 56.3188ZM739.411 77.2059L738.104 74.947L740.902 72.4832L742.978 74.0674L739.411 77.2059L739.411 77.2059ZM740.349 60.4495L738.425 62.1425L735.603 58.9356L737.527 57.2425L740.349 60.4495ZM738.989 62.784L740.913 61.0909L744.864 65.5806L742.94 67.2736L738.989 62.784ZM734.962 59.4998L742.298 67.8378L730.753 77.9959L723.417 69.6579L734.962 59.4998ZM738.937 73.0714L731.882 79.2789L731.318 78.6374L738.373 72.4299L745.428 66.222L745.993 66.8635L738.937 73.0714Z" fill="#FBBF24"/>
<path d="M738.975 72.4683C738.819 72.2912 738.549 72.2738 738.372 72.43C738.195 72.5859 738.178 72.8554 738.333 73.0325C738.489 73.2096 738.759 73.2273 738.936 73.0715C739.114 72.9153 739.131 72.6454 738.975 72.4683Z" fill="#FBBF24"/>
<path d="M734.629 70.0225L736.828 68.0877L731.863 66.3867L732.468 69.3333L731.013 68.869L731.697 72.6025L732.919 71.5274L734.629 70.0225ZM733.001 67.6795L735.158 68.4188L733.46 69.9134L733.001 67.6795ZM732.265 70.9641L732.11 70.1157L732.665 70.2929L732.721 70.5636L732.265 70.9641Z" fill="#FBBF24"/>
<path d="M727.11 68.6829L726.469 69.2471L727.033 69.8885L727.675 69.3243L727.11 68.6829Z" fill="#FBBF24"/>
<path d="M730.637 65.5794L729.996 66.1436L730.561 66.785L731.202 66.2208L730.637 65.5794Z" fill="#FBBF24"/>
<path d="M734.165 62.4754L733.523 63.04L734.087 63.6815L734.729 63.1169L734.165 62.4754Z" fill="#FBBF24"/>
<path d="M736.423 65.0418L735.781 65.6064L736.345 66.2477L736.987 65.6831L736.423 65.0418Z" fill="#FBBF24"/>
<path d="M738.681 67.6073L738.039 68.1719L738.603 68.8134L739.245 68.2487L738.681 67.6073Z" fill="#FBBF24"/>
<path d="M731.626 73.8147L730.984 74.3789L731.549 75.0204L732.19 74.4562L731.626 73.8147Z" fill="#FBBF24"/>
<path d="M729.368 71.2493L728.727 71.8135L729.291 72.4547L729.932 71.8905L729.368 71.2493Z" fill="#FBBF24"/>
<path d="M735.153 70.7112L734.512 71.2754L735.076 71.9169L735.717 71.3527L735.153 70.7112Z" fill="#FBBF24"/>
<circle cx="819.86" cy="82.3147" r="5.05686" stroke="#FBBF24" stroke-width="10"/>
<path d="M770.187 205.012V202.473H766.329V198H763.665V202.473H759.806V205.012H763.665V209.679H766.329V205.012H770.187Z" fill="white"/>
<path d="M793.24 210.458C793.239 209.481 790.575 201.148 800.966 204.08C811.356 207.012 814.553 202.125 816.684 192.707C818.816 183.289 825.032 182.4 829.917 182.578" stroke="#FBBF24" stroke-width="8" stroke-linecap="round" stroke-linejoin="round"/>
<path d="M821.609 50.054C821.266 50.2292 818.813 52.6547 817.989 48.4936C817.165 44.3325 814.878 44.0897 811.188 45.0318C807.498 45.974 806.076 43.9581 805.267 42.2172" stroke="#FBBF24" stroke-width="8" stroke-linecap="round" stroke-linejoin="round"/>
<g clip-path="url(#clip7_2751:1538)">
<path d="M831.325 247.956L825.662 242.084L829.953 237.634C830.809 236.747 830.809 235.309 829.953 234.422C829.526 233.979 828.965 233.757 828.405 233.757C827.845 233.757 827.284 233.979 826.856 234.422L822.565 238.872L816.903 233L813.806 236.211L819.468 242.084L814.536 247.199V250.41H817.633L822.565 245.295L828.227 251.167L831.325 247.956ZM825.146 241.548L824.374 240.748L827.633 237.368L828.405 238.169L825.146 241.548ZM827.373 234.957C827.648 234.671 828.015 234.514 828.405 234.514C828.795 234.514 829.161 234.671 829.437 234.957C830.006 235.548 830.006 236.508 829.437 237.098L828.921 237.634L826.856 235.492L827.373 234.957ZM826.34 236.028L827.117 236.833L823.858 240.212L823.081 239.407L826.34 236.028ZM816.903 234.071L817.92 235.125L817.404 235.66C817.261 235.808 817.261 236.048 817.404 236.196C817.546 236.343 817.777 236.343 817.92 236.196C817.92 236.196 817.92 236.195 817.921 236.195L818.436 235.66L819.468 236.731L818.952 237.266C818.81 237.414 818.81 237.654 818.952 237.802C819.095 237.949 819.326 237.949 819.468 237.802C819.468 237.801 819.468 237.801 819.468 237.801L819.985 237.266L821.017 238.337L820.501 238.872C820.501 238.872 820.501 238.872 820.501 238.872C820.358 239.02 820.358 239.259 820.501 239.407C820.643 239.555 820.874 239.555 821.017 239.407V239.407L821.533 238.872L822.565 239.942L822.049 240.478C821.907 240.626 821.907 240.865 822.049 241.013C822.192 241.161 822.423 241.161 822.565 241.013L823.081 240.478L824.114 241.548L823.598 242.084C823.455 242.231 823.455 242.471 823.598 242.619C823.74 242.767 823.971 242.767 824.114 242.619C824.114 242.619 824.114 242.619 824.114 242.619L824.63 242.084L825.662 243.154L825.146 243.689V243.689C825.004 243.837 825.004 244.077 825.146 244.225C825.289 244.373 825.52 244.373 825.662 244.225L826.178 243.689L827.211 244.76L826.695 245.295C826.552 245.443 826.552 245.683 826.695 245.83C826.837 245.978 827.068 245.978 827.211 245.83C827.211 245.83 827.211 245.83 827.211 245.83L827.727 245.295L828.759 246.366L828.244 246.901L828.243 246.901C828.1 247.049 828.1 247.289 828.243 247.436C828.386 247.584 828.617 247.584 828.759 247.436L829.275 246.901L830.292 247.956L828.228 250.097L814.839 236.211L816.903 234.071ZM815.266 249.653V249.026L815.871 249.653H815.266ZM817.33 249.653H816.903L815.266 247.956V247.512L819.985 242.619L820.761 243.424L817.119 247.201C816.976 247.349 816.976 247.589 817.119 247.736C817.261 247.884 817.492 247.884 817.635 247.736L821.277 243.96L822.049 244.76L817.33 249.653Z" fill="white"/>
</g>
<path d="M659.247 86.8914L656.781 84.2957L653.974 92.7366L657.697 91.9064L662.908 90.744L669.608 89.2497L661.327 80.156L659.247 86.8914ZM655.83 91.0605L657.302 86.6334L658.83 88.2409L658.116 90.5508L655.83 91.0605ZM659.501 90.2418L661.868 82.5796L667.268 88.5095L659.501 90.2418Z" fill="white"/>
<path d="M665.458 70.6474L665.184 69.4191C665.109 69.08 664.779 68.8651 664.447 68.9391C664.114 69.0134 663.906 69.3481 663.982 69.6873L664.256 70.9155L661.85 71.4521L661.576 70.2238C661.501 69.8846 661.171 69.6698 660.839 69.7438C660.506 69.8181 660.299 70.1528 660.374 70.4919L660.648 71.7202L658.243 72.2566L657.969 71.0283C657.894 70.6892 657.563 70.4744 657.231 70.5485C656.899 70.6226 656.691 70.9575 656.766 71.2966L657.04 72.5249L654.635 73.0613L654.361 71.833C654.286 71.4939 653.955 71.2791 653.623 71.3532C653.291 71.4273 653.083 71.7621 653.159 72.1013L653.433 73.3296L651.028 73.866L650.754 72.6377C650.678 72.2986 650.348 72.0838 650.016 72.1578C649.683 72.232 649.475 72.5668 649.551 72.9059L649.825 74.1342L646.217 74.9389L652.244 101.959L675.093 96.8631L669.066 69.8427L665.458 70.6474ZM673.622 95.9281L653.178 100.488L647.688 75.8734L650.093 75.337L650.356 76.5137C650.431 76.8529 650.762 77.0681 651.094 76.9939C651.426 76.9198 651.634 76.5845 651.558 76.2455L651.296 75.0687L653.701 74.5323L653.963 75.7091C654.039 76.0482 654.369 76.2634 654.702 76.1892C655.034 76.1151 655.242 75.7799 655.166 75.4408L654.904 74.264L657.309 73.7276L657.571 74.9044C657.647 75.2435 657.977 75.4587 658.31 75.3845C658.642 75.3105 658.849 74.9752 658.774 74.6361L658.511 73.4594L660.916 72.923L661.179 74.0997C661.254 74.4388 661.585 74.6541 661.917 74.5799C662.25 74.5058 662.457 74.1706 662.381 73.8315L662.119 72.6548L664.524 72.1183L664.787 73.295C664.862 73.6342 665.192 73.8494 665.525 73.7752C665.857 73.7011 666.065 73.366 665.989 73.0269L665.726 71.8501L668.132 71.3136L673.622 95.9281Z" fill="white"/>
<defs>
<linearGradient id="paint0_linear_2751:1538" x1="51.8629" y1="147.429" x2="59.4437" y2="172.904" gradientUnits="userSpaceOnUse">
<stop stop-color="#FFC000"/>
<stop offset="1" stop-color="white"/>
</linearGradient>
<linearGradient id="paint1_linear_2751:1538" x1="133.813" y1="77.121" x2="111.474" y2="76.3558" gradientUnits="userSpaceOnUse">
<stop stop-color="#FFC000"/>
<stop offset="1" stop-color="white"/>
</linearGradient>
<linearGradient id="paint2_linear_2751:1538" x1="125.784" y1="80.2468" x2="118.565" y2="80.5548" gradientUnits="userSpaceOnUse">
<stop stop-color="#FFC000"/>
<stop offset="1" stop-color="white"/>
</linearGradient>
<linearGradient id="paint3_linear_2751:1538" x1="22.4474" y1="105.913" x2="28.1203" y2="125.677" gradientUnits="userSpaceOnUse">
<stop stop-color="#FFC000"/>
<stop offset="1" stop-color="white"/>
</linearGradient>
<linearGradient id="paint4_linear_2751:1538" x1="157.152" y1="108.456" x2="159.824" y2="107.569" gradientUnits="userSpaceOnUse">
<stop stop-color="#FFC000"/>
<stop offset="1" stop-color="white"/>
</linearGradient>
<linearGradient id="paint5_linear_2751:1538" x1="158.15" y1="111.646" x2="160.214" y2="111.8" gradientUnits="userSpaceOnUse">
<stop stop-color="#FFC000"/>
<stop offset="1" stop-color="white"/>
</linearGradient>
<linearGradient id="paint6_linear_2751:1538" x1="148.02" y1="103.655" x2="154.277" y2="106.172" gradientUnits="userSpaceOnUse">
<stop stop-color="#FFC000"/>
<stop offset="1" stop-color="white"/>
</linearGradient>
<linearGradient id="paint7_linear_2751:1538" x1="143.054" y1="106.602" x2="161.791" y2="113.615" gradientUnits="userSpaceOnUse">
<stop stop-color="#FFC000"/>
<stop offset="1" stop-color="white"/>
</linearGradient>
<linearGradient id="paint8_linear_2751:1538" x1="14.8476" y1="135.223" x2="23.6518" y2="162.491" gradientUnits="userSpaceOnUse">
<stop stop-color="#FFC000"/>
<stop offset="1" stop-color="white"/>
</linearGradient>
<linearGradient id="paint9_linear_2751:1538" x1="99.6821" y1="35.6298" x2="105.456" y2="54.4608" gradientUnits="userSpaceOnUse">
<stop stop-color="#FFC000"/>
<stop offset="1" stop-color="white"/>
</linearGradient>
<linearGradient id="paint10_linear_2751:1538" x1="83.5109" y1="96.3298" x2="106.168" y2="73.0696" gradientUnits="userSpaceOnUse">
<stop stop-color="#FFC000"/>
<stop offset="1" stop-color="white"/>
</linearGradient>
<linearGradient id="paint11_linear_2751:1538" x1="33.097" y1="69.9892" x2="23.7328" y2="84.7855" gradientUnits="userSpaceOnUse">
<stop stop-color="#FFC000"/>
<stop offset="1" stop-color="white"/>
</linearGradient>
<linearGradient id="paint12_linear_2751:1538" x1="33.38" y1="81.5544" x2="32.9617" y2="82.1622" gradientUnits="userSpaceOnUse">
<stop stop-color="#FFC000"/>
<stop offset="1" stop-color="white"/>
</linearGradient>
<linearGradient id="paint13_linear_2751:1538" x1="30.8112" y1="73.0755" x2="31.9747" y2="75.3509" gradientUnits="userSpaceOnUse">
<stop stop-color="#FFC000"/>
<stop offset="1" stop-color="white"/>
</linearGradient>
<linearGradient id="paint14_linear_2751:1538" x1="28.2215" y1="76.8018" x2="28.993" y2="79.1204" gradientUnits="userSpaceOnUse">
<stop stop-color="#FFC000"/>
<stop offset="1" stop-color="white"/>
</linearGradient>
<linearGradient id="paint15_linear_2751:1538" x1="30.4677" y1="76.6061" x2="31.4607" y2="78.9155" gradientUnits="userSpaceOnUse">
<stop stop-color="#FFC000"/>
<stop offset="1" stop-color="white"/>
</linearGradient>
<linearGradient id="paint16_linear_2751:1538" x1="29.3284" y1="79.1538" x2="29.9943" y2="81.4648" gradientUnits="userSpaceOnUse">
<stop stop-color="#FFC000"/>
<stop offset="1" stop-color="white"/>
</linearGradient>
<linearGradient id="paint17_linear_2751:1538" x1="33.0254" y1="77.78" x2="34.1158" y2="80.0729" gradientUnits="userSpaceOnUse">
<stop stop-color="#FFC000"/>
<stop offset="1" stop-color="white"/>
</linearGradient>
<linearGradient id="paint18_linear_2751:1538" x1="29.4678" y1="82.2908" x2="29.6524" y2="84.4447" gradientUnits="userSpaceOnUse">
<stop stop-color="#FFC000"/>
<stop offset="1" stop-color="white"/>
</linearGradient>
<linearGradient id="paint19_linear_2751:1538" x1="49.7824" y1="114.141" x2="70.3383" y2="125.957" gradientUnits="userSpaceOnUse">
<stop stop-color="#FFC000"/>
<stop offset="1" stop-color="white"/>
</linearGradient>
<linearGradient id="paint20_linear_2751:1538" x1="65.4116" y1="113.093" x2="66.2585" y2="113.624" gradientUnits="userSpaceOnUse">
<stop stop-color="#FFC000"/>
<stop offset="1" stop-color="white"/>
</linearGradient>
<linearGradient id="paint21_linear_2751:1538" x1="58.0619" y1="117.985" x2="64.9942" y2="121.167" gradientUnits="userSpaceOnUse">
<stop stop-color="#FFC000"/>
<stop offset="1" stop-color="white"/>
</linearGradient>
<linearGradient id="paint22_linear_2751:1538" x1="61.977" y1="124.684" x2="62.824" y2="125.215" gradientUnits="userSpaceOnUse">
<stop stop-color="#FFC000"/>
<stop offset="1" stop-color="white"/>
</linearGradient>
<linearGradient id="paint23_linear_2751:1538" x1="58.8642" y1="121.165" x2="59.7112" y2="121.697" gradientUnits="userSpaceOnUse">
<stop stop-color="#FFC000"/>
<stop offset="1" stop-color="white"/>
</linearGradient>
<linearGradient id="paint24_linear_2751:1538" x1="55.7511" y1="117.645" x2="56.5988" y2="118.177" gradientUnits="userSpaceOnUse">
<stop stop-color="#FFC000"/>
<stop offset="1" stop-color="white"/>
</linearGradient>
<linearGradient id="paint25_linear_2751:1538" x1="58.3116" y1="115.382" x2="59.1593" y2="115.913" gradientUnits="userSpaceOnUse">
<stop stop-color="#FFC000"/>
<stop offset="1" stop-color="white"/>
</linearGradient>
<linearGradient id="paint26_linear_2751:1538" x1="60.8712" y1="113.117" x2="61.7189" y2="113.648" gradientUnits="userSpaceOnUse">
<stop stop-color="#FFC000"/>
<stop offset="1" stop-color="white"/>
</linearGradient>
<linearGradient id="paint27_linear_2751:1538" x1="67.097" y1="120.156" x2="67.9439" y2="120.687" gradientUnits="userSpaceOnUse">
<stop stop-color="#FFC000"/>
<stop offset="1" stop-color="white"/>
</linearGradient>
<linearGradient id="paint28_linear_2751:1538" x1="64.5374" y1="122.419" x2="65.3844" y2="122.95" gradientUnits="userSpaceOnUse">
<stop stop-color="#FFC000"/>
<stop offset="1" stop-color="white"/>
</linearGradient>
<linearGradient id="paint29_linear_2751:1538" x1="63.9843" y1="116.636" x2="64.8313" y2="117.167" gradientUnits="userSpaceOnUse">
<stop stop-color="#FFC000"/>
<stop offset="1" stop-color="white"/>
</linearGradient>
<linearGradient id="paint30_linear_2751:1538" x1="85.1394" y1="22.3348" x2="62.5579" y2="28.9905" gradientUnits="userSpaceOnUse">
<stop stop-color="#FFC000"/>
<stop offset="1" stop-color="white"/>
</linearGradient>
<linearGradient id="paint31_linear_2751:1538" x1="176.238" y1="22.0662" x2="191.636" y2="61.1775" gradientUnits="userSpaceOnUse">
<stop stop-color="#FFC000"/>
<stop offset="1" stop-color="white"/>
</linearGradient>
<linearGradient id="paint32_linear_2751:1538" x1="35.3352" y1="46.2853" x2="46.2961" y2="33.9263" gradientUnits="userSpaceOnUse">
<stop stop-color="#FFC000"/>
<stop offset="1" stop-color="white"/>
</linearGradient>
<clipPath id="clip0_2751:1538">
<rect width="17.5184" height="18.1672" fill="white" transform="translate(22.0531 123.205) rotate(-90.1492)"/>
</clipPath>
<clipPath id="clip1_2751:1538">
<rect width="16.8696" height="16.8696" fill="white" transform="translate(99.0795 52.2812) rotate(-90.1492)"/>
</clipPath>
<clipPath id="clip2_2751:1538">
<rect width="27.7429" height="27.7429" fill="white" transform="translate(107.712 83.502) rotate(150.67)"/>
</clipPath>
<clipPath id="clip3_2751:1538">
<rect width="17.5184" height="18.1672" fill="white" transform="translate(226.045 37.5664) rotate(-90.1492)"/>
</clipPath>
<clipPath id="clip4_2751:1538">
<rect width="17.5184" height="18.1672" fill="white" transform="translate(728.699 28.7861)"/>
</clipPath>
<clipPath id="clip5_2751:1538">
<rect width="16.8696" height="16.8696" fill="white" transform="translate(799.421 105.997)"/>
</clipPath>
<clipPath id="clip6_2751:1538">
<rect width="27.7429" height="27.7429" fill="white" transform="translate(768.179 114.548) rotate(-119.18)"/>
</clipPath>
<clipPath id="clip7_2751:1538">
<rect width="17.5184" height="18.1672" fill="white" transform="translate(813.806 233)"/>
</clipPath>
</defs>
</svg>
